<?xml version="1.0" standalone="no"?>
<!DOCTYPE svg PUBLIC "-//W3C//DTD SVG 1.1//EN" "http://www.w3.org/Graphics/SVG/1.1/DTD/svg11.dtd" >
<!--
2013-9-30: Created.
-->
<svg>
<metadata>
Created by iconfont
</metadata>
<defs>

<font id="iconfont" horiz-adv-x="1024" >
  <font-face
    font-family="iconfont"
    font-weight="500"
    font-stretch="normal"
    units-per-em="1024"
    ascent="896"
    descent="-128"
  />
    <missing-glyph />
    
    <glyph glyph-name="wangzhanshezhi" unicode="&#58965;" d="M485.508458 100.234826q1.018905-1.018905 1.018905-2.037811-1.018905 0-3.056716-2.037811 2.037811 2.037811 2.037811 4.075622zM487.546269 125.707463q0-4.075622 1.018905-7.132338l2.037811-6.113433q-1.018905-4.075622-5.094527-12.226866-10.189055 17.321393 0 24.453731zM483.470647 96.159204q-2.037811-5.094527-5.60398-11.20796t-6.622886-11.20796q-3.056716 3.056716-4.075622 10.189055 4.075622 3.056716 7.641791 6.113433t8.660697 6.113433zM513.018905 96.159204q9.170149 2.037811 17.321393-1.018905 7.132338-2.037811 14.264677-8.660697t12.226866-20.887562q8.151244-21.397015 1.528358-41.265672t-19.868657-31.076617q-10.189055-8.151244-12.736318-14.774129t-0.509453-11.717413q1.018905-6.113433 5.094527-13.245771t9.170149-15.283582l-4.075622 0q-98.833831 0-185.950249 37.699502t-152.326368 102.4-102.909453 151.816915-37.699502 186.969154q0 98.833831 37.699502 185.950249t102.909453 152.326368 152.326368 102.909453 185.950249 37.699502 186.459701-37.699502 152.326368-102.909453 102.4-152.326368 37.699502-185.950249l0-15.283582q0-7.132338-1.018905-15.283582-4.075622 2.037811-7.641791 4.075622t-6.622886 4.075622q-6.113433 2.037811-13.755224-0.509453t-12.736318-6.622886q-8.151244-8.151244-15.793035-9.679602t-16.302488 1.018905-18.340299 7.132338-20.887562 9.679602q-22.41592 9.170149-38.208955 16.81194t-14.774129 28.0199q0 6.113433-2.547264 13.245771t-10.698507 11.20796q-6.113433 3.056716-17.830846 5.60398t-24.963184 3.056716-25.98209-2.037811-20.887562-9.679602q-3.056716-4.075622-4.075622-9.170149l-2.037811-10.189055q-2.037811-8.151244-7.132338-20.378109t-27.510448-21.397015q-11.20796-4.075622-20.378109-10.189055t-16.81194-10.189055-15.283582-4.075622-15.793035 8.151244q-9.170149 9.170149-20.378109 8.151244-8.151244-1.018905-16.81194-6.622886t-16.81194-13.245771-15.283582-16.81194-10.189055-17.321393q-1.018905-1.018905-1.018905-3.056716-1.018905 2.037811-1.018905 5.094527t-1.018905 7.132338q-2.037811 21.397015-16.302488 36.680597t-32.604975 17.321393q-14.264677 1.018905-21.906468 5.094527t-14.774129 8.151244-16.81194 7.641791-29.038806 4.585075q-27.510448 1.018905-39.227861 2.547264t-16.81194 2.547264-8.151244 2.037811-12.226866 0q-9.170149 0-32.604975-8.151244t-47.379104-18.849751-42.284577-22.41592-18.340299-18.849751q0-40.756219 8.660697-65.719403t18.849751-35.152239q5.094527-5.094527 13.755224-6.622886t18.849751-2.547264 18.849751-2.547264 13.755224-7.641791q11.20796-12.226866 25.98209-10.189055t28.529353 6.622886 23.434826 3.566169 10.698507-19.359204q0-8.151244 3.056716-12.226866t8.151244-6.113433l12.226866-6.113433q7.132338-4.075622 15.283582-11.20796 8.151244-8.151244 5.60398-15.283582t-8.151244-13.755224-10.189055-14.264677 0.509453-14.774129q7.132338-11.20796 15.283582-16.302488t15.793035-8.660697 13.245771-8.151244 8.660697-14.774129q0-1.018905 1.018905-1.018905-14.264677-10.189055-15.283582-23.434826-2.037811-11.20796 4.585075-5.60398t14.774129 18.849751q1.018905-2.037811 3.056716 0 1.018905 1.018905 1.018905 3.056716 1.018905-1.018905 10.698507-8.660697t20.887562-15.283582 21.397015-12.736318 12.226866-2.037811q1.018905 2.037811-4.585075 8.151244t-14.264677 14.774129-18.849751 18.340299-16.302488 18.849751q6.113433 3.056716 9.170149 6.113433 8.151244-7.132338 17.321393-8.151244zM516.075622 656.557214q-8.151244 0-25.472637-4.585075t-35.152239-15.283582-30.567164-27.510448-11.717413-41.265672q1.018905-27.510448 9.679602-35.661692t22.41592-9.170149 32.604975-2.037811 41.265672-13.245771q25.472637-2.037811 47.888557-6.113433 19.359204-3.056716 39.227861-7.641791t33.114428-12.736318q15.283582-9.170149 10.698507-14.774129t-13.755224-9.170149-16.302488-8.151244 4.075622-12.736318q15.283582-11.20796 19.359204-10.698507t8.660697 6.113433 15.793035 12.226866 40.756219 6.622886q-8.151244 0-4.585075 3.566169t12.226866 8.660697 19.359204 12.226866 18.849751 13.245771q5.094527 5.094527 17.321393 3.056716t28.0199-6.113433 33.114428-9.170149 31.58607-7.132338 23.434826 1.528358 10.189055 15.793035q1.018905 18.340299-0.509453 34.133333t-6.622886 31.076617-13.755224 32.095522-21.906468 38.208955q-14.264677 22.41592-25.472637 37.699502t-22.41592 25.98209-23.434826 19.359204-28.529353 17.830846-32.095522 19.868657-34.133333 14.264677-39.737313-4.585075-47.888557-35.661692q-8.151244-7.132338-18.849751-17.830846t-22.925373-19.868657-23.944279-15.793035-19.868657-6.622886zM558.869652 308.091542l12.226866-12.226866q4.075622-4.075622 4.585075-8.151244t-1.528358-10.189055-7.132338-17.321393q-5.094527-13.245771-11.20796-24.963184t-14.264677-19.868657q6.113433 7.132338 9.170149 15.283582 7.132338 22.41592 8.151244 40.756219t-1.018905 38.718408l1.018905-1.018905 0-1.018905zM1015.339303 187.860697q4.075622-8.151244 3.566169-22.41592t-4.585075-26.491542q-2.037811-8.151244-6.622886-10.698507t-8.660697-2.547264q-15.283582 1.018905-29.548259-6.622886t-20.378109-21.906468-3.056716-28.0199 14.264677-24.963184q1.018905-2.037811 3.056716-5.094527 1.018905-2.037811 2.037811-5.60398t0-6.622886q-2.037811-11.20796-15.793035-24.963184t-25.98209-14.774129q-6.113433-1.018905-9.679602 1.018905t-7.641791 5.094527q-8.151244 7.132338-22.41592 13.245771t-28.529353 1.018905q-14.264677-6.113433-21.397015-19.359204t-7.132338-27.510448q0-11.20796-9.170149-16.302488-8.151244-5.094527-25.472637-4.585075t-28.529353 5.60398q-8.151244 3.056716-8.151244 14.264677 0 14.264677-7.132338 28.529353t-21.397015 21.397015q-14.264677 6.113433-30.057711 1.528358t-25.98209-15.793035q-7.132338-7.132338-19.359204-2.037811-11.20796 5.094527-24.453731 18.849751t-15.283582 24.963184q-2.037811 8.151244 8.151244 18.340299 8.151244 7.132338 12.736318 20.378109t-0.509453 27.510448q-3.056716 9.170149-10.189055 14.264677t-15.283582 8.151244q-9.170149 3.056716-19.359204 4.075622-8.151244 2.037811-11.20796 6.113433-8.151244 8.151244-7.641791 28.0199t6.622886 30.057711q6.113433 9.170149 13.245771 8.151244 15.283582 0 30.057711 7.132338t20.887562 21.397015 1.018905 29.548259-15.283582 26.491542q-7.132338 7.132338-2.037811 19.359204 5.094527 11.20796 16.81194 22.41592t21.906468 13.245771q7.132338 1.018905 14.264677-6.113433 10.189055-10.189055 24.963184-13.755224t29.038806 1.528358q7.132338 3.056716 12.736318 9.679602t9.170149 13.245771 5.60398 12.736318 2.037811 9.170149q1.018905 2.037811 1.528358 6.113433t3.566169 6.113433q5.094527 4.075622 13.245771 5.60398t16.81194 1.528358 16.81194-2.037811l12.226866-3.056716q5.094527-2.037811 6.622886-7.132338t1.528358-9.170149q-1.018905-14.264677 6.113433-27.000995t21.397015-18.849751 29.038806-3.056716 24.963184 14.264677q3.056716 2.037811 8.151244 4.075622t9.170149 0q11.20796-5.094527 23.434826-17.321393t14.264677-26.491542q1.018905-4.075622-1.528358-7.641791t-4.585075-5.60398q-11.20796-10.189055-14.774129-24.453731t2.547264-28.529353 20.378109-21.397015 28.529353-7.132338q11.20796 2.037811 16.302488-9.170149zM858.427861 131.820896q11.20796 27.510448 0 55.020896t-37.699502 39.737313q-27.510448 11.20796-55.530348 0t-39.227861-37.699502q-12.226866-27.510448-3.566169-57.568159t38.208955-42.284577l2.037811 3.056716q29.548259-13.245771 56.549254-0.509453t39.227861 40.246766z"  horiz-adv-x="1024" />

    
    <glyph glyph-name="shezhi" unicode="&#58880;" d="M1016.832 289.792q2.048-12.288-1.024-29.696t-10.24-35.328-17.408-32.256-22.528-20.48-21.504-6.144-20.48 4.096q-10.24 3.072-25.6 5.632t-31.232 1.024-31.744-6.656-27.136-17.408q-24.576-25.6-28.672-58.368t9.216-62.464q10.24-20.48-3.072-40.96-6.144-8.192-19.456-16.896t-29.184-15.872-33.28-11.264-30.72-4.096q-9.216 0-17.408 7.168t-11.264 15.36l-1.024 0q-11.264 31.744-38.4 54.784t-62.976 23.04q-34.816 0-62.976-23.04t-39.424-53.76q-5.12-12.288-15.36-17.92t-22.528-5.632q-14.336 0-32.256 5.12t-35.84 12.8-32.256 17.92-21.504 20.48q-5.12 7.168-5.632 16.896t7.68 27.136q11.264 23.552 8.704 53.76t-26.112 55.808q-14.336 15.36-34.816 19.968t-38.912 3.584q-21.504-1.024-44.032-8.192-14.336-4.096-28.672 2.048-11.264 4.096-20.992 18.944t-17.408 32.768-11.776 36.864-2.048 31.232q3.072 22.528 20.48 28.672 30.72 12.288 55.296 40.448t24.576 62.976q0 35.84-24.576 62.464t-55.296 38.912q-9.216 3.072-15.36 14.848t-6.144 24.064q0 13.312 4.096 29.696t10.752 31.744 15.36 28.16 18.944 18.944q8.192 5.12 15.872 4.096t16.896-4.096q30.72-12.288 64-7.68t58.88 29.184q12.288 12.288 17.92 30.208t7.168 35.328 0 31.744-2.56 20.48q-2.048 6.144-3.584 14.336t1.536 14.336q6.144 14.336 22.016 25.088t34.304 17.92 35.84 10.752 27.648 3.584q13.312 0 20.992-8.704t10.752-17.92q11.264-27.648 36.864-48.64t60.416-20.992q35.84 0 63.488 19.968t38.912 50.688q4.096 8.192 12.8 16.896t17.92 8.704q14.336 0 31.232-4.096t33.28-11.264 30.208-18.432 22.016-24.576q5.12-8.192 3.072-17.92t-4.096-13.824q-13.312-29.696-8.192-62.464t29.696-57.344 60.416-27.136 66.56 11.776q8.192 5.12 19.968 4.096t19.968-9.216q15.36-14.336 27.136-43.52t15.872-58.88q2.048-17.408-5.632-27.136t-15.872-12.8q-31.744-11.264-54.272-39.424t-22.528-64q0-34.816 18.944-60.928t49.664-37.376q7.168-4.096 12.288-8.192 11.264-9.216 15.36-23.552zM540.672 197.632q46.08 0 87.04 17.408t71.168 48.128 47.616 71.168 17.408 86.528-17.408 86.528-47.616 70.656-71.168 47.616-87.04 17.408-86.528-17.408-70.656-47.616-47.616-70.656-17.408-86.528 17.408-86.528 47.616-71.168 70.656-48.128 86.528-17.408z"  horiz-adv-x="1024" />

    
    <glyph glyph-name="bangzhu" unicode="&#58886;" d="M514.048 841.728q95.232 0 178.688-36.352t145.92-98.304 98.304-145.408 35.84-178.688-35.84-178.176-98.304-145.408-145.92-98.304-178.688-35.84-178.176 35.84-145.408 98.304-98.304 145.408-35.84 178.176 35.84 178.688 98.304 145.408 145.408 98.304 178.176 36.352zM515.072 69.632q26.624 0 44.544 17.92t17.92 43.52q0 26.624-17.92 44.544t-44.544 17.92-44.544-17.92-17.92-44.544q0-25.6 17.92-43.52t44.544-17.92zM567.296 321.536q-1.024 16.384 20.48 34.816t48.128 40.96 49.152 50.688 24.576 65.024q2.048 39.936-8.192 74.752t-33.792 59.904-60.928 39.936-87.552 14.848q-62.464 0-103.936-22.016t-67.072-53.248-35.84-64.512-9.216-55.808q1.024-26.624 16.896-38.912t34.304-12.8 33.792 10.24 15.36 31.232q0 12.288 7.68 30.208t20.992 34.304 32.256 27.648 42.496 11.264q46.08 0 73.728-23.04t25.6-57.856q0-17.408-10.24-32.256t-26.112-28.672-33.792-27.648-33.792-28.672-26.624-32.256-11.776-37.888l1.024-38.912q0-15.36 14.336-29.184t37.888-14.848q23.552 1.024 37.376 15.36t12.8 32.768l0 24.576z"  horiz-adv-x="1024" />

    
    <glyph glyph-name="pinglun" unicode="&#58883;" d="M500-12.9963c-26.665 0-55 2.3275-85 6.9963L211.0012-200V62.99750000000006c-65.3325 37.335-116.8363 85-154.5025 143.0025C18.8325 263.9987 0 326.665 0 393.9988 0 467.3337 22.3338 535.1662 67.0025 597.5c44.6625 62.3338 105.3313 111.665 181.9963 147.9975C325.6688 781.8312 409.3312 800 500 800c90.6687 0 174.3313-18.1688 251.0012-54.5025C827.6663 709.165 888.335 659.8337 932.9975 597.5 977.6663 535.1662 1000 467.1675 1000 393.5012c0-73.6675-22.3338-141.67-67.0025-203.9988-44.6625-62.335-105.3325-111.67-181.9975-148.0038C674.3313 5.1662 590.6688-12.9963 500-12.9963L500-12.9963zM237.0025 487.0025c-22.0025 0-40.67-9.005-56.0013-27.0025-15.3325-17.9975-23.0037-40-23.0037-66.0013 0-26.0013 7.6713-48.1638 23.0037-66.4988 15.3313-18.335 33.9988-27.5 56.0013-27.5 21.9963 0 40.6638 9.165 55.995 27.5 15.3375 18.335 23.0037 40.4975 23.0037 66.4988 0 26.0013-7.6663 48.0037-23.0037 66.0013C277.6663 477.9975 258.9988 487.0025 237.0025 487.0025L237.0025 487.0025zM500 487.0025c-22.0025 0-40.6687-9.005-56.0013-27.0025-15.3313-17.9975-22.9975-40-22.9975-66.0013 0-26.0013 7.6663-48.1638 22.9975-66.4988 15.3325-18.335 33.9988-27.5 56.0013-27.5 22.0025 0 40.6687 9.165 56.0013 27.5s22.9975 40.4975 22.9975 66.4988c0 26.0013-7.6663 48.0037-22.9975 66.0013S522.0025 487.0025 500 487.0025L500 487.0025zM762.9975 487.0025c-21.9975 0-40.6638-9.005-55.9963-27.0025-15.3375-17.9975-23.0025-40-23.0025-66.0013 0-26.0013 7.6663-48.1638 23.0025-66.4988 15.3325-18.335 33.9988-27.5 55.9963-27.5 22.0025 0 40.6687 9.165 56.0013 27.5s23.0025 40.4975 23.0025 66.4988c0 26.0013-7.6713 48.0037-23.0025 66.0013S785 487.0025 762.9975 487.0025L762.9975 487.0025zM762.9975 487.0025"  horiz-adv-x="1000" />

    
    <glyph glyph-name="shanchu" unicode="&#58884;" d="M344.4593 104.618c15.4235 0 27.902 12.4795 27.902 27.902L372.3613 439.441408c0 15.4225-12.4795 27.902-27.902 27.902-15.4225 0-27.902-12.4805-27.902-27.902l0-306.922496C316.5573 117.0964 329.0368 104.618 344.4593 104.618zM511.872 104.618c15.4235 0 27.902 12.4795 27.902 27.902L539.774 439.441408c0 15.4225-12.4795 27.902-27.902 27.902s-27.902-12.4805-27.902-27.902l0-306.922496C483.969 117.0964 496.4485 104.618 511.872 104.618zM679.2837 104.618c15.4235 0 27.902 12.4795 27.902 27.902L707.1857 439.441408c0 15.4225-12.4795 27.902-27.902 27.902s-27.902-12.4805-27.902-27.902l0-306.922496C651.3818 117.0964 663.8602 104.618 679.2837 104.618zM818.7935 746.3639 703.234048 746.3639c-12.4795 48.0113-55.8039 83.7059-107.6572 83.7059L428.16512 830.0698c-51.8533 0-95.1777-35.6946-107.6572-83.7059L204.949504 746.3639c-61.5526 0-111.6078-50.0828-111.6078-111.6078l0-27.902976 27.901952 0 0-27.901952 55.803904 0 0-530.138112c0-61.526 50.0552-111.6078 111.6078-111.6078l446.432256 0c61.5547 0 111.6078 50.0818 111.6078 111.6078L846.695416 578.952192l55.803904 0 0 27.901952 27.901952 0 0 27.902976C930.4013 696.2821 880.3482 746.3639 818.7935 746.3639zM428.1651 774.2659l167.411712 0c20.5445 0 38.3652-11.308 48.0389-27.902L380.127232 746.3639C389.801 762.9578 407.6206 774.2659 428.1651 774.2659zM790.8915 48.8141c0-30.7896-25.0399-55.8039-55.8039-55.8039L288.65536-6.9898c-30.763 0-59.6726 25.0143-59.6726 55.8039l3.8687 530.1381 558.040064 0L790.891524 48.81408zM149.1446 634.7561c0 30.7896 25.0419 55.8039 55.8039 55.8039L818.793472 690.56c30.7651 0 55.8039-25.0143 55.8039-55.8039L149.144576 634.7561z"  horiz-adv-x="1024" />

    
    <glyph glyph-name="jihuarenwu" unicode="&#58906;" d="M732 613.984q-10.016 0-17.504 7.008t-12.512 16.992-7.488 20.512-2.496 17.504l0 124 2.016 0q8 0 16.512-2.496t20-9.504 28-20.512 41.504-35.488q27.008-24 42.496-40.992t24-28.512 10.496-19.488 2.016-14.016l0-15.008-147.008 0zM848 239.008q46.016 0 86.016-16.992t70.016-47.008 47.008-70.016 16.992-86.016-16.992-86.016-47.008-70.016-70.016-47.008-86.016-16.992q-44.992 0-84.992 16.992t-70.016 47.008-47.488 70.016-17.504 86.016 17.504 86.016 47.488 70.016 70.016 47.008 84.992 16.992zM972.992-16q8.992 0 16 10.016t7.008 24-7.008 24-16 10.016l-95.008 0 0 88q0 8-8.512 14.016t-23.488 6.016-22.496-6.016-7.488-14.016l0-110.016q-2.016-8-2.016-12 0-14.016 7.008-24t16-10.016l136 0zM563.008 48.992q-0.992-7.008-0.992-14.016l0-15.008q0-44.992 12.992-84.992t36-75.008l-354.016 0q-19.008 0-41.504 11.008t-42.016 28.992-32.512 40.992-12.992 48l0 682.016q0 20.992 10.016 43.488t26.016 41.504 36.992 31.488 44 12.512l383.008 0 0-124.992q0-20 6.016-41.504t19.008-40.512 32.992-31.008 47.008-12l146.016 0 0-248.992q-8 2.016-16.992 2.016l-18.016 0q-75.008 0-136.992-35.008t-100-94.016l-291.008 0q-26.016 0-44.512-18.016t-18.496-44 18.496-44.512 44.512-18.496l247.008 0zM316 424.992q-26.016 0-44.512-18.496t-18.496-44.512 18.496-44 44.512-18.016l375.008 0q26.016 0 44 18.016t18.016 44-18.016 44.512-44 18.496l-375.008 0z"  horiz-adv-x="1024" />

    
    <glyph glyph-name="huiyuan" unicode="&#58918;" d="M508.204032 747.6928c16.67584 0 33.362944-1.993728 49.78176-5.846016 16.432128-3.864576 31.98976-9.091072 46.42816-15.556608 14.439424-6.59968 27.249664-14.07488 38.576128-22.412288 11.205632-8.337408 20.041728-16.674816 26.387456-25.012224 15.058944-19.166208 26.008576-40.071168 32.985088-63.102976 6.843392-22.897664 11.813888-44.798976 14.682112-65.703936 2.855936-23.894016 4.352-48.044032 4.352-72.436736 3.986432-2.99008 7.218176-6.842368 9.587712-11.570176 2.23744-4.22912 4.108288-9.577472 5.604352-16.18944 1.360896-6.587392 1.615872-14.560256 0.36352-24.137728-1.118208-12.445696-3.6096-22.53312-7.340032-29.996032-3.73248-7.340032-7.9616-13.19936-12.567552-17.42848-5.226496-4.71552-10.707968-7.960576-16.432128-9.82016-2.855936-10.088448-5.846016-19.664896-8.71424-28.634112-2.855936-7.7056-6.222848-15.301632-9.954304-22.775808-3.73248-7.462912-7.960576-13.188096-12.566528-17.417216-10.950656-8.956928-19.908608-16.55296-26.88512-22.776832-6.964224-6.355968-11.570176-16.929792-13.805568-31.732736-1.750016-8.969216-2.369536-18.049024-1.750016-27.260928 0.61952-9.33376 2.99008-18.535424 7.340032-27.748352 4.364288-9.211904 10.950656-18.048 19.919872-26.397696 8.957952-8.337408 21.525504-15.80032 37.701632-22.386688 14.4384-5.979136 30.251008-11.327488 47.301632-16.06656 17.051648-4.8384 33.594368-10.331136 49.782784-16.553984 16.177152-6.221824 30.482432-14.050304 42.927104-23.262208 12.445696-9.212928 21.281792-21.902336 26.386432-37.968896 2.99008-9.577472 5.10464-21.39136 6.59968-35.34336 1.373184-14.050304 2.11456-28.246016 2.11456-42.441728 0-14.30528-0.997376-27.747328-2.99008-40.313856-2.11456-12.445696-5.093376-22.035456-9.20064-28.621824-2.868224-4.108288-11.083776-8.338432-24.64768-12.445696-13.563904-4.230144-30.359552-8.215552-50.280448-12.081152-19.907584-3.987456-42.185728-7.341056-66.711552-10.331136-24.636416-2.99008-49.284096-5.469184-74.176512-7.583744-24.757248-2.113536-48.652288-3.74272-71.428096-4.982784-22.897664-1.118208-42.69568-1.737728-59.37152-1.737728-16.795648 0-36.339712 0.61952-58.496 1.737728-22.278144 1.240064-45.297664 2.869248-68.948992 4.982784-23.63904 2.11456-47.290368 4.472832-70.68672 7.098368-23.396352 2.721792-44.556288 5.59104-63.722496 8.580096-19.033088 2.99008-35.221504 5.98016-48.530432 8.836096-13.19936 2.99008-21.6576 5.967872-25.146368 8.957952-5.72416 4.861952-10.20928 19.422208-13.320192 43.813888-3.232768 24.51456-1.859584 56.127488 3.864576 94.836736 2.85696 22.023168 11.449344 38.95296 25.510912 50.52416 14.183424 11.70432 30.615552 20.917248 49.405952 27.747328 18.801664 6.854656 38.33344 12.955648 58.496 18.304 20.28544 5.348352 38.211584 13.19936 53.769216 23.274496 12.189696 7.717888 21.402624 15.179776 27.747328 22.4 6.355968 7.098368 10.962944 14.316544 13.81888 21.414912 2.99008 7.2192 4.350976 14.56128 4.350976 22.386688 0 7.730176-0.242688 16.311296-0.863232 25.887744-1.118208 13.698048-5.725184 24.64768-13.81888 32.620544-8.082432 8.083456-17.051648 16.28672-26.884096 24.636416-4.605952 4.22912-8.71424 9.954304-12.068864 17.417216-3.487744 7.474176-6.720512 15.070208-9.577472 22.775808-2.868224 8.97024-5.737472 18.545664-8.71424 28.634112-3.986432 1.23904-8.09472 3.354624-12.081152 6.34368-3.47648 2.99008-7.206912 7.098368-11.3152 12.445696-3.986432 5.348352-7.4752 13.19936-10.331136 23.262208-3.487744 10.088448-4.861952 19.422208-3.986432 27.759616s2.491392 15.435776 4.849664 21.414912c2.248704 6.587392 5.979136 12.81024 11.205632 18.7904-0.498688 22.654976 0.61952 45.297664 3.487744 67.940352 2.358272 19.178496 6.465536 39.718912 12.566528 61.741056 6.100992 22.023168 15.179776 41.688064 27.249664 58.994688 11.083776 16.674816 23.274496 30.23872 36.849664 40.690688 13.68576 10.452992 27.503616 18.668544 41.688064 24.64768 14.061568 5.967872 28.246016 9.942016 42.440704 12.068864C481.19808 746.695424 494.896128 747.6928 508.204032 747.6928"  horiz-adv-x="1024" />

    
    <glyph glyph-name="cuowu1" unicode="&#58936;" d="M865.80736 436.260608 696.788992 287.755008l226.573312-257.982464c39.212032-44.56448 44.401664-102.647808 14.308352-132.73088l-22.714368-22.734848c-30.040064-30.071808-88.15616-24.839168-132.74112 14.308352L512.331776 125.718272 242.404352-111.384832c-44.541952-39.146496-102.658048-44.38016-132.752384-14.308352l-22.713344 22.734848c-30.040064 30.083072-24.839168 88.167424 14.307328 132.73088l226.62656 257.982464L158.80192 436.260608C42.202112 538.702592 51.956736 606.41152 107.720704 662.185728l42.07104 42.07104c55.785472 55.785472 123.4944 65.550336 225.936384-51.069952l136.603648-155.464704 136.5504 155.464704C751.3344 769.807104 819.086336 760.04224 874.817536 704.256768l42.07104-42.07104C972.652544 606.41152 982.460416 538.702592 865.80736 436.260608z"  horiz-adv-x="1024" />

    
    <glyph glyph-name="neirongshezhi" unicode="&#58950;" d="M151.872 469.856l223.936-60.032C378.56 409.184 381.312 408.8 384.064 408.8c14.144 0 27.008 9.408 30.848 23.744C419.52 449.568 409.344 467.104 392.32 471.648L168.448 531.68C151.424 536.288 133.824 526.176 129.28 509.088 124.672 492 134.784 474.464 151.872 469.856zM151.872 149.984l223.936-60.032c2.752-0.768 5.568-1.152 8.32-1.152 14.144 0 27.008 9.408 30.848 23.744 4.608 17.024-5.568 34.624-22.592 39.104L168.448 211.808C151.424 216.352 133.824 206.24 129.28 189.152 124.672 172.128 134.784 154.592 151.872 149.984zM151.872 309.984l223.936-60.032c2.752-0.768 5.568-1.088 8.32-1.088 14.144 0 27.008 9.344 30.848 23.68 4.608 17.088-5.568 34.56-22.592 39.168L168.448 371.744C151.424 376.288 133.824 366.176 129.28 349.152 124.672 332.128 134.784 314.528 151.872 309.984zM609.088 272.544c3.84-14.336 16.832-23.68 30.848-23.68 2.816 0 5.568 0.32 8.32 1.088l223.936 60.032c17.088 4.48 27.2 22.144 22.592 39.104-4.544 17.088-22.08 27.2-39.104 22.656l-224-60.032C614.656 307.104 604.48 289.632 609.088 272.544zM663.168-63.712 544-95.648 544 605.856l415.872 111.424 0-424.96c3.648 0.064 7.104 0.512 10.816 0.512 18.624 0 36.16-1.728 53.12-4.224l0 470.4c0 9.92-4.544 19.328-12.544 25.344-7.872 6.08-18.176 8.192-27.712 5.504L512 663.52 40.448 789.92C30.976 792.544 20.608 790.496 12.736 784.352 4.8 778.336 0.192 768.928 0.192 759.008l0-767.68c0-14.464 9.664-27.2 23.68-30.912l479.808-128.576C506.432-168.928 509.248-169.248 512-169.248s5.568 0.32 8.256 1.088l154.944 41.472C669.376-106.144 665.344-85.088 663.168-63.712zM480-95.648 64.192 15.84 64.192 717.344 480 605.856 480-95.648zM639.936 408.8c2.816 0 5.568 0.384 8.32 1.088l223.936 60.032C889.28 474.464 899.392 492 894.72 509.088c-4.544 17.088-22.08 27.264-39.104 22.656l-224-60.032C614.656 467.104 604.48 449.568 609.088 432.48 612.864 418.208 625.856 408.8 639.936 408.8zM639.936 88.864M1023.808 124.064c0 3.136-1.152 6.4-3.584 8.768-2.368 2.432-5.632 3.712-8.768 3.712L992.64 136.544c-7.808 0-16.192 6.08-18.496 13.504l-9.792 23.872c-3.712 6.912-2.24 17.152 3.328 22.592l13.504 13.44c2.176 2.304 3.584 5.44 3.584 8.832 0 3.456-1.344 6.592-3.584 8.768l-22.848 22.656c-2.24 2.24-5.248 3.648-8.768 3.648-3.392 0-6.464-1.344-8.704-3.648l-13.504-13.376c-5.568-5.504-15.744-7.104-22.592-3.264l-23.872 9.728c-7.424 2.304-13.632 10.56-13.632 18.496L867.264 280.608c0 3.264-1.216 6.4-3.648 8.768-2.368 2.432-5.568 3.648-8.704 3.648l-32.192 0c-3.2 0-6.4-1.216-8.768-3.648-2.368-2.368-3.712-5.504-3.712-8.768l0-18.88c0-7.936-6.08-16.192-13.632-18.496l-23.68-9.728C766.08 229.6 755.84 231.264 750.4 236.768l-13.568 13.376c-2.176 2.24-5.248 3.648-8.704 3.648-3.392 0-6.528-1.344-8.832-3.648l-22.72-22.656c-2.176-2.176-3.648-5.312-3.648-8.768 0-3.392 1.408-6.528 3.648-8.832l13.504-13.44c5.504-5.44 6.976-15.616 3.328-22.592l-9.792-23.872c-2.368-7.424-10.624-13.632-18.432-13.632l-19.008 0.128c-3.136 0-6.272-1.28-8.704-3.712-2.432-2.368-3.712-5.632-3.712-8.768l0-32.192c0-3.2 1.28-6.336 3.712-8.768 2.432-2.496 5.568-3.712 8.704-3.712l19.008 0c7.808 0 16.064-6.016 18.368-13.568l9.856-23.744c3.712-6.976 2.176-17.216-3.328-22.656l-13.504-13.376c-2.176-2.304-3.648-5.44-3.648-8.832 0-3.456 1.408-6.528 3.648-8.832l22.72-22.656c2.304-2.176 5.44-3.584 8.832-3.584 3.456 0 6.592 1.344 8.704 3.584l13.504 13.504c5.504 5.44 15.68 6.976 22.592 3.264l23.808-9.792c7.552-2.304 13.632-10.624 13.632-18.432l0-18.88c0-3.328 1.344-6.464 3.712-8.896 2.368-2.368 5.568-3.584 8.768-3.584l32.192 0c3.136 0 6.336 1.216 8.704 3.584 2.432 2.432 3.648 5.568 3.648 8.896l0 18.88c0 7.808 6.208 16.128 13.632 18.432l23.872 9.792c6.912 3.776 17.024 2.176 22.592-3.264l13.44-13.504c2.304-2.176 5.312-3.712 8.768-3.712 3.392 0 6.528 1.344 8.768 3.712l22.848 22.656c2.176 2.304 3.584 5.376 3.584 8.832 0 3.392-1.344 6.528-3.584 8.832l-13.504 13.376c-5.568 5.504-6.976 15.68-3.328 22.656l9.792 23.744c2.304 7.552 10.688 13.568 18.496 13.568l18.88 0c3.136 0 6.4 1.216 8.768 3.712 2.432 2.432 3.584 5.568 3.584 8.768L1024 124.064 1023.808 124.064zM910.016 108c0-39.36-31.808-71.104-71.104-71.104S767.744 68.64 767.744 108c0 39.296 31.808 71.168 71.104 71.168S910.016 147.296 910.016 108"  horiz-adv-x="1024" />

    
    <glyph glyph-name="qq2" unicode="&#59031;" d="M209.107968 427.465728L207.479808 432.485376 206.17728 439.066624 205.263872 442.668032 205.263872 447.179776 205.263872 452.589568 205.263872 457.47712 206.828544 463.27808 208.456704 469.46816 210.541568 475.906048 213.378048 483.106816 217.125888 490.585088 222.403584 498.080768 222.403584 503.34208 222.9248 508.24704 223.707136 514.944 225.989632 522.405888 228.074496 530.521088 229.735424 534.268928 231.657472 537.73824 234.134528 541.599744 236.807168 544.452608 236.807168 549.7139199999999 236.807168 555.662336 236.807168 562.993152 238.37184 572.540928 239.935488 583.619584 242.737152 596.882432 246.58432 610.66752 249.450496 618.274816 252.286976 626.51904 255.38048 634.2410239999999 259.095552 642.487296 262.87616 651.51488 267.242496 660.0028159999999 272.131072 669.027328 278.322176 678.05696 281.157632 683.203584 284.219392 687.45728 290.835456 696.988672 297.613312 706.520064 305.369088 716.311552 313.64608 725.859328 322.639872 735.243264 332.024832 744.923136 343.364608 755.351552 350.599168 761.67168 359.364608 768.498688 368.260096 774.544384 377.9072 780.343296 387.160064 785.492992 397.589504 789.746688 408.667136 795.040768 419.683328 798.641152 430.695424 802.371584 442.55744 806.10304 454.418432 808.938496 466.932736 811.270144 479.57504 813.321216 492.024832 814.999552 504.537088 816.694272 517.830656 817.44384 530.476032 817.44384 543.57504 817.44384 557.129728 817.44384 570.231808 815.781888 583.396352 814.21824 596.822016 812.798976 609.26976 809.83552 622.434304 807.016448 634.784768 803.806208 648.307712 800.190464 660.690944 795.80672 672.553984 790.78912 685.196288 785.492992 696.76544 779.692032 707.975168 773.2736 718.954496 766.170112 728.469504 759.602176 732.83584 755.872768 737.465344 753.16736 746.263552 745.690112 753.691648 738.469888 761.059328 730.9926399999999 768.290816 722.74944 774.221824 714.764288 781.2608 706.520064 786.213888 697.64096 791.201792 689.770496 796.51328 680.613888 800.877568 672.630784 808.306688 655.751168 811.958272 647.0000640000001 814.79168 638.8869119999999 817.62816 630.121472 820.169728 621.877248 821.993472 614.788096 824.27392 606.414848 828.315648 591.471616 830.88896 578.454528 832.55296 565.828608 833.985536 555.662336 836.267008 540.1989120000001 836.789248 537.73824 838.612992 534.90176 843.500544 526.918656 846.62784 521.527296 849.432576 515.8399999999999 853.015552 509.796352 856.144896 502.560768 858.165248 495.097856 860.382208 486.985728 862.075904 478.62784 862.859264 474.503168 863.509504 469.46816 863.509504 465.087488 862.859264 460.703744 862.859264 455.279616 861.55264 450.015232 859.20768 439.832576 856.536064 434.685952 854.5792 428.883968 854.5792 427.465728 855.492608 425.657344 858.165248 421.404672 869.76512 404.26496 878.954496 391.392256 883.321856 382.75686399999995 889.25184 373.356544 894.401536 363.042816 900.330496 351.97952 906.262528 339.597312 912.944128 325.55212800000004 916.68992 316.932096 920.143872 308.557824 923.14112 299.662336 926.075904 291.67820800000004 928.29184 283.303936 930.571264 275.43449599999997 933.440512 260.10214399999995 935.72096 244.39500799999996 937.284608 230.48191999999995 937.284608 222.88896 937.284608 216.69683199999997 937.284608 210.89689599999997 936.2432 203.923456 934.740992 191.94675199999995 932.658176 181.128192 929.46432 171.35308799999996 928.29184 167.36051199999997 926.075904 162.58662400000003 924.1856 159.23097600000006 921.70752 155.109376 919.493632 152.51865599999996 916.68992 149.17836799999998 914.214912 146.47295999999994 911.541248 144.15872000000002 908.34944 142.74355200000002 905.481216 141.32531200000005 903.135232 140.55935999999997 901.081088 140.55935999999997 899.549184 140.55935999999997 897.236992 141.32531200000005 892.836864 143.509504 890.816512 144.924672 888.7296 146.47295999999994 886.417408 148.54348800000002 884.103168 150.85568 880.260096 155.109376 875.695104 161.15302399999996 872.113152 167.36051199999997 868.52608 172.362752 865.041408 178.162688 860.120064 188.47744 854.5792 199.18336 853.92896 199.55814399999997 853.015552 199.55814399999997 850.737152 197.87980800000003 849.432576 195.059712 847.282176 191.572992 843.500544 181.128192 837.83168 166.32012799999995 830.532608 148.54348800000002 825.058304 139.646976 819.289088 130.37568 812.478464 119.94828800000005 805.245952 109.750272 801.529856 105.120768 797.033472 100.10316799999998 786.704384 89.919488 787.61472 89.02348800000004 789.015552 87.58988799999997 794.167296 84.51071999999999 815.67232 74.21235200000001 825.058304 68.93465600000002 833.985536 63.785983999999985 842.84928 57.33171200000004 850.737152 50.62041599999998 854.5792 47.65491199999997 857.449472 44.169216000000006 860.382208 40.19302400000004 862.859264 35.79391999999996 864.161792 32.17817600000001 865.789952 27.809792000000016 866.44224 24.095743999999968 867.222528 19.696640000000002 866.44224 16.730111999999963 866.44224 13.797375999999986 865.789952 10.66803200000004 864.161792 7.868416000000025 863.509504 5.650432000000023 862.075904 2.9788160000000516 858.165248-2.331647999999973 854.5792-6.60172799999998 851.77856-9.793536000000017 849.432576-12.139519999999948 843.500544-16.507904000000053 836.789248-20.25574400000005 829.620224-23.87251200000003 821.993472-27.326463999999987 813.390848-30.650367999999958 808.82688-32.08499200000006 804.723712-33.25644799999998 794.816512-35.57068800000002 784.520192-37.75385600000004 774.221824-39.969791999999984 763.01312-41.76281600000004 751.413248-42.25126399999999 739.550208-43.682816 727.820288-43.682816 715.437056-43.682816 702.728192-43.682816 689.431552-42.901504000000045 677.049344-41.76281600000004 663.752704-39.969791999999984 650.523648-38.53619200000003 636.577792-36.58137599999998 623.085568-33.25644799999998 609.922048-30.650367999999958 596.822016-26.935295999999994 583.396352-22.177791999999954 570.231808-18.168831999999952 563.321856-15.854592000000025 557.129728-13.640704000000028 553.222144-12.139519999999948 549.376-11.357183999999961 544.357376-11.357183999999961 538.426368-11.357183999999961 525.784064-10.447871999999961 519.363584-9.793536000000017 511.117312-8.884224000000017 505.84064-13.640704000000028 498.605056-18.168831999999952 488.828928-22.96115199999997 478.012416-28.89113599999996 471.430144-32.08499200000006 464.585728-34.658304000000044 449.40288-40.851455999999985 441.15456-42.901504000000045 432.520192-45.248512000000005 420.528128-47.52998400000001 413.03552-48.18227200000001 405.08416-48.83353599999998 396.80512-49.74489600000004 387.160064-50.13708799999995 377.9072-50.13708799999995 368.260096-50.13708799999995 347.763712-50.13708799999995 325.507072-49.74489600000004 303.935488-47.52998400000001 292.98688-46.02880000000005 282.42944-44.46720000000005 272.131072-42.901504000000045 261.833728-40.851455999999985 252.286976-37.75385600000004 242.737152-35.57068800000002 234.134528-32.08499200000006 225.989632-28.89113599999996 218.42944-25.240576000000033 211.84512-21.26540799999998 205.263872-16.507904000000053 203.04896-14.16192000000001 200.114176-11.357183999999961 197.899264-8.884224000000017 195.878912-6.080511999999999 194.054144-3.2133119999999735 192.620544-0.40857600000003913 190.5664 5.650432000000023 189.817856 8.74700800000005 188.905472 12.232704000000012 188.905472 15.426559999999995 189.817856 19.045376000000033 189.817856 22.661119999999983 190.5664 26.27788799999996 190.5664 28.462080000000014 190.5664 33.47968000000003 190.925824 37.355519999999956 192.620544 41.75667199999998 194.054144 46.12300800000003 196.661248 51.402751999999964 198.549504 53.45689600000003 200.114176 55.76806399999998 204.22144 60.787712000000056 207.479808 63.39379199999996 210.541568 65.18681600000002 213.378048 67.499008 217.908224 68.93465600000002 221.4912 71.08403199999998 225.989632 73.43104000000005 231.136256 74.962944 236.285952 76.52659200000005 242.21696 77.79840000000002 247.886848 78.57971199999997 254.598144 79.47571200000004 261.833728 79.995904 263.757824 80.64921600000002 264.14592 80.64921600000002 265.060352 81.43052799999998 265.060352 82.31116799999995 263.757824 84.119552 259.878912 85.92895999999996 250.233856 94.30220799999995 243.77856 99.45087999999998 236.285952 106.01676799999996 228.726784 113.34758399999998 220.838912 122.765312 211.84512 133.325824 208.456704 139.011072 203.96032 144.924672 200.114176 151.769088 196.661248 159.23097600000006 191.968256 166.32012799999995 188.905472 174.43225600000005 185.289728 182.547456 181.67296 191.572992 178.998272 200.19097599999998 176.521216 210.89689599999997 175.739904 211.28806399999996 174.990336 211.28806399999996 174.600192 212.05299200000002 173.686784 212.05299200000002 172.155904 211.28806399999996 171.373568 210.89689599999997 170.331136 209.087488 169.939968 206.905344 169.157632 204.96486400000003 167.788544 201.75564799999995 163.356672 193.886208 161.076224 189.11334399999998 157.46048 184.99072 153.581568 179.989504 149.34528 174.43225600000005 144.847872 169.52729599999998 139.569152 164.77081599999997 134.647808 160.27443200000005 129.272832 156.76927999999998 123.3408 153.03987199999995 117.671936 150.85568 110.957568 149.17836799999998 104.37632 148.54348800000002 103.724032 148.54348800000002 102.812672 148.54348800000002 101.312512 149.17836799999998 100.139008 151.769088 98.184192 153.03987199999995 95.642624 159.23097600000006 94.078976 162.58662400000003 92.38528 167.36051199999997 90.983424 172.362752 90.233856 177.268736 88.147968 188.47744 87.365632 195.059712 87.365632 201.75564799999995 87.365632 216.69683199999997 88.147968 232.79513599999996 89.45152 241.03936 90.983424 249.54368 92.38528 258.683904 94.861312 267.188224 97.662976 276.998144 100.530176 286.51520000000005 104.37632 296.322048 107.992064 305.723392 112.979968 315.25376000000006 117.671936 325.55212800000004 123.3408 335.212544 130.021376 345.65734399999997 136.832 355.05868799999996 143.936512 365.48710400000004 149.866496 372.70528 157.46048 381.077504 165.44256 389.4528 169.157632 393.445376 173.686784 397.959168 180.238336 403.644416 186.948608 409.430016 197.899264 419.221504 206.17728 425.266176Z"  horiz-adv-x="1024" />

    
    <glyph glyph-name="xiazai" unicode="&#58893;" d="M894.683 384.004h-159.451l-223.234-223.222-223.231 223.222h-159.452l-127.562-255.112v-63.779h1020.494v63.779zM1.752 1.337h1020.494v-63.781h-1020.494v63.781zM799.013 575.331h-223.234v255.113h-127.561v-255.113h-223.232l287.012-286.993z"  horiz-adv-x="1024" />

    
    <glyph glyph-name="iconfontyulan" unicode="&#58954;" d="M69.223361 559.278161l828.622376 0 0-433.972902 69.224384-61.035098L967.07012 682.054439c0 34.805714-28.216778 63.021336-63.023918 63.021336L63.023918 745.075775c-34.808163 0-63.024941-28.216645-63.024941-63.021336L-0.001023-82.055462c0-34.805714 28.216778-63.021336 63.024941-63.021336l653.604262 0-55.260799 74.964342L69.223361-70.112456 69.223361 559.278161zM1001.680777-104.751371 831.187909 40.342192c-17.627171 15.860223-36.517155 23.108301-51.725131 22.406313 40.258515 47.193859 64.557917 108.357893 64.557917 175.187975 0 149.08548-120.845134 269.964548-269.977656 269.964548-149.139686 0-269.974586-120.879068-269.974586-269.964548 0-149.084457 120.8349-269.963525 269.974586-269.963525 66.8758 0 128.000384 24.296359 175.187989 64.545038-0.746021-15.20019 6.595479-34.047444 22.455328-51.673893l145.007406-170.527838c24.874523-27.594475 65.384782-29.919427 90.167203-5.180999C1031.6045-170.133474 1029.276383-129.532777 1001.680777-104.751371zM574.043039 57.960455c-99.398827 0-179.983399 80.588433-179.983399 179.976024 0 99.395778 80.584572 179.976024 179.983399 179.976024 99.391664 0 179.984422-80.58127 179.984422-179.976024C754.027461 138.547865 673.434702 57.960455 574.043039 57.960455z"  horiz-adv-x="1024" />

    
    <glyph glyph-name="tubiaozitihua09" unicode="&#59201;" d="M934.848 539.168 935.36 539.552 88.768 539.552 89.28 539.168ZM512.256 169.248 484.224 189.792 391.232 258.4 122.624 60.448 901.632 60.448 633.152 258.4 540.032 189.792ZM88.64 481.184 88.64 93.856 351.616 287.584ZM935.36 93.984 935.36 481.12 672.768 287.584ZM512.256 227.68 934.848 539.168 89.28 539.168Z"  horiz-adv-x="1024" />

    
    <glyph glyph-name="zhengque" unicode="&#58933;" d="M150.760004 662.728329C228.458002 740.427531 328.650788 790.823759 439.344997 806.7234c135.313125 19.420586 270.151813-15.048305 379.578048-97.015026 109.451522-81.992008 180.432752-201.688468 199.8714-337.025675 40.132024-279.470756-154.62052-539.387265-433.951594-579.54578-117.131613-16.806369-237.237484 7.736686-338.210562 69.040135-17.268764 10.500218-22.751274 32.998619-12.278752 50.2433 10.572467 17.138715 32.963699 22.777765 50.237279 12.28116 86.490725-52.569724 189.428982-73.591834 289.8626-59.160056 239.379673 34.33523 406.30664 257.173447 371.944919 496.746989-16.652237 115.994892-77.494495 218.574311-171.32574 288.828232-93.808366 70.281617-209.364945 99.785783-325.332142 83.109463C210.100683 699.883686 43.245965 477.018977 77.661873 237.497214c9.020313-62.702675 30.79261-121.299187 64.797902-174.121784 10.907221-17.0183 5.944905-39.719-10.939734-50.549155-16.985788-10.937325-39.637117-6.023175-50.546747 10.938529C41.279582 85.534261 15.834617 153.898865 5.263354 227.104166c-19.422994 135.315533 15.020609 270.190346 97.066805 379.641868C117.250824 626.733776 133.435849 645.40297 150.760004 662.728329L150.760004 662.728329zM150.760004 662.728329M805.378727 528.529047c-13.410656 12.578586-37.718901 15.201232-53.796757 0.189052L432.841365 192.053669 271.640146 347.549609C259.495055 359.511669 235.110949 362.248709 220.36007 346.293677c-13.747819-14.868886-13.777923-39.138598-1.632832-51.068145l193.337664-183.652658c0.093924-0.089107 0.216748-0.125232 0.310672-0.214339 0.089107-0.091516 0.121619-0.216748 0.216748-0.310672 1.937483-1.848375 4.284378-2.894785 6.532532-4.127838 1.110229-0.649039 2.065123-1.603932 3.236764-2.065123 3.635339-1.420901 7.492242-2.159047 11.311817-2.159047 4.041139 0 8.076257 0.799558 11.839236 2.40349 1.265565 0.525011 2.249359 1.603932 3.419796 2.279462 2.314383 1.359489 4.717873 2.499822 6.689072 4.503534 0.093924 0.093924 0.126436 0.244443 0.216748 0.338367 0.060208 0.091516 0.187848 0.122824 0.276955 0.216748l352.394285 362.035941C824.544033 495.00662 817.773078 516.845146 805.378727 528.529047L805.378727 528.529047zM805.378727 528.529047"  horiz-adv-x="1024" />

    
    <glyph glyph-name="tianjia" unicode="&#58919;" d="M576.147 28.717c0-35.405-28.704-64.106-64.072-64.106v0c-35.442 0-64.145 28.702-64.145 64.106v711.525c0 35.404 28.703 64.107 64.145 64.107v0c35.369 0 64.072-28.702 64.072-64.107v-711.525zM867.815 448.586c35.441 0 64.143-28.702 64.143-64.107v0c0-35.404-28.702-64.106-64.143-64.106h-711.554c-35.371 0-64.075 28.703-64.075 64.106v0c0 35.405 28.704 64.107 64.075 64.107h711.554z"  horiz-adv-x="1024" />

    
    <glyph glyph-name="xiugai" unicode="&#58928;" d="M960.24 616.907c-7.045-25.162-13.3-48.539-30.685-62.625-152.125-123.258-274.058-276.3-412.026-413.431-3.627-3.608-7.963-6.79-10.664-11.005C448.23 38.396 345.66 26.733 255.894-7.69c-19.272-7.387-49.419 26.959-43.637 47.365 16.292 57.476 32.242 115.064 49.761 172.168 2.966 9.666 12.217 18.029 19.995 25.503 131.218 126.012 263.141 251.292 393.701 377.98 31.14 30.215 58.129 64.747 86.613 97.659 38.456 44.434 92.217 48.013 134.119 6.808 25.227-24.803 55.885-46.376 61.678-85.48 0.753-5.067 1.563-10.123 2.346-15.182C962.381 617.984 958.326 618.054 960.24 616.907zM721.565 574.876C594.361 447.425 467.393 320.214 343.14 195.721c21.402-21.686 45.09-45.688 65.777-66.644 127.033 124.28 255.2 249.665 382.735 374.434C765.676 529.963 742.021 554.046 721.565 574.876zM751.953 628.738c31.601-30.267 59.139-56.644 91.666-87.801 5.813 7.922 11.445 17.709 19.042 25.595 54.863 56.933 54.983 56.809-2.798 111.522-1.236 1.175-2.364 2.475-3.632 3.613-15.979 14.337-32.187 14.5-47.97 0.005C790.05 664.955 772.219 647.829 751.953 628.738zM281.031 61.064c29.28 11.791 52.376 21.089 72.131 29.043-15.174 17.848-29.055 34.176-45.392 53.396C298.67 115.461 290.938 91.613 281.031 61.064zM464.602-147.783c-84.649 0-169.299-0.129-253.948 0.055-46.354 0.102-87.305 12.635-118.404 50.028-20.506 24.654-26.319 53.31-26.365 83.719-0.255 168.444-0.916 336.896 0.196 505.335 0.591 90.427 56.421 144.32 146.989 144.846 91.49 0.531 182.985 0.018 274.474 0.201 20.044 0.037 39.148-1.542 41.708-26.855 1.875-18.522-13.274-27.868-42.991-27.891-88.919-0.075-177.848 0.133-266.776-0.085-63.603-0.158-99.734-36.669-99.753-100.365-0.06-162.45-0.075-324.903-0.035-487.354 0.01-50.26 33.871-86.142 84.609-86.331 173.573-0.657 347.151-0.527 520.724-0.116 41.066 0.096 67.666 29.396 67.848 73.861 0.454 111.143 0.216 222.289 0.386 333.438 0.015 8.486-1.965 19.188 2.284 24.958 7.151 9.717 19.358 23.275 27.953 22.286 8.985-1.033 16.895-16.867 23.842-27.193 2.397-3.558 0.548-10.007 0.548-15.137 0.01-110.302 0.154-220.605-0.041-330.907-0.16-92.874-43.949-136.383-136.985-136.483C628.777-147.857 546.689-147.792 464.602-147.783z"  horiz-adv-x="1024" />

    
    <glyph glyph-name="unie678" unicode="&#58991;" d="M20.195 737.139v0 0zM380.411 666.042q24.99 0 42.756-17.305t17.766-42.265v-240.155q0-24.99-17.766-42.756t-42.756-17.766h-240.155q-24.99 0-42.265 17.766t-17.305 42.756v240.155q0 24.99 17.305 42.265t42.265 17.305h240.155zM380.411 185.764q24.99 0 42.756-17.305t17.766-42.265v-241.108q0-24.99-17.766-42.265t-42.756-17.305h-240.155q-24.99 0-42.265 17.305t-17.305 42.265v241.108q0 24.99 17.305 42.265t42.265 17.305h240.155zM861.643 185.764q24.99 0 42.265-17.305t17.305-42.265v-241.108q0-24.99-17.305-42.265t-42.265-17.305h-240.155q-24.99 0-42.756 17.305t-17.766 42.265v241.108q0 24.99 17.766 42.265t42.756 17.305h240.155zM995.168 560.396q19.211-19.211 19.211-45.154t-19.211-44.201l-178.679-178.679q-19.211-19.211-44.662-19.211t-44.662 19.211l-178.679 178.679q-18.258 18.258-18.258 44.201t18.258 45.154l178.679 178.679q19.211 18.258 44.662 18.258t44.662-18.258z"  horiz-adv-x="1024" />

    
    <glyph glyph-name="lliconrecommend" unicode="&#58948;" d="M423.219 486.81h18.368l16.366 18.426c10.239 11.489 27.746 12.519 39.178 2.33 6.205-5.473 9.049-13.086 9.049-20.756h83.535v55.49h-166.495v-55.49zM840.292 772.936h-657.356c-32.973 0-59.743-26.77-59.743-59.772v-657.324c0-33 26.77-59.773 59.743-59.773h657.356c33 0 59.773 26.771 59.773 59.773v657.324c0 33.002-26.771 59.773-59.773 59.773zM783.936 209.356h-138.728v-110.982c0-15.337-12.409-27.745-27.746-27.745h-111.005c-15.341 0-27.746 12.41-27.746 27.745 0 15.363 12.41 27.747 27.746 27.747h83.258v83.236h-138.753c-15.34 0-27.745 12.411-27.745 27.746 0 15.361 12.408 27.746 27.745 27.746h138.752v27.745c0 8.724 4.091 16.962 11.083 22.216l44.407 33.274h-166.497c-15.34 0-27.746 12.41-27.746 27.745 0 15.361 12.409 27.746 27.746 27.746h249.734c11.948 0 22.517-7.611 26.284-18.966 3.796-11.325-0.109-23.786-9.675-30.942l-99.898-74.945v-13.872h138.727c15.362 0 27.747-12.382 27.747-27.746 0-15.338-12.354-27.746-27.69-27.746zM783.936 486.81c15.34 0 27.745-12.382 27.745-27.746 0-15.337-12.409-27.746-27.745-27.746h-317.393l-71.068-79.932v-254.962c0-14.253-12.382-25.797-27.746-25.797-15.34 0-27.746 11.543-27.746 25.797v192.536l-62.484-70.286c-5.473-6.178-13.113-9.32-20.752-9.32-6.53 0-13.141 2.33-18.427 7.044-11.434 10.135-12.465 27.691-2.328 39.129l156.282 175.791h-135.529c-15.34 0-27.746 12.41-27.746 27.746 0 15.361 12.409 27.746 27.746 27.746h110.982v55.49h-110.982c-15.34 0-27.746 12.41-27.746 27.746 0 15.362 12.409 27.746 27.746 27.746h110.982v55.49c0 15.361 12.409 27.746 27.746 27.746 15.361 0 27.747-12.382 27.747-27.746v-55.49h166.495v55.49c0 15.361 12.411 27.746 27.745 27.746 15.34 0 27.746-12.382 27.746-27.746v-55.49h138.729c15.34 0 27.745-12.381 27.745-27.746 0-15.337-12.409-27.746-27.745-27.746h-138.728v-55.49h138.728z"  horiz-adv-x="1024" />

    
    <glyph glyph-name="jiemianzhuti" unicode="&#58952;" d="M764.019314 759.748261 259.980686 759.748261c-112.841967 0-204.313937-91.47197-204.313937-204.313937l0-510.826745c0-112.841967 91.47197-204.313937 204.313937-204.313937l504.038628 0c112.841967 0 204.313937 91.47197 204.313937 204.313937L968.333251 555.434324C968.333251 668.276291 876.861282 759.748261 764.019314 759.748261zM828.003601 399.810459l-49.989033-50.030935c-6.913823-6.913823-18.143547-6.913823-25.015468 0l-62.55962 62.517718 0-344.308372-10.182175-8.925117c-24.470742-10.391685-90.592029-17.850233-168.278255-17.850233s-143.765611 7.458548-168.278255 17.850233l-10.182175 8.925117L333.518619 412.297242l-62.55962-62.517718c-6.913823-6.913823-18.101645-6.913823-25.015468 0L195.996399 399.810459c-6.913823 6.913823-6.913823 18.101645 0 25.015468l133.918651 133.918651 3.64547 0 91.011048 0c8.296587-40.728701 44.290367-71.400933 87.449382-71.400933s79.194697 30.672232 87.449382 71.400933l91.011048 0 3.64547 0 133.918651-133.918651C834.959326 417.912104 834.959326 406.724282 828.003601 399.810459z"  horiz-adv-x="1024" />

    
    <glyph glyph-name="jiesuo" unicode="&#58966;" d="M758.592 386.656 364.48 386.656 364.48 529.76c0 81.344 66.176 147.52 147.52 147.52s147.52-66.176 147.52-147.52l0-66.624L736 463.136 736 529.76c0 123.712-100.288 224-224 224s-224-100.288-224-224l0-143.04L265.408 386.72c-40.96 0-74.176-33.216-74.176-74.176l0-392.064c0-40.96 33.216-74.176 74.176-74.176l493.184 0c40.96 0 74.176 33.216 74.176 74.176L832.768 312.48C832.768 353.44 799.552 386.656 758.592 386.656zM563.52 84l0-156.8-103.04 0 0 156.8c-38.72 19.072-65.344 58.88-65.344 104.896C395.136 253.408 447.488 305.76 512 305.76s116.864-52.288 116.864-116.864C628.864 142.816 602.24 103.008 563.52 84z"  horiz-adv-x="1024" />

    
    <glyph glyph-name="tianjia3" unicode="&#58939;" d="M773.813 193.299c-88.356 0-159.966-71.61-159.966-159.967 0-88.356 71.61-159.965 159.966-159.965 88.357 0 159.966 71.61 159.966 159.965 0.001 88.357-71.609 159.967-159.966 159.967zM837.801 1.339h-31.994v-31.995c0-17.62-14.309-31.993-31.994-31.993s-31.994 14.372-31.994 31.993v31.995h-31.994c-17.684 0-31.994 14.372-31.994 31.993 0 17.684 14.309 31.995 31.994 31.995h31.994v31.993c0 17.684 14.309 31.995 31.994 31.995s31.994-14.31 31.994-31.995v-31.993h31.994c17.684 0 31.994-14.31 31.994-31.995-0.001-17.62-14.31-31.993-31.994-31.993zM552.146 1.339h-386.203v63.986h386.202c3.229 22.594 9.824 44.097 19.267 63.986l-405.469 0v63.987h451.131c40.388 39.578 95.7 63.986 156.74 63.986 10.863 0 21.543-0.79 31.994-2.285l0 386.235h-127.974v-127.973h-63.986v191.959h-511.891v-831.856h515.141c-34.296 33.605-57.823 78.144-64.951 127.974zM165.943 513.262h319.933v-63.986l-319.933-0v63.986zM165.943 321.272h511.891v-63.986l-511.891-0v63.986z"  horiz-adv-x="1024" />

    
    <glyph glyph-name="zhuyi" unicode="&#59074;" d="M512-131.706279c-58.700937 0-115.659183 11.501962-169.292708 34.187637-51.791573 21.905916-98.298793 53.261041-138.231271 93.193519-39.932478 39.931454-71.287603 86.440721-93.193519 138.231271-22.684652 53.633524-34.187637 110.591771-34.187637 169.292708 0 58.699913 11.501962 115.65816 34.187637 169.292708 21.905916 51.791573 53.261041 98.299817 93.193519 138.231271 39.932478 39.932478 86.440721 71.287603 138.231271 93.193519C396.340817 726.602028 453.299063 738.103989 512 738.103989c58.699913 0 115.65816-11.501962 169.292708-34.187637 51.791573-21.905916 98.299817-53.260018 138.232295-93.193519 39.932478-39.932478 71.287603-86.440721 93.192495-138.231271 22.685675-53.633524 34.187637-110.591771 34.187637-169.292708 0-58.700937-11.501962-115.659183-34.187637-169.292708-21.904892-51.79055-53.260018-98.299817-93.192495-138.231271-39.932478-39.932478-86.440721-71.287603-138.232295-93.193519C627.65816-120.204317 570.699913-131.706279 512-131.706279zM512 686.93868c-102.500489 0-198.866257-39.916105-271.344988-112.394836S128.260176 405.699344 128.260176 303.198855c0-102.500489 39.916105-198.866257 112.394836-271.344988S409.499511-80.540969 512-80.540969s198.866257 39.916105 271.344988 112.394836S895.739824 200.698367 895.739824 303.198855c0 102.500489-39.916105 198.866257-112.394836 271.344988S614.500489 686.93868 512 686.93868zM512 28.147452c-14.128789 0-25.582655 11.453866-25.582655 25.582655l0 327.457983c0 14.128789 11.453866 25.582655 25.582655 25.582655s25.582655-11.453866 25.582655-25.582655l0-327.457983C537.582655 39.601318 526.127765 28.147452 512 28.147452zM512 519.334427c-14.128789 0-25.582655 11.453866-25.582655 25.582655l0 2.046612c0 14.128789 11.453866 25.582655 25.582655 25.582655s25.582655-11.453866 25.582655-25.582655l0-2.046612C537.582655 530.788294 526.127765 519.334427 512 519.334427z"  horiz-adv-x="1024" />

    
    <glyph glyph-name="msnui-cloud-upload" unicode="&#58934;" d="M961.081 168.031q0-22.404-7.617-42.119t-21.508-35.398-32.261-26.436-39.879-14.339l0.896-0.896h-613.856q-4.481-0.896-14.339-0.896-34.95 0-65.419 13.443t-53.32 36.294-35.845 53.32-12.994 65.419 12.994 65.419 35.845 53.32 53.32 36.294 65.419 13.443h0.896q-0.896 7.169-0.896 13.443v14.338q0 63.627 24.196 120.082t66.314 98.127 98.127 65.866 119.635 24.196 120.082-24.196 98.576-65.866 66.314-98.127 24.196-120.082q0-33.158-7.169-64.97t-19.715-60.489q4.481 0.896 9.41 1.344t9.41 0.449q24.196 0 46.151-9.41t38.086-25.989 25.54-38.534 9.41-47.048zM647.431 274.672q17.923 0 23.3 4.033t-7.169 19.267q-12.546 16.13-27.781 42.119t-31.813 52.873-33.605 50.184-33.158 34.053q-16.13 11.65-23.748 12.546t-21.955-10.754q-16.13-13.443-31.365-34.053t-30.917-43.911-31.365-45.704-31.813-39.43q-16.13-16.13-11.65-28.676t22.404-12.546h14.338q8.066 0 17.474-0.449t18.371-0.449h15.235q12.546-0.896 16.13-8.513t3.585-21.059q0-15.235-0.449-26.884t-0.449-22.404-0.449-22.404-0.449-26.884q0-6.274 1.344-13.443t4.929-13.443 10.754-10.305 18.819-4.033h20.611q8.066 0 24.196-0.896 21.508 0 24.644 10.754t3.136 34.053q0 20.611 0.449 37.189t0.449 45.255q0 20.611 4.033 31.813t17.474 11.202q9.858 0 28.228 0.449t28.228 0.449z"  horiz-adv-x="1024" />

    
    <glyph glyph-name="daochu" unicode="&#58925;" d="M778.168082 178.30638c-2.25639 6.690376-9.646708 12.079106-16.507976 12.036128l-603.725074 0.211824c-6.860245-0.042979-10.593266-5.501294-8.336876-12.190647L254.049067-135.420881c2.25639-6.690376 9.646708-12.079106 16.507976-12.036128l599.630826-0.211824c6.860245 0.042979 10.593266 5.501294 8.336876 12.190647L778.168082 178.30638zM879.200126 250.270389c0-22.605857-18.326391-40.932248-40.932248-40.932248L700.044794 209.338141c-22.605857 0-40.932248 18.326391-40.932248 40.932248l0 82.551134c0 22.605857 18.326391 40.932248 40.932248 40.932248l138.223085 0c22.605857 0 40.932248-18.326391 40.932248-40.932248L879.200126 250.270389zM747.754399 491.694927l0.346901-100.282984L880.518145 568.902356 747.910964 742.408015l0.328481-95.164407c0 0-386.650107 27.078729-416.308591-367.271758l24.87248 0C406.691559 363.693648 529.324574 517.201857 747.754399 491.694927zM864.87384 279.970828 356.804359 279.970828c-18.151405-30.461779-26.674523-51.687196-26.674523-51.687196-0.062422 17.990746 0.561795 35.201733 1.802042 51.687196l-67.029626 0c-7.912204 0-14.326287-6.414083-14.326287-14.326287l0-60.528562 520.335852-0.182149c7.286963 0.046049 15.136745-5.678326 17.533328-12.784164l90.756003-283.765879L879.20115 265.644541C879.200126 273.556745 872.786043 279.970828 864.87384 279.970828z"  horiz-adv-x="1024" />

    
    <glyph glyph-name="ziduan" unicode="&#58898;" d="M386.59 743.112c81.789 11.575 165.135 12.101 247.070 1.635 61.409-8.026 122.383-22.15 179.58-46.244 33.316-14.231 65.565-31.916 93.054-55.728 31.507-26.663 56.477-65.69 52.995-108.473-0.078-65.914 0.146-131.826-0.107-197.732-18.199 15.621-37.607 29.825-58.093 42.305-0.496 20.447 0.116 40.924-0.272 61.371-16.907-12.743-34.417-24.845-53.356-34.396-2.597-1.439-5.408 0.234-7.937 0.963-27.889 10.087-57.209 15.534-86.624 18.647 35.165 11.907 70.633 25.029 101.069 46.847 23.286 16.615 46.186 40.379 46.934 70.709 0.37 30.38-22.131 54.727-45.253 71.517-29.017 20.954-62.499 34.717-96.38 45.621-65.894 20.622-134.873 29.951-203.705 32.899-76.020 2.88-152.576-2.268-227.030-18.249-59.493-13.785-121.205-32.139-167.81-73.461-15.204-14.202-28.112-32.899-29.164-54.308-1.469-27.821 17.383-51.547 38.015-68.005 28.161-22.442 61.654-36.974 95.505-48.511 101.595-33.063 209.939-40.097 316.067-34.464-31.954-14.989-62.334-33.764-88.657-57.412-2.733-3.171-7.101-2.306-10.779-2.207-71.682 2.869-143.393 13.152-211.983 34.601-49.309 15.476-97.303 37.15-138.15 69.211-0.253-24.096-0.038-48.199-0.107-72.294-0.078-18.892 9.514-36.371 22.022-49.97 18.025-19.523 41.177-33.462 64.932-44.922 59.115-27.665 123.822-40.603 188.17-48.969-8.288-17.695-14.815-36.148-20.37-54.873-89.941 13.024-181.612 38.717-254.647 94.96-0.223-24.115-0.097-48.24-0.058-72.352 0.554-18.647 10.398-35.662 22.908-48.969 17.908-19.008 40.652-32.655 63.997-43.92 49.123-23.113 102.42-35.651 155.747-44.513 1.351-19.814 4.553-39.436 8.433-58.891-88.686 13.414-179.006 38.94-251.028 94.522-0.253-23.463-0.038-46.926-0.107-70.388 0.72-21.041 12.976-39.727 27.772-53.89 21.518-20.515 48.161-34.736 75.369-46.205 63.53-26.109 131.894-38.21 200.017-44.357 2.782-0.185 3.998-3.074 5.565-4.962 14.466-20.73 32.139-38.91 50.213-56.429-74.853 2.238-149.834 12.627-221.419 35.077-54.377 17.499-108.366 41.507-150.514 80.981-24.241 22.995-44.017 53.551-45.281 87.82-0.204 174.775-0.019 349.587-0.097 524.381-0.817 34.708 17.908 66.613 41.936 90.368 23.278 23.171 51.42 40.836 80.719 55.379 59.903 29.105 125.164 45.66 190.835 55.282zM705.8 367.494c65.593 3.91 132.285-15.37 185.62-53.774 49.786-35.477 87.82-87.129 106.769-145.26 22.403-67.109 18.842-142.391-9.689-207.127-24.834-57.266-68.813-105.952-123.209-136.535-62.81-35.769-139.23-46.673-209.521-29.805-58.044 13.531-111.565 45.572-150.932 90.319-44.308 49.834-70.436 115.378-72.587 182.021-2.645 68.191 19.921 136.973 62.402 190.378 50.477 64.483 129.358 105.505 211.147 109.786M553.758 221.94c-0.185-19.376-0.185-38.774 0-58.15 19.376-0.185 38.774-0.185 58.15 0 0.185 19.376 0.185 38.774 0 58.15-19.376 0.185-38.774 0.185-58.15 0M670.487 221.94c-0.185-19.376-0.185-38.774 0-58.15 77.743-0.185 155.504-0.175 233.247 0 0.185 19.376 0.185 38.774 0 58.15-77.743 0.175-155.504 0.185-233.247 0M553.758 106.184c-0.185-19.376-0.194-38.774 0.011-58.15 19.367-0.185 38.764-0.185 58.142 0 0.185 19.376 0.185 38.774 0 58.15-19.376 0.194-38.774 0.185-58.15 0M670.487 106.184c-0.185-19.376-0.185-38.774 0-58.15 77.743-0.175 155.504-0.185 233.247 0 0.185 19.376 0.185 38.774 0 58.15-77.743 0.175-155.504 0.175-233.247 0M553.758-11.519c-0.185-19.376-0.185-38.774 0-58.15 19.376-0.185 38.774-0.185 58.15 0 0.185 19.376 0.185 38.774 0 58.15-19.376 0.185-38.774 0.185-58.15 0M670.487-11.519c-0.185-19.376-0.185-38.774 0-58.15 77.743-0.175 155.504-0.185 233.247 0 0.185 19.376 0.185 38.774 0 58.15-77.743 0.175-155.504 0.185-233.247 0z"  horiz-adv-x="1024" />

    
    <glyph glyph-name="huiyuan1" unicode="&#58943;" d="M854.656 150.368c-36.864 17.472-68.288 24.448-95.104 26.24-9.344 29.248 25.088 79.104 40.32 98.88 99.264 106.368 61.76 425.472-150.592 395.84C637.888 669.728 627.136 666.08 616.768 661.536c64.512-104.064 56.768-274.176-12.864-348.8C595.136 301.344 580.672 280.864 570.304 259.296c7.168-19.2 11.264-40.192 13.184-57.536 23.744-4.032 50.368-11.776 80.32-25.984 135.296-64.448 146.176-294.656 146.176-294.656l178.112 0C988.096-119.008 978.24 91.424 854.656 150.368zM591.36 175.776c-40.384 19.264-74.816 26.88-104.064 28.736-10.176 32 27.456 86.592 44.032 108.224C633.6 422.24 603.136 737.824 405.504 747.488c0 0 0 0-0.064 0C393.152 748.064 380.288 747.744 366.656 745.824 205.824 723.36 117.76 416.608 272.192 314.464 291.776 279.584 296.192 226.4 297.024 205.28c-31.616 0-70.528-6.912-117.056-29.504-133.44-64.448-144.128-294.656-144.128-294.656l701.76 0C737.472-119.008 726.656 111.328 591.36 175.776zM384.256 182.496C383.488 183.072 382.08 183.776 381.184 184.224 382.912 183.968 384.64 183.968 386.432 183.776 385.792 183.392 384.768 182.88 384.256 182.496z"  horiz-adv-x="1024" />

    
    <glyph glyph-name="cuowu" unicode="&#58930;" d="M512 748C264.96 748 64 547.04 64 300c0-246.976 200.96-448 448-448 246.976 0 448 201.024 448 448C960 547.04 758.976 748 512 748zM512-84c-212.032 0-384 171.968-384 384s171.968 384 384 384 384-171.968 384-384S724.032-84 512-84zM670.4 503.648 512 345.312 353.6 503.648 308.352 458.4 466.752 300 308.352 141.6 353.6 96.352 512 254.752 670.4 96.352 715.648 141.6 557.248 300 715.648 458.4Z"  horiz-adv-x="1024" />

    
    <glyph glyph-name="html" unicode="&#58910;" d="M708.923077 812 114.806154 812C66.166154 812 59.076923 804.910769 59.076923 756.270769l0-912.541538C59.076923-204.910769 66.166154-212 114.806154-212l794.387692 0c48.64 0 55.729231 7.089231 55.729231 55.729231L964.923077 556 708.923077 812zM295.384615 162.153846l-39.384615 0L256 260.615385l-118.153846 0 0-98.461538-39.384615 0 0 236.307692 39.384615 0L137.846154 300l118.153846 0 0 98.461538 39.384615 0L295.384615 162.153846zM512 359.076923l-78.769231 0 0-196.923077-39.384615 0 0 196.923077L315.076923 359.076923l0 39.384615 196.923077 0L512 359.076923zM748.307692 162.153846l-39.384615 0 0 186.092308L655.753846 162.153846 624.246154 162.153846l-53.169231 186.092308L571.076923 162.153846l-39.384615 0 0 236.307692 59.470769 0 48.836923-161.28 48.836923 161.28L748.307692 398.461538 748.307692 162.153846zM925.538462 162.153846 787.692308 162.153846l0 236.307692 39.384615 0 0-196.923077 98.461538 0L925.538462 162.153846zM795.017846 550.092308c-53.878154 0-92.002462 38.084923-92.002462 91.963077L703.015385 798.215385l248.162462-248.123077L795.017846 550.092308z"  horiz-adv-x="1024" />

    
    <glyph glyph-name="suoping" unicode="&#58881;" d="M681.824315 439.196249c0 0 12.323677 234.856959-153.214521 234.856959-157.827585 0-153.216567-234.856959-153.216567-234.856959l-91.928712 0c0 0-25.245987 326.754972 245.14528 326.754972 286.001803 0 245.14528-326.754972 245.14528-326.754972L681.824315 439.196249zM470.896348 728.936189c-87.49268-13.302981-140.192949-117.16856-137.634684-165.263951 0.38374-7.211239 10.396791-1.696642 12.791327 5.116531 42.97886 122.285091 98.749048 128.424928 126.378316 143.262868C478.794226 715.468456 478.035956 730.021917 470.896348 728.936189zM232.393349 423.097596c41.705867 0 451.986161 0 602.648556 0 29.795607 0 47.530526-33.353642 51.071166-51.056839 20.026102-100.125395 16.83134-307.724547 0-408.436296-6.256494-37.435611-30.642904-112.324228-102.143355-112.324228-71.501474 0-469.007837-0.426719-520.93244 0-61.284785 0.502443-86.030375 76.519768-91.929736 112.324228-16.601096 100.750635-18.59245 308.034609 0 408.436296C174.737208 391.64935 190.687482 423.097596 232.393349 423.097596zM436.680059 178.036227c0-48.508807 51.073212-71.482031 51.073212-71.482031l0-81.684394 20.428262-20.423145 40.857547 0 20.428262 20.423145 0 81.684394c0 0 53.625338 24.570605 51.072189 71.482031-1.232061 22.61916-10.213619 81.686441-91.929736 81.686441C467.209376 259.723691 436.680059 228.924221 436.680059 178.036227z"  horiz-adv-x="1024" />

    
    <glyph glyph-name="iconfontxiangyou" unicode="&#58913;" d="M285.577689 579.458167q-14.278884 14.278884-21.418327 32.63745t-7.139442 37.227092 7.139442 36.717131 21.418327 32.12749q28.557769 29.577689 68.334661 29.577689t68.334661-29.577689l378.390438-381.450199q14.278884-12.239044 20.398406-30.59761t5.099602-38.756972-9.179283-40.286853-22.438247-34.167331l-372.270916-375.330677q-28.557769-29.577689-68.334661-29.577689t-68.334661 29.577689q-14.278884 14.278884-21.418327 32.12749t-7.139442 36.717131 7.139442 37.227092 21.418327 32.63745l308.015936 311.075697z"  horiz-adv-x="1024" />

    
    <glyph glyph-name="add" unicode="&#58917;" d="M529.102005-126.378947c-246.272963 0-446.6312 200.361307-446.6312 446.63427s200.358237 446.632223 446.6312 446.632223 446.633247-200.35926 446.633247-446.632223S775.374968-126.378947 529.102005-126.378947zM529.102005 708.779104c-214.233246 0-388.521734-174.290535-388.521734-388.522758 0-214.233246 174.288488-388.525827 388.521734-388.525827s388.525827 174.292582 388.525827 388.525827C917.625786 534.488569 743.333204 708.779104 529.102005 708.779104zM529.102005 84.741401c-16.048511 0-29.055756 13.012362-29.055756 29.05678L500.046249 534.634902c0 16.047488 13.007245 29.054733 29.055756 29.054733s29.055756-13.007245 29.055756-29.054733l0-420.837744C558.155714 97.753763 545.148469 84.741401 529.102005 84.741401zM739.517295 295.158738 318.681598 295.158738c-16.047488 0-29.054733 13.007245-29.054733 29.055756 0 16.046464 13.007245 29.054733 29.054733 29.054733l420.835697 0c16.047488 0 29.055756-13.008268 29.055756-29.054733C768.571005 308.167007 755.562736 295.158738 739.517295 295.158738z"  horiz-adv-x="1024" />

    
    <glyph glyph-name="minus-square" unicode="&#59227;" d="M815.428 347.429v73.143q0 14.848-10.862 25.71t-25.71 10.862h-512q-14.848 0-25.71-10.862t-10.862-25.71v-73.143q0-14.848 10.862-25.71t25.71-10.862h512q14.848 0 25.71 10.862t10.862 25.71zM961.714 658.286v-548.571q0-67.986-48.274-116.297t-116.297-48.274h-548.571q-67.986 0-116.297 48.274t-48.274 116.297v548.571q0 67.986 48.274 116.297t116.297 48.274h548.571q67.986 0 116.297-48.274t48.274-116.297z"  horiz-adv-x="1025" />

    
    <glyph glyph-name="zhankai" unicode="&#58949;" d="M64.995293 749.124997l894.341988 0 0-127.762849-894.341988 0 0 127.762849ZM64.995293 493.298448l894.341988 0 0-127.762849-894.341988 0 0 127.762849ZM64.995293 237.471898l894.341988 0 0-127.762849-894.341988 0 0 127.762849ZM64.995293-18.354652l894.341988 0 0-127.762849-894.341988 0 0 127.762849Z"  horiz-adv-x="1024" />

    
    <glyph glyph-name="doc" unicode="&#58891;" d="M607.99635 523.898373 607.99635 747.889867 192.012148 747.889867 192.012148 363.904449 831.987844 363.904449 831.987844 523.898373ZM831.987844 555.897158 639.995135 555.897158 639.995135 747.889867ZM217.323627 146.638123l-45.685505 0L171.638121-15.417763l45.685505 0c46.197158 0 81.028455 33.725102 81.028455 80.246649l0 0.750083c0 21.390169-7.253194 42.959418-22.467711 58.372455C260.524544 139.580381 238.896968 146.638123 217.323627 146.638123zM275.883347 123.951425C282.914484 116.827167 268.821511 131.139128 275.883347 123.951425L275.883347 123.951425zM0.019439 300.257873l0-447.982988 1023.961114 0 0 447.982988L0.019439 300.257873zM360.161822 65.578969c0-79.216179-66.165955-134.370337-142.838196-134.370337L112.48386-68.791367l0 268.802072L217.323627 200.010705c76.473719 0 142.838196-54.333466 142.838196-133.620253L360.161822 65.578969zM672.61916 65.578969c0-179.879833-285.676391-181.02389-285.676391-0.750083l0 0.750083c0 179.892113 285.676391 181.094498 285.676391 0.812505L672.61916 65.578969zM925.983635-45.354586c-89.87596-70.992891-226.553852-3.062755-226.553852 110.183472l0 0.750083c0 126.682237 159.095461 183.762257 246.177795 97.558943l-37.623899-43.372833c-55.446823 49.838082-146.744155 31.299867-146.744155-53.372581l0-0.812505c0-85.98842 92.969415-104.609523 148.618852-52.93563l37.623899-38.060851C940.608727-32.8549 933.421025-39.479785 925.983635-45.354586zM529.998929 66.266631m-81.996502 0a80.129 80.129 0 1 0 163.993005 0 80.129 80.129 0 1 0-163.993005 0Z"  horiz-adv-x="1024" />

    
    <glyph glyph-name="rar" unicode="&#58895;" d="M607.99635 523.898373 607.99635 747.889867 192.012148 747.889867 192.012148 363.904449 831.987844 363.904449 831.987844 523.898373ZM831.987844 555.897158 639.995135 555.897158 639.995135 747.889867ZM232.822622 146.638123l-58.748009 0 0-77.184917 59.872622 0c23.494087 0 45.310975 12.065803 45.310975 37.998429l0 0.750083C279.258211 135.351056 257.30727 146.638123 232.822622 146.638123zM824.488033 146.638123l-58.748009 0 0-77.184917 59.872622 0c23.494087 0 45.310975 12.065803 45.310975 37.998429l0 0.750083C870.923622 135.351056 848.971657 146.638123 824.488033 146.638123zM485.063507 43.704776 556.498466 43.704776 520.811686 130.888418ZM0.019439 300.257873l0-447.982988 1023.961114 0 0 447.982988L0.019439 300.257873zM278.133597-68.791367l-57.622372 85.996606-46.435589 0 0-85.996606L114.952074-68.791367l0 268.802072 122.870422 0c54.588269 0 101.370759-29.541827 101.370759-88.683808l0-0.812505c0-38.58069-21.315468-69.842695-57.622372-83.309404l65.685002-95.996354L278.133597-68.791367zM602.183971-68.791367l-24.561395 60.310597L464.001819-8.48077l-24.623817-60.310597-60.248176 0 115.183346 270.676769 54.498218 0 115.245767-270.676769L602.183971-68.791367zM869.799008-68.791367l-57.622372 85.996606-46.435589 0 0-85.996606L706.617485-68.791367l0 268.802072 122.870422 0c54.588269 0 101.370759-29.541827 101.370759-88.683808l0-0.812505c0-38.58069-21.315468-69.842695-57.622372-83.309404l65.685002-95.996354L869.799008-68.791367z"  horiz-adv-x="1024" />

    
    <glyph glyph-name="iconfontcolor52" unicode="&#59048;" d="M863.563 49.636c0-31.064-25.186-56.25-56.25-56.25h-703.125l98.438 464.063c0 31.064 25.186 56.25 56.25 56.25h646.875c31.064 0 56.25-25.186 56.25-56.25l-98.438-407.813zM216.687 555.886h632.813v55.266c0 31.064-25.186 56.25-56.25 56.25h-337.5v50.963c0 31.064-25.186 56.25-56.25 56.25h-281.25c-31.064 0-56.25-25.186-56.25-56.25v-668.742l98.438 450c0 31.078 25.186 56.264 56.25 56.264z"  horiz-adv-x="1024" />

    
    <glyph glyph-name="map" unicode="&#58911;" d="M578.494948 63.636734c82.080413 98.420567 211.745588 269.917476 211.745588 371.072317 0 147.972123-124.267235 267.934309-277.544177 267.934309S235.153206 582.682197 235.153206 434.709051c0-101.155864 129.668245-272.65175 211.744565-371.072317C480.74874 23.042177 544.643979 23.042177 578.494948 63.636734zM512.697383 552.984828c44.191478 0 80.007195-34.588773 80.007195-77.238129 0-42.664705-35.815717-77.253478-80.007195-77.253478-44.191478 0-80.007195 34.588773-80.007195 77.253478C432.690188 518.396055 468.504882 552.984828 512.697383 552.984828zM652.959917 137.742523c1.134847-4.28356 1.913583-8.638751 1.913583-13.104459 0-5.217838-0.921999-10.290367-2.478448-15.246239 47.179532-11.868305 77.202313-29.603225 77.202313-49.452295 0-35.738969-97.112782-64.698534-216.901005-64.698534s-216.901005 28.959565-216.901005 64.698534c0 19.84907 30.018687 37.592177 77.202313 49.452295-1.556449 4.956895-2.464121 10.029424-2.464121 15.246239 0 4.464685 0.763386 8.820899 1.910513 13.104459-139.039683-16.613376-237.299591-57.151651-237.299591-104.562451 0-62.187341 169.037904-112.609731 377.551892-112.609731 208.515011 0 377.547799 50.421366 377.547799 112.609731C890.245182 80.591895 791.991414 121.129146 652.959917 137.742523z"  horiz-adv-x="1024" />

    
    <glyph glyph-name="neirongfabu" unicode="&#58924;" d="M114.176412 428.012536 395.521149 705.114644 114.176412 428.012536 114.176412 428.012536zM951.030082-145.335694 951.030082 705.114644 376.090611 705.114644 100.579743 428.012536l0-573.34823L951.030082-145.335694 951.030082-145.335694zM442.158329 745.096241l0-377.923352L63.9945 367.172889l0 29.572526L413.594783 745.335694 442.158329 745.096241zM391.005298 720.394652l0-308.821531L82.185814 411.573121 391.005298 720.394652zM291.703665 284.78139l465.432405 0 0-48.482201L291.703665 236.299189 291.703665 284.78139 291.703665 284.78139zM292.219411 60.320199l465.432405 0 0-48.482201L292.219411 11.837998 292.219411 60.320199 292.219411 60.320199zM291.862277 167.679345l278.774191 0 0-48.482201L291.862277 119.197144 291.862277 167.679345 291.862277 167.679345zM320.621275 156.482329"  horiz-adv-x="1024" />

    
    <glyph glyph-name="xinxiguanli" unicode="&#58929;" d="M186.285 617.928h92.279v-46.627h559.505v-44.683h-560.476v-49.54h-91.308v140.849zM186.285 431.426h93.25v-46.611h558.533v-46.641h-559.505v-44.68h-92.279v137.933zM186.285 243.953h92.279v-45.654h559.505v-46.626h-559.505v-45.652h-92.279v137.932zM137.717 664.552h746.004v-651.782h-746.004v-47.583h793.279v839.256h-793.279v-139.89zM91.739 804.442h45.978v-839.256h-45.978v839.256z"  horiz-adv-x="1024" />

    
    <glyph glyph-name="home" unicode="&#59525;" d="M876.992 243.04l0-304c0-11.008-4.096-20.48-12.096-28.544-8-8-17.472-12.032-28.416-12.032L593.152-101.536l0 243.392L430.912 141.856l0-243.392L187.712-101.536c-11.008 0-20.48 4.032-28.544 12.032-8 8.064-12.032 17.536-12.032 28.544L147.136 243.04c0 0.448 0.128 1.088 0.32 1.92 0.192 0.832 0.32 1.472 0.32 1.92L512 547.104l364.224-300.288C876.736 245.984 876.992 244.768 876.992 243.04L876.992 243.04zM1018.176 286.688l-39.296-46.848c-3.328-3.776-7.744-6.144-13.312-6.976l-1.792 0c-5.504 0-9.92 1.472-13.376 4.48L512 602.848 73.536 237.344C68.48 233.952 63.424 232.416 58.368 232.864c-5.504 0.896-9.92 3.2-13.248 6.976L5.76 286.688C2.432 290.976 0.896 295.968 1.344 301.6c0.448 5.696 2.688 10.24 6.976 13.632l455.424 379.456C477.312 705.696 493.376 711.2 512 711.2c18.624 0 34.688-5.504 48.192-16.448l154.624-129.216 0 123.52c0 5.952 1.92 10.752 5.696 14.528 3.904 3.84 8.768 5.696 14.592 5.76l121.728 0c5.824 0 10.752-1.856 14.528-5.76 3.776-3.776 5.632-8.64 5.76-14.528L877.12 430.56l138.752-115.328c4.096-3.392 6.528-7.936 6.848-13.632C1023.104 295.968 1021.632 290.976 1018.176 286.688L1018.176 286.688zM1018.176 286.688"  horiz-adv-x="1024" />

    
    <glyph glyph-name="xiangxia" unicode="&#58901;" d="M569.376-26.4896 1000.2496 404.32c31.68 31.68 31.68 83.1104 0 114.8032-31.808 31.68-83.1872 31.68-114.8672 0L512.0704 145.888 138.6176 519.1232c-31.6544 31.68-83.0336 31.68-114.8672 0-31.6672-31.6928-31.6672-83.1232 0-114.8032l430.8864-430.8096C486.3296-58.2208 537.696-58.2208 569.376-26.4896z"  horiz-adv-x="1025" />

    
    <glyph glyph-name="php" unicode="&#59061;" d="M311.247 370.609l-53.981 0-22.17-134.622 50.445 0c0 0 61.372-1.896 64.264 87.219C352.697 374.4 311.247 370.609 311.247 370.609zM772.013 370.609l-53.981 0-22.17-134.622 50.446 0c0 0 61.371-1.896 64.263 87.219C813.462 374.4 772.013 370.609 772.013 370.609zM512.492 596.673c-283.043 0-512.492-142.618-512.492-318.546 0-175.927 229.45-318.545 512.492-318.545C795.533-40.418 1024.983 102.2 1024.983 278.127 1024.983 454.055 795.533 596.673 512.492 596.673zM282.971 185.929l-54.623 0.507-15.422-84.692-58.479 0 52.695 318.543c0 0 74.866-1.138 124.027 0 49.16 1.138 97.503-39.857 74.867-132.727C379.044 176.828 282.971 185.929 282.971 185.929zM545.807 185.929c0 0 14.038 74.026 20.184 125.424 2.529 21.157 13.556 56.98-15.665 57.064-24.472 0.072-61.07 0.295-61.07 0.295l-30.846-182.784-57.838 0 53.982 320.063 59.224 0-14.881-85.682 61.049 0c0 0 80.972 7.561 71.331-71.317-9.639-78.878-27.633-163.064-27.633-163.064L545.807 185.928zM866.801 287.56c-26.99-110.731-123.063-101.631-123.063-101.631l-54.623 0.507-15.423-84.692-58.479 0 52.696 318.543c0 0 74.865-1.138 124.026 0C841.095 421.424 889.437 380.429 866.801 287.56z"  horiz-adv-x="1025" />

    
    <glyph glyph-name="tag" unicode="&#59129;" d="M256.064 556q0 30.272-21.44 51.712t-51.712 21.44-51.712-21.44-21.44-51.712 21.44-51.712 51.712-21.44 51.712 21.44 21.44 51.712zM865.792 226.848q0-30.272-21.12-51.456l-280.576-281.152q-22.272-21.12-52.032-21.12-30.272 0-51.456 21.12l-408.576 409.152q-21.696 21.12-36.864 57.728t-15.168 66.88l0 237.696q0 29.696 21.696 51.456t51.456 21.696l237.696 0q30.272 0 66.88-15.168t58.304-36.864l408.576-408q21.12-22.272 21.12-52.032z"  horiz-adv-x="1025" />

    
    <glyph glyph-name="tianjia1" unicode="&#58963;" d="M0 719.320785C0 770.506102 41.410278 812 92.679215 812L931.320785 812C982.5061 812 1024 770.589722 1024 719.320785L1024-119.320785C1024-170.5061 982.589724-212 931.320785-212L92.679215-212C41.493898-212 0-170.589724 0-119.320785L0 719.320785ZM46.545455 719.320785 46.545455-119.320785C46.545455-144.847998 67.164851-165.454545 92.679215-165.454545L931.320785-165.454545C956.847998-165.454545 977.454545-144.835151 977.454545-119.320785L977.454545 719.320785C977.454545 744.847999 956.835151 765.454545 931.320785 765.454545L92.679215 765.454545C67.152001 765.454545 46.545455 744.835149 46.545455 719.320785ZM465.454545 346.545455 186.181818 346.545455 186.181818 253.454545 465.454545 253.454545 465.454545-25.818182 558.545455-25.818182 558.545455 253.454545 837.818182 253.454545 837.818182 346.545455 558.545455 346.545455 558.545455 625.818182 465.454545 625.818182 465.454545 346.545455Z"  horiz-adv-x="1024" />

    
    <glyph glyph-name="zliconwarning01" unicode="&#58959;" d="M512 833.972c-248.533 0-449.986-201.481-449.986-449.986s201.453-449.986 449.986-449.986 449.986 201.481 449.986 449.986-201.481 449.986-449.986 449.986zM469.814 667.084c0 23.287 18.871 42.186 42.186 42.186s42.187-18.899 42.187-42.186v-361.17c0-23.287-18.871-42.187-42.187-42.187s-42.186 18.899-42.186 42.187v361.17zM512 58.731c-37.546 0-67.976 30.43-67.976 67.976 0 37.518 30.43 67.976 67.976 67.976s67.976-30.43 67.976-67.976c-0.028-37.574-30.43-67.976-67.976-67.976z"  horiz-adv-x="1024" />

    
    <glyph glyph-name="zip" unicode="&#58942;" d="M895.469672 584.309254 667.839301 584.309254 667.839301 811.939625 895.469672 584.309254zM639.627772 556.096702 639.627772 811.939625l-511.725754 0.060375 0-447.784466 767.567653 0L895.469672 556.096702 639.627772 556.096702zM752.971214 168.869451c-5.446036 3.290953-11.751648 5.513574-18.909675 6.661723-7.16519 1.140986-14.612813 1.719154-22.349007 1.719154l-52.43421 0 0-91.974761 52.43421 0c7.736195 0 15.183817 0.571005 22.349007 1.720178 7.158027 1.140986 13.46364 3.363607 18.909675 6.661723 5.438872 3.290953 9.81146 7.951089 13.109576 13.967106 3.290953 6.018064 4.942569 13.894452 4.942569 23.639396 0 9.737782-1.651616 17.621333-4.942569 23.638373C762.782673 160.918361 758.411109 165.572358 752.971214 168.869451zM0.618077 300.254803l0-447.724091 1022.763846 0L1023.381923 300.254803 0.618077 300.254803zM435.618379-77.184525l-258.732739 0 0 53.293787 164.609035 196.84318L189.779298 172.952442 189.779298 229.684538l241.541195 0 0-53.293787L266.712481-20.451406l168.906921 0L435.619402-77.184525zM538.507724-77.184525 471.031936-77.184525 471.031936 229.684538l67.475787 0L538.507724-77.184525zM830.54908 94.945811c-3.868097-11.892865-10.033517-22.422685-18.481933-31.589462-8.454556-9.172917-19.414165-16.546861-32.878828-22.134113-13.470803-5.587252-29.80277-8.380878-48.995901-8.380878l-70.91512 0L659.277298-77.184525l-67.476811 0L591.800487 229.684538l138.39193 0c19.193131 0 35.525098-2.792603 48.995901-8.379854 13.464663-5.587252 24.424272-12.968359 32.878828-22.135136 8.448416-9.172917 14.612813-19.629059 18.481933-31.373545 3.867074-11.751648 5.802146-23.927969 5.802146-36.532031C836.351226 118.940294 834.416154 106.831512 830.54908 94.945811z"  horiz-adv-x="1024" />

    
    <glyph glyph-name="youhuazhongxin" unicode="&#58977;" d="M988.675 651.688c-1.064 1.385-2.792 2.092-4.52 1.859L28.807 524.16c-1.892-0.256-3.46-1.593-4.013-3.42-0.553-1.827 0.012-3.809 1.444-5.071l170.448-150.121c0.97-0.855 2.237-1.289 3.532-1.207 1.291 0.082 2.496 0.674 3.351 1.645l49.51 56.256c1.779 2.021 1.583 5.102-0.438 6.881l-29.385 25.877c-1.757 1.547-2.455 3.996-1.779 6.234 0.68 2.244 2.618 3.897 4.938 4.211l620.921 84.11c0.262 0.036 0.532 0.054 0.804 0.054 1.846 0 3.62-0.876 4.751-2.352 1.305-1.693 1.604-3.974 0.779-5.952L662.104 80.791c-0.741-1.778-2.3-3.101-4.173-3.537-1.802-0.424-3.903 0.098-5.298 1.307L484.042 224.986c-1.799 1.562-4.463 1.596-6.303 0.078l-100.3-82.85c-1.663-1.376-4.372-1.726-6.331-0.82-2.087 0.969-3.456 3.078-3.485 5.373l-1.538 120.388c-0.017 1.293-0.546 2.526-1.472 3.429-0.926 0.903-2.135 1.385-3.466 1.385l-74.937-0.958c-2.692-0.035-4.848-2.245-4.813-4.938l3.828-299.619c0.024-1.877 1.123-3.573 2.826-4.362 1.704-0.788 3.708-0.529 5.155 0.666L475.614 113.47c1.071 0.886 2.428 1.373 3.82 1.373 1.447 0 2.844-0.522 3.938-1.475L686.894-63.4c0.896-0.778 2.035-1.194 3.197-1.194 0.372 0 0.746 0.042 1.115 0.129 1.524 0.358 2.785 1.428 3.387 2.874l294.719 708.435C989.982 648.456 989.739 650.304 988.675 651.688z"  horiz-adv-x="1024" />

    
    <glyph glyph-name="tupian" unicode="&#59017;" d="M957.824 18.144c0-41.216-33.728-74.304-74.048-74.304L140.224-56.16c-41.216 0-74.048 33.856-74.048 74.304L66.176 582.176c0 41.152 33.728 73.984 74.048 73.984l742.72 0c41.088 0 73.92-33.728 73.92-73.984l0-564.032L957.824 18.144zM140.224 597.792c-8.192 0-14.784-6.592-14.784-14.784l0-564.864c0-8.32 6.592-14.848 14.784-14.848l742.72 0c8.192 0 14.72 6.592 14.72 14.848L897.664 582.176c0 8.192-6.592 14.784-14.72 14.784L140.224 596.96 140.224 597.792zM274.304 359.328c-49.344 0-88.832 39.424-88.832 88.768 0 49.408 39.424 89.728 88.832 89.728 49.344 0 88.896-39.552 88.896-88.896S323.648 359.328 274.304 359.328L274.304 359.328zM838.592 62.432 185.472 62.432l0 89.536 148.864 148.8 74.048-73.92 237.568 236.8 193.408-193.216 0-208.192-0.896 0L838.464 62.432z"  horiz-adv-x="1024" />

    
    <glyph glyph-name="tuichudenglu" unicode="&#59461;" d="M185.584254 567.254833l415.031505 0L600.615759 685.574612 66.887898 685.574612 66.887898-85.575636l533.727861 0L600.615759 33.121743 185.584254 33.121743 185.584254 567.254833zM957.110055 300.187265 658.515447 567.254833l0-178.045045L302.426379 389.209788l0-178.044022 356.089068 0 0-178.044022L957.110055 300.187265z"  horiz-adv-x="1024" />

    
    <glyph glyph-name="gengxin" unicode="&#58902;" d="M874.005824 236.405613 874.005824 236.405613c-10.873652 0-19.902282-8.499581-20.438495-19.360953C843.444784 11.740784 673.237241-152.173426 465.465151-152.17445c-214.919884-0.001023-388.582109 173.660178-388.582109 388.580063 0 214.181057 174.183088 388.444986 388.334469 388.578016l0-130.566708c0-12.805654 14.760169-19.976984 24.827455-12.062733l190.289927 149.603273c7.813966 6.142907 7.813966 17.981537 0 24.125467L490.044966 805.686201c-10.067286 7.91425-24.827455 0.74292-24.827455-12.062733l0-127.70759c-57.887408-0.031722-114.054639-11.389398-166.945243-33.759895-51.147914-21.633716-97.080036-52.599985-136.51928-92.039229-39.439244-39.439244-70.405513-85.370343-92.039229-136.51928-22.403243-52.965306-33.761941-109.216447-33.761941-167.19186s11.358699-114.226554 33.761941-167.19186c21.633716-51.147914 52.599985-97.080036 92.039229-136.51928s85.370343-70.406536 136.51928-92.039229c52.965306-22.403243 109.216447-33.761941 167.19186-33.761941s114.226554 11.359722 167.19186 33.761941c51.147914 21.633716 97.080036 52.599985 136.51928 92.039229s70.406536 85.371366 92.039229 136.51928c19.642362 46.437635 30.794353 95.402837 33.245172 145.839553C895.024533 226.691367 885.657188 236.405613 874.005824 236.405613zM512 642.831113"  horiz-adv-x="1024" />

    
    <glyph glyph-name="anquan" unicode="&#58955;" d="M512-126.666667C512-126.666667 149.333333-0.266667 149.333333 222.432 149.333333 461.749333 149.333333 597.365333 149.333333 597.365333L512 726.666667 874.666667 597.365333C874.666667 597.365333 874.666667 461.749333 874.666667 222.432 874.666667-0.266667 512-126.666667 512-126.666667ZM662.848 433.184 481.834667 252.149333 382.485333 351.498667 322.154667 291.168 421.482667 191.818667 421.482667 191.818667 481.834667 131.488 542.165333 191.818667 542.165333 191.818667 723.178667 372.832 662.848 433.184Z"  horiz-adv-x="1024" />

    
    <glyph glyph-name="dingbu" unicode="&#58903;" d="M460.921346 622.297965 231.022453 403.38214C210.592966 383.928665 178.261472 384.719839 158.807997 405.149326 139.354453 425.578812 140.145695 457.910306 160.575114 477.36385L476.776364 778.459031 512 812 547.223636 778.459031 863.424886 477.36385C883.854305 457.910306 884.645547 425.578812 865.192003 405.149326 845.738528 384.719839 813.407034 383.928665 792.977547 403.38214L563.078654 622.297965 563.078654-160.737395C563.078654-189.04893 540.40661-212 512-212 483.790008-212 460.921346-189.371407 460.921346-160.737395L460.921346 622.297965Z"  horiz-adv-x="1024" />

    
    <glyph glyph-name="weixin" unicode="&#58899;" d="M318.592 497.263c-32.571 0-64.523 21.514-64.523 53.462 0 32.571 31.954 53.462 63.903 53.462 32.571 0 53.462-20.895 53.462-53.462 0.619-31.954-20.895-53.462-52.843-53.462zM617.835 604.188c32.571 0 53.462-20.895 53.462-53.462 0-31.954-20.895-53.462-53.462-53.462-31.954 0-64.523 21.514-64.523 53.462 0 32.571 32.569 53.462 64.523 53.462zM848.266 488.052c13.518 0 27.037-0.619 41.167-2.455-37.484 172.667-221.828 300.477-431.977 300.477-235.34 0-428.289-160.375-428.29-363.772 0-117.983 63.903-213.84 171.437-288.805l-43.012-129.040 149.935 74.966c53.462-10.443 96.476-21.514 149.935-21.514 12.9 0 26.421 0.619 39.938 1.842-8.599 28.266-13.518 58.99-13.518 89.717 0 186.794 160.375 338.574 364.384 338.574zM992.050 208.468c-20.895 0-42.403 20.895-42.403 42.403 0.619 21.514 21.514 43.012 42.403 43.012 32.569 0 54.075-21.514 54.075-43.012 0-21.514-21.514-42.403-54.075-42.403zM756.707 208.468c-20.895 0-42.403 20.895-42.403 42.403s21.514 43.012 42.403 43.012c32.569 0 53.462-21.514 53.462-43.012 0.619-21.514-20.895-42.403-53.462-42.403zM1238.451 154.389c0 171.437-171.437 310.928-363.772 310.928-203.385 0-363.772-139.483-363.772-310.928 0-171.437 160.375-310.313 363.772-310.313 43.012 0 86.028 11.063 128.428 21.514l117.983-64.523-32.569 106.916c86.028 64.523 149.927 149.927 149.927 246.404z"  horiz-adv-x="1258" />

    
    <glyph glyph-name="jpeg" unicode="&#59037;" d="M920.796-3.97h-81.535v-20.384c0-56.263-45.624-101.917-101.917-101.917l-631.888 0c-56.294 0-101.917 45.654-101.917 101.917l0 815.36c0 56.274 45.625 101.917 101.917 101.917h445.292v3.076l2.867-3.076h0.278v-0.308l282.284-305.464h3.085v-3.305l1.393-1.512h-1.393l-0-239.784h81.535c56.294 0 101.917-45.625 101.917-101.917v-142.685c0-56.303-45.624-101.917-101.917-101.917M553.892 819.731v-130.661c0-56.264 45.625-101.917 101.917-101.917h117.524l-219.441 232.578zM798.494 546.386h-183.452c-56.293 0-101.917 45.653-101.917 101.917v203.854h-366.903c-56.294 0-101.917-45.644-101.917-101.938v-733.807c0-56.303 45.624-101.917 101.917-101.917h550.355c49.286 0 90.412 35.034 99.848 81.535l-466.75 0c-56.294 0-101.917 45.613-101.917 101.917l-0 142.685c0 56.293 45.625 101.917 101.917 101.917h468.821l-0 203.836zM753.587 146.598v29.501h-87.904v38.805h94.472v29.62l-129.825 0v-175.072h133.169v29.49h-97.817v47.654l87.904-0zM519.496 135.49c16.005 0 28.226 0.836 36.666 2.509 6.191 1.343 12.302 4.101 18.313 8.281 6.012 4.18 10.968 9.942 14.89 17.278 3.901 7.326 5.851 16.372 5.851 27.111 0 13.924-3.383 25.281-10.152 34.079-6.807 8.788-15.168 14.541-25.2 17.168-6.549 1.713-20.583 2.609-42.040 2.609h-56.732v-175.072h35.353v66.037l23.051 0zM377.208 103.413c-3.265-4.509-8.838-6.729-16.721-6.729-7.803 0-13.615 3.134-17.437 9.416-2.548 4.16-4.020 11.236-4.419 21.26l-33.323-3.812c0.080-18.711 4.777-32.925 14.093-42.599 9.316-9.683 22.613-14.491 39.891-14.491 14.73 0 26.594 3.056 35.591 9.237 8.997 6.17 15.208 14.361 18.632 24.554 2.548 7.812 3.822 18.96 3.822 33.451l-0 110.825h-35.231v-113.085c0-14.193-1.633-23.549-4.898-28.027M957.264 163.318h-76.2v-29.5h40.488v-22.216c-5.336-4.18-11.745-7.683-19.19-10.6-7.445-2.896-14.849-4.319-22.255-4.319-14.97 0-27.072 5.156-36.308 15.556-9.237 10.391-13.854 26.007-13.854 46.779 0 19.259 4.538 33.79 13.655 43.594 9.117 9.784 21.419 14.681 36.865 14.681 10.191 0 18.672-2.509 25.48-7.485 6.848-4.966 11.466-11.735 13.934-20.344l35.114 6.589c-3.504 16.084-11.385 28.655-23.569 37.771-12.262 9.108-29.222 13.695-50.959 13.695-16.721 0-30.695-2.956-41.921-8.719-14.731-7.563-25.917-18.433-33.562-32.595-7.643-14.192-11.465-30.435-11.465-48.62 0-16.79 3.423-32.366 10.271-46.66 6.847-14.282 17.078-25.27 30.695-32.954 13.615-7.683 29.579-11.515 47.893-11.515 14.411 0 28.664 2.708 42.677 8.151 14.054 5.464 24.803 11.804 32.208 18.96l0 69.75zM496.445 214.904h17.059c12.739 0 21.22-0.388 25.459-1.184 5.733-1.036 10.431-3.623 14.192-7.762 3.763-4.141 5.594-9.436 5.594-15.776 0-5.196-1.314-9.704-3.981-13.615-2.667-3.891-6.33-6.768-11.028-8.579-4.698-1.842-14.012-2.757-27.947-2.757h-19.348l-0 49.673zM85.072 769.927h387.247v-385.733h-387.247v385.733zM126.138 425.239h305.136l0 303.622h-305.136v-303.622zM155.777 466.642h-0.318c-0.597 0-0.915 0.329-0.915 0.956v0.637c7.843 15.695 50.561 143.192 64.376 171.468 0.318 0.628 1.274 0.956 1.573 0.318 0 0 3.444-30.615 71.92-115.413l41.006 45.743c0.955 0.308 1.573 0 1.573 0 0-0.318 0-0.318 0.339-0.318 18.831-23.897 48.61-77.951 67.799-101.798 0.637-0.637 0.318-1.593-0.637-1.593h-246.713zM348.505 601.604c-20.981 0-37.502 17.159-37.502 37.503 0 20.384 16.521 37.543 37.502 37.543 20.344 0 37.522-17.159 37.522-37.543 0-20.344-17.178-37.503-37.522-37.503z"  horiz-adv-x="1024" />

    
    <glyph glyph-name="yidong" unicode="&#58932;" d="M563.66673 189.478837 460.293361 189.478837 460.293361 41.529227 324.387042 41.529227 512-146.029496 699.622168 41.529227 563.66673 41.529227ZM460.293361 410.515023 563.66673 410.515023 563.66673 558.45747 699.622168 558.45747 512 746.030519 324.387042 558.45747 460.293361 558.45747ZM958.033589 299.99693 770.46054 487.618075 770.46054 351.690266 622.503766 351.690266 622.503766 248.303594 770.46054 248.303594 770.46054 112.368622ZM401.454278 248.303594 401.454278 351.690266 253.546623 351.690266 253.546623 487.618075 65.966411 299.99693 253.546623 112.368622 253.546623 248.303594Z"  horiz-adv-x="1024" />

    
    <glyph glyph-name="dakai" unicode="&#58907;" d="M944.293657 810.962368 708.225103 810.962368c-43.458791 0-78.689177-35.230386-78.689177-78.689177l257.323647 0L313.636187 159.050828l57.437154-57.438177 573.220317 573.219293 0-257.316483c43.458791 0 78.689177 35.230386 78.689177 78.689177L1022.982834 732.272167C1022.982834 775.731982 987.752448 810.962368 944.293657 810.962368zM944.293657 677.12722l-55.143924 55.145971 55.143924 0L944.293657 677.12722zM983.637734 181.446907c-21.728884 0-39.3451-17.615193-39.3451-39.3451L944.292634-54.620623c0-43.458791-35.230386-78.689177-78.689177-78.689177L157.399843-133.3098c-43.458791 0-78.689177 35.230386-78.689177 78.689177L78.710666 653.582991c0 43.458791 35.230386 78.689177 78.689177 78.689177l196.723453 0c21.729907 0 39.3451 17.615193 39.3451 39.3451 0 21.729907-17.615193 39.3451-39.3451 39.3451L157.399843 810.962368c-86.917582 0-157.378353-70.460772-157.378353-157.378353L0.021489-54.620623c0-86.917582 70.460772-157.378353 157.378353-157.378353l708.204637 0c86.917582 0 157.378353 70.460772 157.378353 157.378353L1022.982834 142.10283C1022.982834 163.831714 1005.367641 181.446907 983.637734 181.446907z"  horiz-adv-x="1024" />

    
    <glyph glyph-name="zhongguoguoqi" unicode="&#58912;" d="M880.259 15.367 142.242 15.367c-40.617 0-73.661 33.045-73.661 73.662L68.581 519.943c0 40.617 33.044 73.661 73.661 73.661l738.017 0c40.616 0 73.659-33.044 73.659-73.661l0-430.914C953.918 48.412 920.875 15.367 880.259 15.367zM142.242 543.604c-13.047 0-23.661-10.614-23.661-23.661l0-430.914c0-13.047 10.614-23.662 23.661-23.662l738.017 0c13.046 0 23.659 10.615 23.659 23.662L903.918 519.943c0 13.046-10.613 23.661-23.659 23.661L142.242 543.604zM497.313 151.623 479.877 178.595 448.838 170.347 469.101 195.264 451.666 222.234 481.624 210.664 501.887 235.58 500.14 203.512 530.1 191.939 499.06 183.692ZM497.313 429.35 479.877 456.322 448.838 448.074 469.101 472.991 451.666 499.961 481.624 488.391 501.887 513.307 500.14 481.239 530.1 469.667 499.06 461.419ZM595.104 236.58 569.128 255.467 543.139 236.599 553.074 267.14 527.1 286.025 559.213 286.015 569.15 316.555 579.063 286.007 611.18 285.995 585.189 267.128ZM365.242 258.094 295.981 308.452 226.686 258.144 253.177 339.575 183.921 389.93 269.544 389.901 296.041 471.33 322.469 389.88 408.104 389.849 338.806 339.544ZM610.331 367.554 578.837 373.849 563.118 345.843 559.374 377.74 527.882 384.035 557.058 397.453 553.314 429.35 575.092 405.746 604.272 419.164 588.552 391.158Z"  horiz-adv-x="1024" />

    
    <glyph glyph-name="shujujiegoujiancha" unicode="&#59261;" d="M424.869059 747.696462c-227.417523 0-360.290763-56.594973-360.290763-126.400828l0-75.825966c0-69.777203 132.87324-126.400828 360.290763-126.400828 227.437989 0 386.04124 56.623625 386.04124 126.400828l0 75.825966C810.910299 691.101489 652.307048 747.696462 424.869059 747.696462zM393.013537 91.922964c-163.591869 5.738701-259.138992 41.158399-309.387419 88.518033-12.788258-12.125155-19.047822-24.951275-19.047822-38.32691l0-102.211916c0-70.529333 139.170666-127.71066 377.355417-127.71066 23.862477 0 47.071062 0.712221 69.874417 1.838881C450.601116-44.262718 406.95813 18.832296 393.013537 91.922964zM452.218964 347.508014c-5.104251 0-10.015098-0.058328-15.19712-0.058328-191.286628 0-299.122635 37.826514-353.550245 90.000803-12.71151-12.201903-18.893302-25.15389-18.893302-38.58683l0-102.885252c0-65.396429 117.330242-119.371738 320.461639-127.413901C385.310088 236.562179 410.425092 298.895853 452.218964 347.508014zM780.750395 270.257605c-72.590272-38.182624-119.370715-149.213393-119.370715-149.213393l-29.833469 59.685357-59.685357-29.842679c24.787546-9.129938 59.435671-51.356668 89.518826-89.529059 21.243837 40.012296 87.555102 112.140033 119.370715 119.371738C767.422855 226.625876 778.978029 243.005938 780.750395 270.257605zM945.497577-66.266871c0 0-164.901701 151.718447-134.89427 127.624702-17.314341-26.587542-62.997799-42.352597-89.518826-59.69559-35.438117 34.099632 157.00587-135.366014 157.00587-135.366014 9.321296-9.360182 21.493523-13.992689 33.704636-13.992689 12.173251 0 24.363897 4.631484 33.685193 13.964036C964.063421-115.0796 964.063421-84.890021 945.497577-66.266871zM864.241948 43.600399c-0.097214 0.066515-0.173962 0.153496-0.288572 0.240477 22.841218 35.052331 36.169781 76.874855 36.169781 121.93205 0 123.714649-100.17042 223.99968-223.835951 223.99968-123.570363 0-223.835951-100.285031-223.835951-223.99968 0-123.771955 100.265588-223.998657 223.835951-223.998657 44.99068 0 86.823438 13.375635 121.933073 36.227086 0.096191-0.086981 0.172939-0.173962 0.249687-0.288572C824.701396-5.126372 847.118965 17.320872 864.241948 43.600399zM676.286182 1.238592c-90.597391 0-164.362418 73.841775-164.362418 164.535357 0 90.636277 73.765027 164.517961 164.362418 164.517961s164.362418-73.880661 164.362418-164.517961C840.6486 75.080368 766.883573 1.238592 676.286182 1.238592z"  horiz-adv-x="1024" />

    
    <glyph glyph-name="user" unicode="&#58897;" d="M582.353 327.114c-3.173 1.033-23.208 10.067-10.688 48.126h-0.173c32.628 33.602 57.568 87.703 57.568 140.945 0 81.881-54.454 124.788-117.727 124.788-63.311 0-117.455-42.908-117.455-124.788 0-53.458 24.803-107.775 57.627-141.295 12.792-33.563-10.086-46.021-14.873-47.776-66.271-23.963-144.009-67.648-144.009-110.771v-16.157c0-58.755 113.91-72.111 219.333-72.111 105.578 0 218.048 13.356 218.048 72.111v16.157c-0.001 44.427-78.127 87.759-147.649 110.771v0zM511.308-62.896c-246.715 0-447.417 200.703-447.417 447.423 0 246.715 200.703 447.417 447.417 447.417 246.722 0 447.423-200.703 447.423-447.417 0-246.722-200.703-447.423-447.423-447.423v0zM511.308 767.741c-211.308 0-383.213-171.906-383.213-383.213 0-211.28 171.906-383.219 383.213-383.219 211.28 0 383.219 171.94 383.219 383.219 0 211.307-171.94 383.213-383.219 383.213v0zM511.308 767.741z"  horiz-adv-x="1025" />

    
    <glyph glyph-name="mdb" unicode="&#59509;" d="M144.222 479.94v147.107c58.338-31.073 151.215-51.177 255.827-51.177 104.613 0 197.484 20.097 255.828 51.158v-147.088h63.967v223.842c0 70.642-143.169 127.913-319.794 127.913-176.585 0-319.754-57.272-319.754-127.913v-639.556c0-70.641 143.169-127.924 319.754-127.924 21.908 0 43.298 0.885 63.967 2.561v32.464c-20.449-1.976-41.872-3.042-63.967-3.042-111.376 0-220.697 32.066-255.827 69.324v141.74c58.338-31.073 151.215-51.178 255.827-51.178 21.91 0 43.296 0.891 63.967 2.571v32.077c-20.445-1.982-41.879-3.036-63.967-3.036-141.284 0-255.827 43.126-255.827 96.302v147.113c58.338-31.072 151.215-51.172 255.827-51.172 21.91 0 43.296 0.891 63.967 2.571v32.065c-20.445-1.981-41.879-3.036-63.967-3.036-141.284-0-255.827 43.126-255.827 96.314zM400.048 799.722c141.284 0 255.828-42.957 255.828-95.939 0-52.971-114.544-95.921-255.828-95.921-141.284 0-255.827 42.949-255.827 95.921 0.001 52.982 114.544 95.939 255.827 95.939zM879.763 447.957l-159.897-223.834-159.897 223.834h-63.957v-511.653h95.94v338.966l127.913-179.069 127.912 179.069v-338.966h95.931v511.653z"  horiz-adv-x="1024" />

    
    <glyph glyph-name="new" unicode="&#58945;" d="M885.9 544v-532.7h-746.7v745.7h634.7v75.2h-653.5c-31.1 0-56.4-25.3-56.4-56.4v-783.3c0-31.1 25.3-56.4 56.4-56.4h784.3c31.1 0 56.4 25.3 56.4 56.4l0 551.5h-75.2zM773.6 354.3c8.3 8.3 12.8 19.3 12.8 30.9 0 11.7-4.6 22.7-12.8 30.9-8.3 8.3-19.3 12.8-30.9 12.8l-187.7 0v187.8c0 11.7-4.6 22.7-12.8 30.9-8.3 8.3-19.3 12.8-30.9 12.8-11.7 0-22.7-4.6-30.9-12.8-8.3-8.3-12.8-19.3-12.8-30.9l-0-187.8h-187.9c-11.7 0-22.7-4.6-30.9-12.8-8.3-8.3-12.8-19.3-12.8-30.9 0-11.7 4.6-22.7 12.8-30.9 8.3-8.3 19.3-12.8 30.9-12.8h187.8v-187.8c0-24.1 19.6-43.8 43.8-43.8 11.7 0 22.7 4.6 30.9 12.8 8.3 8.3 12.8 19.3 12.8 30.9v187.8h187.8c11.6 0 22.6 4.6 30.8 12.9v0zM773.6 354.3z"  horiz-adv-x="1024" />

    
    <glyph glyph-name="tianjia2" unicode="&#58938;" d="M512-128C229.229714-128 0 101.229714 0 384 0 666.770286 229.229714 896 512 896 794.770286 896 1024 666.770286 1024 384 1024 101.229714 794.770286-128 512-128ZM512 878.336C238.976 878.336 17.664 657.024 17.664 384 17.664 110.976 238.976-110.354286 512-110.354286 785.024-110.354286 1006.336 110.976 1006.336 384 1006.336 657.024 785.024 878.336 512 878.336ZM740.571429 365.714286 548.571429 365.714286 548.571429 173.714286C548.571429 158.573714 536.283429 146.285714 521.142857 146.285714 506.002286 146.285714 493.714286 158.573714 493.714286 173.714286L493.714286 365.714286 301.714286 365.714286C286.573714 365.714286 274.285714 378.002286 274.285714 393.142857 274.285714 408.283429 286.573714 420.571429 301.714286 420.571429L493.714286 420.571429 493.714286 612.571429C493.714286 627.712 506.002286 640 521.142857 640 536.283429 640 548.571429 627.712 548.571429 612.571429L548.571429 420.571429 740.571429 420.571429C755.712 420.571429 768 408.283429 768 393.142857 768 378.002286 755.712 365.714286 740.571429 365.714286Z"  horiz-adv-x="1024" />

    
    <glyph glyph-name="shipin" unicode="&#58905;" d="M1134.276923 825.107692C1134.276923 864.098462 1102.375385 896 1063.384615 896L70.892308 896C31.901538 896 0 864.098462 0 825.107692L0-25.6C0-64.590769 31.901538-96.492308 70.892308-96.492308L1063.384615-96.492308C1102.375385-96.492308 1134.276923-64.590769 1134.276923-25.6L1134.276923 222.523077 1417.846154-61.046154 1417.846154 860.553846 1134.276923 576.984615 1134.276923 825.107692ZM425.353846 151.630769 425.353846 647.876923 815.261538 399.753846 425.353846 151.630769Z"  horiz-adv-x="1418" />

    
    <glyph glyph-name="suolvetu" unicode="&#59001;" d="M882.28386 108.32131l0 45.295626c22.128997 11.467169 37.141922 30.196743 37.141922 59.154261L919.425781 650.148639c0 55.840796-26.927279 100.952226-92.809779 100.952226L288.287357 751.100866c-34.17331 0-54.112432-13.831007-64.600297-37.140898l-51.057863 0C183.347307 759.802038 220.373595 788.212088 272.757662 788.212088l580.165496 0c62.439074 0 103.614869-60.508096 103.614869-122.803907l0-450.245518C956.538027 166.007127 925.822468 124.024967 882.28386 108.32131L882.28386 108.32131zM728.614991-9.984143 169.164283-9.984143c-62.439074 0-103.614869 60.538795-103.614869 122.80493l0 470.731084c0 62.267159 48.955992 93.270267 111.36539 93.270267l575.441914 0c62.411445 0 92.809779-49.069579 92.809779-111.36539L845.166497 101.4099C845.166497 39.143765 791.025413-9.984143 728.614991-9.984143L728.614991-9.984143zM808.053228 546.900114c0 55.841819-18.066471 92.809779-74.253144 92.809779L195.471438 639.709893c-56.158021 0-92.808756-18.412348-92.808756-74.253144l0-445.491237c0-55.841819 36.622082-92.808756 92.808756-92.808756l519.744381 0c56.215326 0 92.837408 36.966936 92.837408 92.808756L808.053228 546.900114 808.053228 546.900114zM86.276481 92.36592c0 0 12.815887 77.269851 53.509704 138.987494 71.50966 108.34459 115.488291 136.971581 129.944538 148.490939 21.772886 17.337877 57.388035 16.857946 74.244958 0 52.140521-52.140521 87.782276-176.052668 92.822059-185.614441 14.169721-30.873148 17.423835-37.152155 37.123502-37.152155 18.806321 0 92.822059 55.698556 92.822059 55.698556s45.876863 37.123502 92.792383 37.123502c60.249199 0 135.042649-70.27146 172.683944-157.534919l-42.738383-65.203024L139.786185 27.161872 86.276481 92.36592 86.276481 92.36592zM624.919281 419.877115c-34.329876 0-62.237483 27.475771-62.237483 61.199851 0 33.752732 27.907607 61.199851 62.237483 61.199851 34.3002 0 62.235436-27.446096 62.235436-61.199851C687.154717 447.351863 659.219481 419.877115 624.919281 419.877115L624.919281 419.877115 624.919281 419.877115z"  horiz-adv-x="1024" />

    
    <glyph glyph-name="ppt" unicode="&#59029;" d="M16 4.96l581.52-103.376L597.52 866.416 16 763.04 16 4.96zM182.944 586.976l125.776 0c27.392 0 47.904-9.328 61.552-28.016 13.632-18.672 20.464-45.248 20.464-79.728 0-35.44-7.424-63.136-22.304-83.072-14.864-19.952-37.552-29.92-68.064-29.92l-41.424 0 0-130.24-76 0L182.944 586.976zM308.208 448.224c5.904 7.264 8.848 16.56 8.848 27.888 0 11.008-2.56 20.352-7.68 28.016-5.12 7.664-14.752 11.488-28.896 11.488l-21.552 0 0-78.288 18.544 0C292.064 437.328 302.304 440.96 308.208 448.224zM620.32 533.312l193.84 0L814.16 384 620.32 384l0-57.424 193.84 0 0-45.952L620.32 280.624l0-57.424 193.84 0 0-45.936L620.32 177.264l0-57.424 193.84 0 0-45.952L620.32 73.888l0-57.424 273.648 0L893.968 602.24 620.32 602.24 620.32 533.312zM757.152 751.552l171.04-114.864 0-402.016L1008 234.672 1008 751.552 757.152 751.552z"  horiz-adv-x="1024" />

    
    <glyph glyph-name="charge" unicode="&#59041;" d="M537.6-25.6c-116.226 0-225.544 45.247-307.749 127.451-82.204 82.204-127.451 191.523-127.451 307.749 0 116.226 45.247 225.544 127.451 307.749 82.204 82.204 191.523 127.451 307.749 127.451 92.394 0 180.815-28.668 255.421-82.895 11.571-8.462 14.161-24.523 5.699-36.267-8.462-11.571-24.523-14.161-36.267-5.699-65.625 47.837-143.34 73.051-224.853 73.051-211.383 0-383.39-172.008-383.39-383.39 0-211.383 172.008-383.39 383.39-383.39 211.383 0 383.39 172.008 383.39 383.39 0 70.634-19.342 139.713-55.954 199.639-7.426 12.262-3.627 28.15 8.635 35.576 12.262 7.426 28.15 3.627 35.576-8.635 41.62-68.043 63.553-146.448 63.553-226.58 0-116.226-45.247-225.544-127.451-307.749-82.204-82.204-191.523-127.451-307.749-127.451v0 0zM542.436 94.598c29.704 0 53.709 24.005 53.709 53.709v70.806h107.937c29.877 0 53.882 24.005 53.882 53.709 0 29.531-24.005 53.709-53.882 53.709h-107.937v53.709h107.937c29.877 0 53.882 24.005 53.882 53.709 0 29.704-24.005 53.709-53.882 53.709h-81.168l93.084 93.257c20.897 20.897 20.897 54.918 0 76.16-20.897 20.897-55.091 20.897-75.987 0l-90.149-90.149-90.149 90.149c-20.897 21.069-54.918 21.069-75.987 0-21.069-21.069-21.069-55.091 0-76.16l93.257-93.257h-95.33c-29.531 0-53.709-24.005-53.709-53.709 0-29.704 24.178-53.709 53.709-53.709h107.073v-53.709h-107.073c-29.531 0-53.709-24.178-53.709-53.709 0-29.704 24.178-53.709 53.709-53.709h107.073v-70.806c-0.173-29.704 24.005-53.709 53.709-53.709v0 0z"  horiz-adv-x="1024" />

    
    </font>
</defs>
</svg>
