<?xml version="1.0" standalone="no"?>
<!DOCTYPE svg PUBLIC "-//W3C//DTD SVG 1.1//EN" "http://www.w3.org/Graphics/SVG/1.1/DTD/svg11.dtd" >
<svg xmlns="http://www.w3.org/2000/svg">
<metadata>
Created by FontForge 20120731 at Fri Mar  4 16:39:44 2016
 By Ads
</metadata>
<defs>
<font id="iconfont" horiz-adv-x="1024" >
  <font-face 
    font-family="iconfont"
    font-weight="500"
    font-stretch="normal"
    units-per-em="1024"
    panose-1="2 0 6 3 0 0 0 0 0 0"
    ascent="896"
    descent="-128"
    x-height="792"
    bbox="-0.4 -129.306 1026.01 896.528"
    underline-thickness="50"
    underline-position="-100"
    unicode-range="U+0078-E6A7"
  />
<missing-glyph horiz-adv-x="374" 
d="M34 0v682h272v-682h-272zM68 34h204v614h-204v-614z" />
    <glyph glyph-name=".notdef" horiz-adv-x="374" 
d="M34 0v682h272v-682h-272zM68 34h204v614h-204v-614z" />
    <glyph glyph-name=".null" horiz-adv-x="0" 
 />
    <glyph glyph-name="nonmarkingreturn" horiz-adv-x="341" 
 />
    <glyph glyph-name="x" unicode="x" horiz-adv-x="1001" 
d="M281 543q-27 -1 -53 -1h-83q-18 0 -36.5 -6t-32.5 -18.5t-23 -32t-9 -45.5v-76h912v41q0 16 -0.5 30t-0.5 18q0 13 -5 29t-17 29.5t-31.5 22.5t-49.5 9h-133v-97h-438v97zM955 310v-52q0 -23 0.5 -52t0.5 -58t-10.5 -47.5t-26 -30t-33 -16t-31.5 -4.5q-14 -1 -29.5 -0.5
t-29.5 0.5h-32l-45 128h-439l-44 -128h-29h-34q-20 0 -45 1q-25 0 -41 9.5t-25.5 23t-13.5 29.5t-4 30v167h911zM163 247q-12 0 -21 -8.5t-9 -21.5t9 -21.5t21 -8.5q13 0 22 8.5t9 21.5t-9 21.5t-22 8.5zM316 123q-8 -26 -14 -48q-5 -19 -10.5 -37t-7.5 -25t-3 -15t1 -14.5
t9.5 -10.5t21.5 -4h37h67h81h80h64h36q23 0 34 12t2 38q-5 13 -9.5 30.5t-9.5 34.5q-5 19 -11 39h-368zM336 498v228q0 11 2.5 23t10 21.5t20.5 15.5t34 6h188q31 0 51.5 -14.5t20.5 -52.5v-227h-327z" />
    <glyph glyph-name="uniE600" unicode="&#xe600;" 
d="M651 375q53 60 53 143v104q0 86 -56 147t-136 61q-52 0 -96.5 -28t-70 -75.5t-25.5 -104.5v-104q0 -17 2.5 -33t7 -31t11 -29t14.5 -26.5t18 -23.5q-38 -23 -68.5 -56t-52 -75.5t-28.5 -89.5q0 -42 19.5 -78t52.5 -57t72 -21h288q60 0 102 45.5t42 110.5
q-7 47 -28.5 89.5t-52 75.5t-68.5 56zM448 598q0 50 13.5 78t50.5 28q13 0 23 -3.5t16.5 -11t11 -17t7 -22t3.5 -24.5t1 -28v-50q0 -50 -12.5 -77t-49.5 -27t-51.5 28t-14.5 76zM674 154q0 -10 -4.5 -16.5t-15 -8.5t-17.5 -2.5t-21 -0.5h-200q-15 0 -22 0.5t-19 2.5
t-17.5 8.5t-5.5 16.5q14 79 60 122.5t100 43.5q14 0 30.5 -5.5t32.5 -14.5t31.5 -22.5t28.5 -29.5t23.5 -36t15.5 -42v-16zM177 234q34 55 86 94q-4 6 -7 13t-7 14q-27 8 -43 31t-16 52v88q0 29 16 52t43 31q-6 32 9 87l2 6q-21 0 -42.5 -4.5t-41 -13.5t-37 -21t-31.5 -27
t-24 -32.5t-15.5 -37.5t-5.5 -40l2 -88q0 -33 14.5 -62t40.5 -55q-95 -50 -120 -191q0 -55 41 -93.5t98 -38.5h64q-29 24 -57 128h-7q-8 0 -11.5 0.5t-4.5 3t-0.5 5t1.5 9t1 12.5q4 20 19 42.5t33 35.5zM904 321q55 55 55 117l2 88q0 47 -28 88t-73.5 64.5t-95.5 23.5
q1 0 5 -17.5t6 -38.5t0 -37q27 -8 43 -31t16 -52v-88q0 -10 -1.5 -19t-5 -17.5t-9 -15.5t-12 -13t-14.5 -10.5t-17 -7.5q-7 -15 -14 -27q52 -39 86 -94q18 -13 33 -35.5t19 -42.5q0 -7 1.5 -14.5t1 -10t-4 -4t-12.5 -1.5h-7q-28 -104 -57 -128h64q57 0 98 38.5t41 93.5
q-12 66 -40.5 115t-79.5 76z" />
    <glyph glyph-name="uniE601" unicode="&#xe601;" 
d="M896 896h-768q-53 0 -90.5 -37.5t-37.5 -90.5v-768q0 -53 37.5 -90.5t90.5 -37.5h768q53 0 90.5 37.5t37.5 90.5v768q0 53 -37.5 90.5t-90.5 37.5zM832 288q0 -93 -65.5 -158.5t-158.5 -65.5h-192q-13 0 -22.5 9.5t-9.5 22.5v416h128v-320h64q53 0 90.5 37.5t37.5 90.5
v128q0 53 -37.5 90.5t-90.5 37.5h-256v-480q0 -13 -9.5 -22.5t-22.5 -9.5h-64q-13 0 -22.5 9.5t-9.5 22.5v576q0 13 9.5 22.5t22.5 9.5h384q93 0 158.5 -65.5t65.5 -158.5v-192z" />
    <glyph glyph-name="uniE602" unicode="&#xe602;" 
d="M608 704h-384q-13 0 -22.5 -9.5t-9.5 -22.5v-576q0 -13 9.5 -22.5t22.5 -9.5h64q13 0 22.5 9.5t9.5 22.5v480h256q53 0 90.5 -37.5t37.5 -90.5v-128q0 -53 -37.5 -90.5t-90.5 -37.5h-64v320h-128v-416q0 -13 9.5 -22.5t22.5 -9.5h192q93 0 158.5 65.5t65.5 158.5v192
q0 93 -65.5 158.5t-158.5 65.5zM896 896h-768q-53 0 -90.5 -37.5t-37.5 -90.5v-768q0 -53 37.5 -90.5t90.5 -37.5h768q53 0 90.5 37.5t37.5 90.5v768q0 53 -37.5 90.5t-90.5 37.5zM896 64q0 -26 -19 -45t-45 -19h-640q-26 0 -45 19t-19 45v640q0 26 19 45t45 19h640
q26 0 45 -19t19 -45v-640z" />
    <glyph glyph-name="uniE603" unicode="&#xe603;" 
d="M512 896q-139 0 -257 -68.5t-186.5 -186.5t-68.5 -257t68.5 -257t186.5 -186.5t257 -68.5t257 68.5t186.5 186.5t68.5 257t-68.5 257t-186.5 186.5t-257 68.5zM509 83q-28 1 -46 18.5t-17.5 45.5t20 44.5t47.5 16.5q28 -1 46 -19t17 -46q-1 -43 -41 -56q-12 -4 -26 -4z
M676 428q-4 -6 -13.5 -14.5t-19 -16t-25.5 -19.5l-30 -20q-27 -20 -33 -39q-4 -12 -5 -28q0 -1 -0.5 -2.5t-1.5 -3t-3 -2t-5 -0.5h-85q-11 0 -10 8q0 22 1.5 33.5t5 24.5t10.5 21q6 6 13.5 13t15.5 13t16 12.5t15.5 11t13 8.5t9.5 6l3 2q13 10 22 22q18 25 18 44
q0 14 -4 26.5t-13 23.5q-16 23 -61 23q-44 0 -62 -28q-6 -9 -10.5 -19t-6.5 -20q0 -12 -4 -15.5t-13 -3.5h-82q-5 0 -7 3.5t-4 13.5q9 90 74 130q23 14 50.5 21t59.5 7q86 0 142.5 -39.5t56.5 -116.5q-1 -43 -28 -80z" />
    <glyph glyph-name="uniE604" unicode="&#xe604;" 
d="M647.5 624.5q-56.5 39.5 -142.5 39.5q-16 0 -31 -1.5t-29 -5t-26.5 -9t-23.5 -12.5q-65 -40 -74 -130q2 -10 4 -13.5t7 -3.5h82q4 0 6 0.5t4.5 1.5t3.5 3t2 5.5t1 8.5q5 20 17 39q18 28 62 28q45 0 61 -22q9 -12 13 -24.5t4 -26.5q0 -20 -18 -44q-9 -12 -22 -22
q-1 0 -2.5 -1t-5.5 -3.5t-8.5 -5.5t-10.5 -7.5t-12 -8.5t-13 -9.5t-12.5 -10t-11.5 -10.5l-10 -10q-10 -11 -13 -28.5t-4 -50.5v-3q0 -1 1 -2.5t3.5 -2t5.5 -0.5h85q3 0 5 0.5t3 2t1.5 3t0.5 2.5q1 10 2 16t3 12q6 19 33 39l30 20q6 5 11 8.5t10.5 8t9.5 7.5t8.5 7t7.5 7
l6 6q3 3 5 6q6 8 11 17t9 19t6 21t2 23q0 77 -56.5 116.5zM512 896q-139 0 -257 -68.5t-186.5 -186.5t-68.5 -257t68.5 -257t186.5 -186.5t257 -68.5t257 68.5t186.5 186.5t68.5 257t-68.5 257t-186.5 186.5t-257 68.5zM512 0q-159 0 -271.5 112.5t-112.5 271.5t112.5 271.5
t271.5 112.5t271.5 -112.5t112.5 -271.5t-112.5 -271.5t-271.5 -112.5zM513 208q-28 0 -47.5 -16.5t-20 -44.5t17.5 -45.5t46 -18.5t47.5 15.5t20 44.5t-17.5 46t-46 19z" />
    <glyph glyph-name="uniE605" unicode="&#xe605;" 
d="M1024 512q0 -36 -33 -55l-95 -55v-210q0 -52 -30.5 -99.5t-82 -82t-122.5 -54.5t-149 -20t-149 20t-122.5 54.5t-82 82t-30.5 99.5v210l-96 54q-3 2 -8.5 5t-14.5 17t-9 34q0 36 33 55l447 256q2 1 5.5 2.5t12 4t14.5 2.5h6q4 0 7 -1l6 -2q3 -1 5 -2t4 -1.5t3 -1.5l1 -1
l448 -256q3 -1 8.5 -4t14.5 -17t9 -34zM256 192q0 -53 75 -90.5t181 -37.5t181 37.5t75 90.5v136l-225 -127q-16 -9 -31 -9q-8 0 -16 2.5t-15 6.5l-225 127v-136zM512 694l-256 -146v-72l256 -146l256 146v72z" />
    <glyph glyph-name="uniE606" unicode="&#xe606;" 
d="M864 896h-672q-80 0 -136 -56t-56 -136v-672q0 -66 47 -113t113 -47h544q26 0 45 19t19 45v576q0 26 -19 45t-45 19h-474h-2q-3 -1 -4 -1q-40 0 -68 28.5t-28 68.5q0 39 27.5 67t66.5 29h546q9 0 17 -2.5t15 -6.5t13 -10t10 -13t6.5 -15t2.5 -17v-128v-576q0 -26 19 -45
t45 -19t45 19t19 45v800q0 26 -13 48t-35 35t-48 13z" />
    <glyph glyph-name="uniE607" unicode="&#xe607;" 
d="M864 896h-672q-80 0 -136 -56t-56 -136v-672q0 -66 47 -113t113 -47h544q26 0 45 19t19 45v576q0 26 -19 45t-45 19h-474h-2q-3 -1 -4 -1q-40 0 -68 28.5t-28 68.5q0 39 27.5 67t66.5 29h546q9 0 17 -2.5t15 -6.5t13 -10t10 -13t6.5 -15t2.5 -17v-128v-576q0 -26 19 -45
t45 -19t45 19t19 45v800q0 26 -13 48t-35 35t-48 13zM254 448h344q26 0 34 -8.5t8 -35.5v-360q0 -27 -8.5 -35.5t-35.5 -8.5h-404q-26 0 -45 19t-19 45v418l18 -13q42 -21 108 -21z" />
    <glyph glyph-name="uniE608" unicode="&#xe608;" 
d="M832 65q0 -27 -19 -45.5t-45 -18.5h-576q-26 0 -45 18.5t-19 45.5v576q0 26 19 45t45 19h384v128h-448q-53 0 -90.5 -37.5t-37.5 -90.5v-704q0 -53 37.5 -90.5t90.5 -37.5h704q53 0 90.5 37.5t37.5 90.5v448h-128v-384zM250 129l136 45l498 498l-91 90l-498 -498z
M1006 839l-45 45q-10 10 -23 10t-23 -10l-77 -77l91 -90l77 77q4 4 6 8.5t3 9.5t0 9.5t-3 9.5t-6 8z" />
    <glyph glyph-name="uniE609" unicode="&#xe609;" 
d="M256 896h512q51 0 89.5 -38t38.5 -90v-796q1 -54 -14 -77t-50 -23q-6 0 -14 0.5t-18 3t-20 6t-21 8.5t-20 11q-110 62 -160 89q-30 15 -68.5 14.5t-67.5 -14.5q-104 -56 -158 -89q-8 -5 -15.5 -9.5t-14.5 -7.5t-12.5 -5t-11 -3.5t-10 -2t-8.5 -1t-7 -0.5h-6h-4
q-71 0 -68 100v796q0 33 17.5 62.5t47 47.5t63.5 18z" />
    <glyph glyph-name="uniE60A" unicode="&#xe60a;" 
d="M768 768v-737q-78 45 -128 72q-19 10 -39 16.5t-42.5 10t-45.5 3.5q-69 0 -126 -28l-2 -1l-2 -1q-68 -37 -127 -71v734v2h510q1 -1 1.5 -1t0.5 1zM768 896h-512q-52 0 -90 -38.5t-38 -89.5v-796q-3 -100 68 -100h3h7q36 0 79 29q54 33 158 89q30 15 70 15q39 0 66 -15
q52 -28 160 -89q14 -9 31 -15.5t31.5 -10t25.5 -3.5h3h2q35 0 50 23t14 77v796q0 34 -18 63.5t-47.5 47t-62.5 17.5z" />
    <glyph glyph-name="uniE60B" unicode="&#xe60b;" 
d="M512 896q-139 0 -257 -68.5t-186.5 -186.5t-68.5 -257t68.5 -257t186.5 -186.5t257 -68.5t257 68.5t186.5 186.5t68.5 257t-68.5 257t-186.5 186.5t-257 68.5zM320 640q26 0 45 -19t19 -45t-19 -45t-45 -19q-27 0 -45.5 18.5t-18.5 45.5t18.5 45.5t45.5 18.5zM752 234v-1
l-1 -1v-1v-1q-28 -74 -93 -120t-146 -46q-54 0 -102 21.5t-83 59t-53 85.5q-1 1 -1 2l-1 1v1q-4 12 -4 22q0 17 8.5 32t23.5 23.5t32 8.5q20 0 36 -11t23 -29q13 -39 46 -63.5t75 -24.5t75 24.5t46 63.5q3 7 7 13t10 11t12.5 8.5t14 5.5t15.5 2q27 0 45.5 -19t18.5 -45
q0 -5 -1 -10.5t-3 -11.5zM704 512q-26 0 -45 19t-19 45t19 45t45 19t45 -19t19 -45t-19 -45t-45 -19z" />
    <glyph glyph-name="uniE60C" unicode="&#xe60c;" 
d="M320 512q26 0 45 19t19 45t-19 45t-45 19t-45 -19t-19 -45t19 -45t45 -19zM704 640q-26 0 -45 -19t-19 -45t19 -45t45 -19t45 19t19 45t-19 45t-45 19zM512 896q-139 0 -257 -68.5t-186.5 -186.5t-68.5 -257t68.5 -257t186.5 -186.5t257 -68.5t257 68.5t186.5 186.5
t68.5 257t-68.5 257t-186.5 186.5t-257 68.5zM512 0q-159 0 -271.5 112.5t-112.5 271.5t112.5 271.5t271.5 112.5t271.5 -112.5t112.5 -271.5t-112.5 -271.5t-271.5 -112.5zM692 320q-21 0 -37 -12.5t-23 -31.5q-14 -37 -46.5 -60.5t-73.5 -23.5t-74 24t-46 62
q-5 12 -13.5 21.5t-20.5 15t-26 5.5q-13 0 -25 -5t-20.5 -13.5t-13.5 -20.5t-5 -25t5 -24v-1q27 -74 92.5 -120.5t146.5 -46.5t145.5 46t92.5 120v1q1 1 1 1.5t1 1.5t1 2h-1q2 6 3 10.5t1 9.5q0 26 -18.5 45t-45.5 19z" />
    <glyph glyph-name="uniE60D" unicode="&#xe60d;" 
d="M833 384q0 -61 -48 -100l-320 -256q-36 -28 -80 -28q-26 0 -49.5 10t-40.5 27.5t-27.5 41t-10.5 49.5v512q0 53 37.5 90.5t90.5 37.5q44 0 80 -28l320 -256q48 -39 48 -100z" />
    <glyph glyph-name="uniE60E" unicode="&#xe60e;" 
d="M512 896q-139 0 -257 -68.5t-186.5 -186.5t-68.5 -257t68.5 -257t186.5 -186.5t257 -68.5t257 68.5t186.5 186.5t68.5 257t-68.5 257t-186.5 186.5t-257 68.5zM512 0q-159 0 -271.5 112.5t-112.5 271.5t112.5 271.5t271.5 112.5t271.5 -112.5t112.5 -271.5t-112.5 -271.5
t-271.5 -112.5zM673 433l-198 131q-18 12 -39 13.5t-37 -13.5t-15 -48v-269q0 -26 11.5 -40t27.5 -14.5t30.5 3t24.5 9.5q12 9 32 22t62.5 41t70.5 46.5t28 17.5q30 20 31.5 48.5t-29.5 52.5z" />
    <glyph glyph-name="uniE60F" unicode="&#xe60f;" 
d="M512 896q-110 0 -207 -44t-169 -122l-60 58q-20 19 -45 8t-24 -38l4 -208q0 -11 5.5 -20.5t15 -15t20.5 -4.5l205 4q27 0 37 26t-9 45l-58 56q54 60 128 93.5t157 33.5q78 0 149 -30.5t122.5 -82t82 -122.5t30.5 -149t-30.5 -149.5t-82 -122.5t-122.5 -81.5t-149 -30.5
q-108 0 -198 55t-140 147q-4 12 -12.5 22t-21 16t-26.5 6q-26 0 -45 -19.5t-19 -46.5q0 -7 1.5 -13.5t4.5 -12.5l-1 -1q64 -127 186.5 -204t270.5 -77q83 0 161 26t141 73t110.5 110t73.5 141.5t26 161.5t-26 161.5t-73.5 141.5t-110.5 110t-141 73t-161 26zM512 640
q-13 0 -25 -5t-20.5 -13.5t-13.5 -20.5t-5 -25v-192q0 -26 19 -45t45 -19h192q26 0 45 19t19 45.5t-19 45t-45 18.5h-128v128q0 27 -18.5 45.5t-45.5 18.5z" />
    <glyph glyph-name="uniE610" unicode="&#xe610;" horiz-adv-x="1025" 
d="M1010 471l-115 300q-35 74 -80.5 99.5t-111.5 24.5h-575q-26 0 -49.5 -10t-41 -26.5t-27.5 -39t-10 -47.5v-392q0 -51 37.5 -87t90.5 -36h47q43 3 66 -11q15 -7 21.5 -10t24 -13.5t27.5 -21.5t23.5 -27t22 -37.5t12.5 -47.5q20 -141 48 -175q15 -24 46.5 -35t69 -2.5
t65.5 40.5q21 25 32 72.5t3.5 119t-36.5 146.5h274q24 0 44 3.5t41.5 11.5t35.5 23.5t23 38.5t7 58.5t-15 80.5zM192 384h-20q-18 0 -31 13t-13 32v294q0 19 13 32t31 13h20v-384z" />
    <glyph glyph-name="uniE611" unicode="&#xe611;" horiz-adv-x="1025" 
d="M1010 471l-115 300q-35 74 -80.5 99.5t-111.5 24.5h-575q-26 0 -49.5 -10t-41 -26.5t-27.5 -39t-10 -47.5v-392q0 -51 37.5 -87t90.5 -36h47q43 3 66 -11q17 -8 26 -12.5t29.5 -18.5t33 -29t25 -40.5t17.5 -56.5q20 -141 48 -175q15 -24 46.5 -35t69 -2.5t65.5 40.5
q21 25 32 72.5t3.5 119t-36.5 146.5h275q23 0 43 3.5t41.5 11.5t35.5 23.5t23 38.5t7 58.5t-15 80.5zM192 384h-20q-18 0 -31 13t-13 32v294q0 19 13 32t31 13h20v-384zM826 385q-7 0 -74.5 -0.5t-134.5 -0.5h-174q40 -94 73.5 -209t18.5 -158q-5 -28 -24 -29q-19 -2 -26 24
q-2 7 -2 15q-19 226 -164 329v412h319q22 0 32.5 -0.5t28 -4t27.5 -10t22.5 -19.5t22.5 -33q7 -13 16 -33.5t18 -42.5t18.5 -45.5t17.5 -44.5t14 -38t10 -27l4 -10q9 -28 5 -44.5t-16 -23.5t-32 -7z" />
    <glyph glyph-name="uniE612" unicode="&#xe612;" 
d="M352 896h-256q-40 0 -68 -28t-28 -68v-256q0 -40 28 -68t68 -28h256q40 0 68 28t28 68v256q0 40 -28 68t-68 28zM928 896h-256q-40 0 -68 -28t-28 -68v-256q0 -40 28 -68t68 -28h256q40 0 68 28t28 68v256q0 40 -28 68t-68 28zM352 320h-256q-40 0 -68 -28t-28 -68v-256
q0 -40 28 -68t68 -28h256q40 0 68 28t28 68v256q0 40 -28 68t-68 28zM928 320h-256q-40 0 -68 -28t-28 -68v-256q0 -40 28 -68t68 -28h256q40 0 68 28t28 68v256q0 40 -28 68t-68 28z" />
    <glyph glyph-name="uniE613" unicode="&#xe613;" 
d="M33 566l439 -216q20 -12 40 -12t40 12l439 216q33 19 33 52t-33 52l-439 216q-17 10 -40 10q-20 0 -40 -12l-439 -214q-33 -19 -33 -52t33 -52zM951 446q-4 0 -8 -1t-7.5 -2t-7.5 -2.5t-7 -2.5t-5.5 -2t-3.5 -2l-2 -1l-398 -190l-399 193q-24 15 -40 16q-35 5 -54 -17.5
t-19 -52.5q0 -33 33 -52l439 -216q20 -12 40 -12q11 0 20.5 3t19.5 9l439 210q14 8 23.5 23.5t9.5 32.5q0 27 -22 48t-51 18zM951 216q-10 -1 -20 -4.5t-15 -5.5l-6 -3l-398 -190l-399 193q-24 15 -40 16q-35 5 -54 -17.5t-19 -52.5q0 -11 4.5 -21t11.5 -17.5t17 -13.5
l439 -216q5 -3 9.5 -5t9.5 -3.5t10.5 -2.5t10.5 -1q20 0 40 12l439 210q14 8 23.5 23.5t9.5 32.5q0 28 -22 49t-51 17z" />
    <glyph glyph-name="uniE614" unicode="&#xe614;" 
d="M33 566l439 -216q20 -12 40 -12t40 12l439 216q33 19 33 52t-33 52l-439 216q-17 10 -40 10q-20 0 -40 -12l-439 -214q-33 -19 -33 -52t33 -52zM512 757l307 -139l-307 -139l-307 139zM951 446q-4 0 -8 -1t-7.5 -2t-7.5 -2.5t-7 -2.5t-5.5 -2t-3.5 -2l-2 -1l-398 -190
l-399 193q-24 15 -40 16q-35 5 -54 -17.5t-19 -52.5q0 -33 33 -52l439 -216q10 -6 19.5 -9t20.5 -3t20.5 3t19.5 9l439 210q14 8 23.5 23.5t9.5 32.5q0 27 -22 48t-51 18zM951 216q-10 -1 -20 -4.5t-15 -5.5l-6 -3l-398 -190l-399 193q-24 15 -40 16q-35 5 -54 -17.5
t-19 -52.5q0 -11 4.5 -21t11.5 -17.5t17 -13.5l439 -216q5 -3 9.5 -5t9.5 -3.5t10.5 -2.5t10.5 -1q20 0 40 12l439 210q14 8 23.5 23.5t9.5 32.5q0 28 -22 49t-51 17z" />
    <glyph glyph-name="uniE615" unicode="&#xe615;" 
d="M512 896q-139 0 -257 -68.5t-186.5 -186.5t-68.5 -257t68.5 -257t186.5 -186.5t257 -68.5t257 68.5t186.5 186.5t68.5 257t-68.5 257t-186.5 186.5t-257 68.5zM685 301q6 -6 10 -13t6.5 -15t2.5 -17q0 -26 -19 -45t-45 -19t-45 19l-83 83l-83 -83q-9 -9 -20.5 -14
t-24.5 -5q-26 0 -45 19t-19 45q0 13 5 24.5t14 20.5l83 83l-83 83q-19 19 -19 45t19 45t45 19q9 0 17 -2.5t15 -6.5t13 -10l83 -82l83 82q19 19 45 19q9 0 17 -2.5t15 -6.5t13 -10t10 -13t6.5 -15t2.5 -17t-2.5 -17t-6.5 -15t-10 -13l-83 -83z" />
    <glyph glyph-name="uniE616" unicode="&#xe616;" 
d="M512 896q-139 0 -257 -68.5t-186.5 -186.5t-68.5 -257t68.5 -257t186.5 -186.5t257 -68.5t257 68.5t186.5 186.5t68.5 257t-68.5 257t-186.5 186.5t-257 68.5zM512 0q-159 0 -271.5 112.5t-112.5 271.5t112.5 271.5t271.5 112.5t271.5 -112.5t112.5 -271.5t-112.5 -271.5
t-271.5 -112.5zM704 512q0 26 -19 45t-45 19t-45 -19l-83 -82l-83 82q-9 9 -20.5 14t-24.5 5t-25 -5t-20.5 -13.5t-13.5 -20.5t-5 -25q0 -4 0.5 -8.5t1.5 -8.5t3 -8t4 -7.5t4.5 -6.5t5.5 -6l83 -83l-83 -83q-19 -18 -19 -44.5t19 -45.5t45 -19q9 0 17 2.5t15 6.5t13 10
l83 83l83 -83q19 -19 45 -19t45 19t19 45t-19 45l-83 83l83 83q19 19 19 45z" />
    <glyph glyph-name="uniE617" unicode="&#xe617;" 
d="M77 545q37 -114 91 -211.5t110 -163.5t119.5 -119.5t117.5 -85t105.5 -53t82 -29.5t48.5 -9q68 -8 123 14.5t91 68.5t54 111q3 13 4.5 23t-0.5 18.5t-4.5 14t-9 12t-12.5 11t-18 11.5q-33 22 -68.5 42t-66.5 34q-14 7 -26 10t-20 2t-15.5 -5.5t-11 -8.5t-8.5 -9
q-66 -72 -76 -83q-10 -10 -15.5 -14.5t-16.5 -6t-23 6.5q-75 33 -182 148q-114 124 -140 209q-6 19 13 45l5 6l7 7t6 6.5t7 7.5t6 7t7 7.5t6.5 7t6.5 7.5l7 7q21 27 24.5 43.5t-4.5 50.5q-11 46 -27.5 85t-39.5 72.5t-56 47t-70 0.5q-36 -12 -64.5 -41t-45.5 -66t-26 -79
t-7.5 -83.5t12.5 -75.5z" />
    <glyph glyph-name="uniE618" unicode="&#xe618;" 
d="M896 896h-768q-53 0 -90.5 -37.5t-37.5 -90.5v-576q0 -53 37.5 -90.5t90.5 -37.5h320v-64h-128q-26 0 -45 -19t-19 -45t19 -45t45 -19h384q26 0 45 19t19 45t-19 45t-45 19h-128v64h320q53 0 90.5 37.5t37.5 90.5v576q0 53 -37.5 90.5t-90.5 37.5zM896 256q0 -26 -19 -45
t-45 -19h-640q-26 0 -45 19t-19 45v448q0 26 19 45t45 19h640q26 0 45 -19t19 -45v-448z" />
    <glyph glyph-name="uniE619" unicode="&#xe619;" 
d="M959 703h-29l1 2q21 30 20.5 66t-23.5 64q-42 50 -133 59.5t-176 -25.5q-59 -24 -95 -70q-1 1 -2 1h-1l-1 1h-1h-6h-5h-2t-2.5 -0.5t-1.5 -0.5t-2 -1q-35 45 -97 70q-57 22 -117 26t-111.5 -11.5t-78.5 -48.5q-23 -28 -23.5 -65t20.5 -67h-28q-27 0 -45.5 -19t-18.5 -45
v-192q0 -26 18.5 -45t45.5 -19v-383q0 -53 37.5 -90.5t89.5 -37.5h640q52 0 89.5 37.5t37.5 90.5v383q27 0 45.5 19t18.5 45v192q0 26 -18.5 45t-45.5 19zM618 729q6 8 12 14t14 12t18.5 10t24.5 7q18 5 42.5 5t46.5 -4t33 -12q14 -8 17 -21t-1 -23t-10 -14h-205q-4 10 8 26
zM217 761q15 11 49.5 14.5t64.5 -3.5q50 -14 73 -43q3 -4 5.5 -8t3 -7t1 -5.5t-0.5 -4.5v-1h-205q-3 2 -6 8.5t-4.5 14.5t3.5 18t16 17zM832 64q0 -18 -9 -32.5t-23.5 -23t-31.5 -8.5h-512q-26 0 -45 18.5t-19 45.5v255h640v-255zM895 447h-766v96q0 13 9 22.5t23 9.5h702
q14 0 23 -9.5t9 -22.5v-96z" />
    <glyph glyph-name="uniE61A" unicode="&#xe61a;" 
d="M512 896q-139 0 -257 -68.5t-186.5 -186.5t-68.5 -257v-384q0 -53 37.5 -90.5t90.5 -37.5t90.5 37.5t37.5 90.5v192q0 53 -37.5 90.5t-90.5 37.5v64q0 159 112.5 271.5t271.5 112.5t271.5 -112.5t112.5 -271.5v-64q-53 0 -90.5 -37.5t-37.5 -90.5v-192q0 -53 37.5 -90.5
t90.5 -37.5t90.5 37.5t37.5 90.5v384q0 139 -68.5 257t-186.5 186.5t-257 68.5z" />
    <glyph glyph-name="uniE61B" unicode="&#xe61b;" 
d="M995 37l-169 169q71 111 71 241q0 91 -35.5 174t-95.5 143t-143 95.5t-174 35.5t-174 -35.5t-143 -95.5t-95.5 -143t-35.5 -174t35.5 -174t95.5 -143t143 -95.5t174 -35.5q129 0 241 71l169 -169q11 -11 25 -18t28.5 -9t29 0t28.5 9t25 18q28 28 28 68t-28 68zM449 127
q-87 0 -160.5 43t-116.5 116.5t-43 160.5t43 160.5t116.5 116.5t160.5 43t160.5 -43t116.5 -116.5t43 -160.5q0 -132 -94 -226t-226 -94zM577 511h-64v64q0 27 -19 45.5t-45.5 18.5t-45 -18.5t-18.5 -45.5v-64h-64q-17 0 -32 -8.5t-23.5 -23.5t-8.5 -32t8.5 -32t23.5 -23.5
t32 -8.5h64v-64q0 -17 8.5 -32t23.5 -23.5t32 -8.5q26 0 45 19t19 45v64h64q26 0 45 19t19 45.5t-19 45t-45 18.5z" />
    <glyph glyph-name="uniE61C" unicode="&#xe61c;" 
d="M224 512q-66 0 -113 -47t-47 -113q0 -43 21.5 -80t58.5 -58.5t80 -21.5q66 0 113 47t47 113q0 79 -62 127q-44 33 -98 33zM736 575q32 0 62 13t51.5 34.5t34 51t12.5 62.5q0 66 -47 113t-113 47q-33 0 -62.5 -12.5t-51 -34t-34.5 -51.5t-13 -62q0 -67 47 -114t114 -47z
M735.5 193q-66.5 0 -113.5 -47t-47 -114q0 -43 21.5 -80t58.5 -58.5t81 -21.5q66 0 113 47t47 113.5t-47 113.5t-113.5 47zM774 690l-77 102l-516 -389l41 -55l-32 -50l512 -320l67 109l-435 272z" />
    <glyph glyph-name="uniE61D" unicode="&#xe61d;" 
d="M192 0q-27 0 -45.5 18.5t-18.5 45.5q21 83 94 137.5t162 54.5q35 0 75 -12q16 54 54.5 91t89.5 46q12 20 20 40.5t12.5 43.5t4.5 47v128q0 106 -75 181t-181 75t-181 -75t-75 -181v-128q0 -102 71 -176q-77 -43 -131 -114.5t-68 -157.5q0 -79 56 -135.5t136 -56.5h384
q28 0 59 10q-64 70 -105 118h-338zM256 640q0 53 37.5 90.5t90.5 37.5t90.5 -37.5t37.5 -90.5v-128q0 -53 -37.5 -90.5t-90.5 -37.5t-90.5 37.5t-37.5 90.5v128zM888 321q-38 0 -70.5 -21t-49.5 -56q-17 35 -49.5 56t-70.5 21q-37 0 -68.5 -19.5t-49.5 -53t-18 -72.5
q0 -36 16 -67q0 -1 1.5 -3t2.5 -4t3 -5l4 -6q3 -5 6.5 -9t6.5 -8q27 -32 73.5 -81.5t95.5 -99.5q19 -20 47 -20t47 20q49 50 95.5 99.5t73.5 81.5q2 2 4.5 5t4.5 6l4 6q3 4 11 18q8 15 12 32t4 35q0 30 -11 56.5t-29 46t-43 31t-53 11.5z" />
    <glyph glyph-name="uniE61E" unicode="&#xe61e;" 
d="M196 338l184 184q18 17 42 17q26 0 45 -18.5t19 -45.5q0 -18 -13 -36l-178 -180l1 -1q-17 -19 -17 -42q0 -26 18.5 -45t45.5 -19q8 0 15.5 2t14 6t12.5 9l1 -1l172 172l2 2q2 2 2 3l3 2q49 56 49 128q0 80 -56 136t-136 56q-70 0 -125 -48l-1 1l-5 -5q0 -1 -2 -2.5
t-3 -2.5l-181 -181zM1024 576q0 133 -93.5 226.5t-226.5 93.5q-117 0 -207 -77l1 -1q-6 -6 -10.5 -13t-7 -15.5t-2.5 -17.5q0 -27 19 -45.5t45 -18.5q8 0 15 2t13.5 5.5t11.5 7.5h1q54 45 121 45q80 0 136 -56t56 -136q0 -88 -68 -146l-362 -362q-27 -32 -65 -50t-81 -18
q-52 0 -96.5 25.5t-70 70t-25.5 96.5q0 88 68 146l-90 90q-50 -45 -78 -106t-28 -130q0 -87 43 -160.5t116.5 -116.5t160.5 -43q69 0 129.5 28t105.5 77l364 364q49 45 77 105.5t28 129.5z" />
    <glyph glyph-name="uniE61F" unicode="&#xe61f;" 
d="M704 -128h-384q-80 0 -136 56.5t-56 135.5q3 33 18 66.5t37 62t51 56t58.5 48.5t60.5 39q-29 18 -63 67.5t-34 108.5v128q0 106 75 181t181 75t181 -75t75 -181v-128q1 -32 -10.5 -63t-29 -53.5t-32.5 -37.5t-27 -22q84 -47 148.5 -118.5t78.5 -153.5q0 -79 -56.5 -135.5
t-135.5 -56.5z" />
    <glyph glyph-name="uniE620" unicode="&#xe620;" 
d="M704 -128h-384q-80 0 -136 56.5t-56 135.5q14 86 68 157.5t131 114.5q-71 74 -71 176v128q0 106 75 181t181 75t181 -75t75 -181v-128q0 -102 -71 -176q77 -43 131 -114.5t68 -157.5q0 -79 -56.5 -135.5t-135.5 -56.5zM640 512v128q0 53 -37.5 90.5t-90.5 37.5
t-90.5 -37.5t-37.5 -90.5v-128q0 -53 37.5 -90.5t90.5 -37.5t90.5 37.5t37.5 90.5zM768 64q-21 83 -94 137.5t-162 54.5v0q-89 0 -162 -54.5t-94 -137.5q0 -27 18.5 -45.5t45.5 -18.5h384q27 0 45.5 18.5t18.5 45.5z" />
    <glyph glyph-name="uniE621" unicode="&#xe621;" 
d="M128 512q-53 0 -90.5 -37.5t-37.5 -90.5t37.5 -90.5t90.5 -37.5t90.5 37.5t37.5 90.5t-37.5 90.5t-90.5 37.5zM512 512q-53 0 -90.5 -37.5t-37.5 -90.5t37.5 -90.5t90.5 -37.5t90.5 37.5t37.5 90.5t-37.5 90.5t-90.5 37.5zM896 512q-53 0 -90.5 -37.5t-37.5 -90.5
t37.5 -90.5t90.5 -37.5t90.5 37.5t37.5 90.5t-37.5 90.5t-90.5 37.5z" />
    <glyph glyph-name="uniE622" unicode="&#xe622;" 
d="M943 640h-625q-10 0 -17.5 6t-9.5 15l-36 141q-1 7 -5 12.5t-9 9.5t-11.5 6t-12.5 2h-152q-18 -1 -32.5 -9.5t-23 -23t-8.5 -31.5q0 -26 18.5 -44.5t45.5 -19.5h67q11 0 19 -6.5t10 -17.5l117 -552q5 -28 27.5 -46t51.5 -18h488q28 0 50 18t28 45l99 419q7 36 -17 65
t-62 29zM383 0q-27 0 -46 -19t-19 -45t19 -45t46 -19t46 19t19 45t-19 45t-46 19zM838 0q-27 0 -46 -19t-19 -45t19 -45t46 -19q18 0 33 8.5t23.5 23.5t8.5 32t-8.5 32t-23.5 23.5t-33 8.5z" />
    <glyph glyph-name="uniE623" unicode="&#xe623;" 
d="M383 0q-27 0 -46 -19t-19 -45t19 -45t46 -19t46 19t19 45t-19 45t-46 19zM838 0q-27 0 -46 -19t-19 -45t19 -45t46 -19q18 0 33 8.5t23.5 23.5t8.5 32t-8.5 32t-23.5 23.5t-33 8.5zM943 640h-625q-10 0 -17.5 6t-9.5 15l-36 141q-1 7 -5 12.5t-9 9.5t-11.5 6t-12.5 2
h-152q-27 -1 -45.5 -19.5t-18.5 -44.5t18.5 -44.5t45.5 -19.5h67q7 0 13.5 -3t10.5 -8.5t5 -12.5l117 -552q5 -28 27.5 -46t51.5 -18h488q11 0 21.5 3t20 8.5t17 13.5t12.5 17.5t7 20.5l99 419q3 18 -1.5 35t-15.5 30t-27 21t-35 8zM809 192h-427l-61 322h571z" />
    <glyph glyph-name="uniE624" unicode="&#xe624;" 
d="M960 448h-384v384q0 26 -19 45t-45 19t-45 -19t-19 -45v-384h-384q-26 0 -45 -19t-19 -45t19 -45t45 -19h384v-384q0 -26 19 -45t45 -19t45 19t19 45v384h384q26 0 45 19t19 45t-19 45t-45 19z" />
    <glyph glyph-name="uniE625" unicode="&#xe625;" 
d="M297 0h-105q-27 0 -45.5 18.5t-18.5 45.5q21 83 94 137.5t162 54.5q25 0 56 -7q38 23 80 39.5t85 24.5q-18 12 -36 23q71 74 71 176v128q0 106 -75 181t-181 75t-181 -75t-75 -181v-128q0 -102 71 -176q-77 -43 -131 -114.5t-68 -157.5q0 -79 56 -135.5t136 -56.5h260
q-95 54 -155 128zM256 640q0 53 37.5 90.5t90.5 37.5t90.5 -37.5t37.5 -90.5v-128q0 -53 -37.5 -90.5t-90.5 -37.5t-90.5 37.5t-37.5 90.5v128zM704 256q-62 0 -124 -24.5t-103 -57.5t-67 -64t-26 -46t26 -46t67 -64t103 -57.5t124 -24.5t124 24.5t103 57.5t67 64t26 46
t-26 46t-67 64t-103 57.5t-124 24.5zM704 -90q-66 0 -113 45t-47 109t47 109t113 45t113 -45t47 -109t-47 -109t-113 -45zM704 141q-33 0 -56.5 -22.5t-23.5 -54.5q0 -21 10.5 -38.5t29 -28t40.5 -10.5q33 0 56.5 22.5t23.5 54.5q0 21 -10.5 38.5t-29 28t-40.5 10.5z" />
    <glyph glyph-name="uniE626" unicode="&#xe626;" 
d="M960 448h-64q-1 0 -3 -0.5t-3 -0.5q-15 88 -66 160l2 1t3 2l45 45q6 7 10.5 14.5t6.5 15t2 16t-2 16.5t-6.5 15.5t-10.5 13.5t-13.5 10.5t-15.5 6.5t-16.5 2t-16 -2t-15 -6.5t-13.5 -10.5l-46 -45q-1 -1 -2 -3l-1 -2q-72 51 -160 66v2q1 3 1 4v64q0 26 -19 45t-45 19
q-13 0 -25 -5t-20.5 -13.5t-13.5 -20.5t-5 -25v-64q0 -1 1 -4v-2q-44 -8 -84.5 -24.5t-75.5 -41.5l-1 2l-2 3l-46 45q-18 19 -44.5 19t-45.5 -19t-19 -45.5t19 -44.5l45 -46q1 -1 3 -2l2 -1q-51 -72 -66 -160q-1 0 -3 0.5t-3 0.5h-64q-26 0 -45 -19t-19 -45t19 -45t45 -19
h64q1 0 3 0.5t3 0.5q15 -88 66 -160q0 -1 -2 -1.5t-3 -1.5l-45 -46q-19 -18 -19 -44.5t19 -45.5t45.5 -19t44.5 19l46 45q0 1 2 3l1 2q72 -51 160 -66q0 -1 -0.5 -3t-0.5 -3v-64q0 -26 19 -45t45 -19t45 19t19 45v64q0 1 -1 4v2q88 15 160 66l1 -2t2 -3l45 -45
q19 -19 45.5 -19t45.5 19t19 45.5t-19 44.5l-45 46q-1 0 -3 2q-2 0 -2 1q51 72 66 160q1 0 3 -0.5t3 -0.5h64q26 0 45 19t19 45t-19 45t-45 19zM512 128q-106 0 -181 75t-75 181t75 181t181 75t181 -75t75 -181t-75 -181t-181 -75z" />
    <glyph glyph-name="uniE627" unicode="&#xe627;" 
d="M896 64h-166l-173 -173q-6 -6 -13 -10t-15 -6.5t-17 -2.5q-13 0 -24.5 5t-20.5 14l-173 173h-166q-53 0 -90.5 37.5t-37.5 90.5v576q0 35 17 64.5t46.5 46.5t64.5 17h768q53 0 90.5 -37.5t37.5 -90.5v-576q0 -53 -37.5 -90.5t-90.5 -37.5zM896 704q0 26 -19 45t-45 19
h-640q-26 0 -45 -19t-19 -45v-448q0 -26 19 -45t45 -19h128q9 0 17 -2.5t15 -6.5t13 -10l147 -147l147 147q19 19 45 19h128q26 0 45 19t19 45v448zM704 320h-384q-26 0 -45 19t-19 45t19 45t45 19h384q26 0 45 -19t19 -45t-19 -45t-45 -19zM704 512h-384q-26 0 -45 19
t-19 45t19 45t45 19h384q26 0 45 -19t19 -45t-19 -45t-45 -19z" />
    <glyph glyph-name="uniE628" unicode="&#xe628;" 
d="M792 243q-27 -16 -69 -27t-96.5 -17.5t-114.5 -6.5q-89 0 -164 14t-116 37q-107 43 -147 109q-21 -35 -21 -64q0 -61 60 -112.5t163 -81.5t225 -30q91 0 174 18t143 48t95.5 71t35.5 87q0 29 -21 64q-19 -33 -57 -60.5t-90 -48.5zM792 435q-41 -23 -116 -37t-164 -14
t-164 14t-116 37q-108 43 -147 109q-7 -11 -11 -21t-7 -21t-3 -22q0 -61 60 -112.5t163 -81.5t225 -30q91 0 174 18t143 47.5t95.5 71t35.5 87.5q0 29 -21 64q-13 -22 -34.5 -41.5t-49.5 -36.5t-63 -31zM195 514q132 -66 317 -66t317 66q30 15 54.5 33t41.5 38t26 42t9 45
q0 6 -1 12t-2.5 12t-3.5 12q-26 80 -150.5 134t-290.5 54t-290.5 -54t-150.5 -134q-7 -20 -7 -36q0 -45 35 -87q34 -40 96 -71zM792 50q-41 -22 -116 -36t-164 -14t-164 14t-116 37q-108 43 -147 109q-21 -35 -21 -64q0 -61 60 -112.5t163 -81.5t225 -30t225 30t163 81.5
t60 112.5q0 29 -21 64q-40 -66 -147 -110z" />
    <glyph glyph-name="uniE629" unicode="&#xe629;" 
d="M195 514q132 -66 317 -66t317 66q62 31 96 71q35 41 35 87q0 6 -1 12t-2.5 12t-3.5 12q-26 80 -150.5 134t-290.5 54t-290.5 -54t-150.5 -134q-3 -10 -5 -18.5t-2 -17.5q0 -15 4 -30t12 -29.5t19 -27.5q34 -40 96 -71zM512 768q133 0 226.5 -28t93.5 -68t-93.5 -68
t-226.5 -28t-226.5 28t-93.5 68t93.5 68t226.5 28zM792 242q-41 -22 -116 -36t-164 -14t-164 14t-116 36q-107 44 -147 110q-21 -35 -21 -64q0 -61 60 -112.5t163 -81.5t225 -30t225 30t163 81.5t60 112.5q0 29 -21 64q-5 -9 -12.5 -18t-16 -17.5t-18.5 -17t-21 -16
t-24 -14.5t-26.5 -14t-28.5 -13zM792 434q-41 -22 -116 -36t-164 -14t-164 14t-116 36q-107 44 -147 110q-21 -35 -21 -64q0 -61 60 -112.5t163 -81.5t225 -30t225 30t163 81.5t60 112.5q0 29 -21 64q-40 -66 -147 -110zM792 50q-41 -22 -116 -36t-164 -14q-45 0 -87.5 3.5
t-78 10.5t-65 16t-49.5 20q-108 44 -147 110q-10 -16 -15.5 -32t-5.5 -32q0 -61 60 -112.5t163 -81.5t225 -30t225 30t163 81.5t60 112.5q0 29 -21 64q-40 -66 -147 -110z" />
    <glyph glyph-name="uniE62A" unicode="&#xe62a;" horiz-adv-x="1025" 
d="M651 312q12 14 22 30.5t17 34.5t10.5 38t3.5 40v104q0 57 -25.5 105t-70 75.5t-96.5 27.5t-96 -27.5t-70 -75.5t-26 -105v-104q0 -41 14 -77.5t40 -65.5q-59 -35 -99 -93t-51 -128q0 -64 42 -110t102 -46h288q60 0 102 46t42 110q-11 70 -51 128t-98 93zM177 172
q34 54 87 93q-4 7 -7.5 13.5t-7.5 13.5q-27 9 -43 31.5t-16 51.5v88q0 30 16 52.5t43 31.5q-1 9 -1 20.5t2 24t4 23.5t4 17l2 7q-78 0 -137.5 -52t-59.5 -124l2 -88q0 -13 2.5 -26.5t7.5 -25.5t12 -23.5t15 -21.5t18 -20q-95 -50 -120 -191q0 -54 41 -93t98 -39h64
q-29 24 -57 128h-7q-7 0 -11 1t-5 3.5t-0.5 5t1.5 8.5t1 12q5 20 19.5 43t32.5 36zM904 258q26 26 40.5 55t14.5 62l2 88q0 48 -27.5 88.5t-73.5 64t-96 23.5q1 0 5 -17.5t6 -38t0 -36.5q9 -3 17 -8t14.5 -10.5t12 -13t9 -16t5 -17.5t1.5 -19v-88q0 -29 -16 -51.5t-43 -31.5
q-2 -5 -5 -10l-4 -8q-3 -5 -5 -9q52 -38 86 -93q9 -7 17.5 -16.5t15.5 -20t12 -21.5t7 -21q0 -7 2 -16q1 -5 0.5 -8t-4 -4.5t-12.5 -1.5h-7q-7 -25 -13 -44.5t-19 -46t-25 -37.5h64q57 0 98 39t41 93q-25 141 -120 191z" />
    <glyph glyph-name="uniE62B" unicode="&#xe62b;" 
d="M609 384l389 389q10 10 15 22.5t5 25.5t-5 26t-15 23t-23 15t-26 5t-25.5 -5t-22.5 -15l-389 -389l-389 389q-20 20 -48.5 20t-48.5 -20t-20 -48.5t20 -48.5l389 -389l-389 -389q-10 -9 -15 -22t-5 -26t5 -26t15 -23q20 -20 48.5 -20t48.5 20l389 389l389 -389
q20 -20 48.5 -20t48.5 20q10 10 15 23t5 26t-5 25.5t-15 22.5z" />
    <glyph glyph-name="uniE62C" unicode="&#xe62c;" 
d="M825 336q71 74 71 176v128q0 106 -75 181t-181 75q-27 0 -57 -7q16 -13 30 -27.5t26.5 -30.5t22.5 -33.5t18 -36.5q39 -13 63.5 -46t24.5 -75v-128q0 -17 -4 -33t-12 -29.5t-19 -25t-24.5 -20t-28.5 -13.5q-1 -3 -2 -7l-4 -6q-1 -4 -3 -7t-3.5 -6.5t-3.5 -6.5t-3 -6
q72 -57 118 -136q92 -56 117 -152q0 -27 -18.5 -45.5t-45.5 -18.5h-9q-5 -19 -12.5 -36.5t-17.5 -34t-22.5 -30.5t-26.5 -27h88q79 0 135.5 56.5t56.5 135.5q-14 86 -68 157.5t-131 114.5zM569 336q71 74 71 176v128q0 106 -75 181t-181 75t-181 -75t-75 -181v-128
q0 -102 71 -176q-77 -43 -131 -114.5t-68 -157.5q0 -79 56 -135.5t136 -56.5h384q79 0 135.5 56.5t56.5 135.5q-14 86 -68 157.5t-131 114.5z" />
    <glyph glyph-name="uniE62D" unicode="&#xe62d;" 
d="M512 896q-139 0 -257 -68.5t-186.5 -186.5t-68.5 -257t68.5 -257t186.5 -186.5t257 -68.5t257 68.5t186.5 186.5t68.5 257t-68.5 257t-186.5 186.5t-257 68.5zM704 320h-384q-26 0 -45 19t-19 45t19 45t45 19h384q26 0 45 -19t19 -45t-19 -45t-45 -19z" />
    <glyph glyph-name="uniE62E" unicode="&#xe62e;" 
d="M512 896q-139 0 -257 -68.5t-186.5 -186.5t-68.5 -257t68.5 -257t186.5 -186.5t257 -68.5t257 68.5t186.5 186.5t68.5 257t-68.5 257t-186.5 186.5t-257 68.5zM512 0q-159 0 -271.5 112.5t-112.5 271.5t112.5 271.5t271.5 112.5t271.5 -112.5t112.5 -271.5t-112.5 -271.5
t-271.5 -112.5zM704 448h-384q-26 0 -45 -19t-19 -45t19 -45t45 -19h384q26 0 45 19t19 45t-19 45t-45 19z" />
    <glyph glyph-name="uniE62F" unicode="&#xe62f;" 
d="M896 768h-576q-35 0 -64 -17.5t-46 -46.5h712q15 0 26.5 -11.5t11.5 -26.5v-520q29 17 46.5 46t17.5 64v384q0 26 -10 49.5t-27.5 41t-41 27.5t-49.5 10zM768 640h-640q-53 0 -90.5 -37.5t-37.5 -90.5v-384q0 -53 37.5 -90.5t90.5 -37.5h640q53 0 90.5 37.5t37.5 90.5
v384q0 53 -37.5 90.5t-90.5 37.5zM768 166q0 -15 -11.5 -26.5t-26.5 -11.5h-564q-15 0 -26.5 11.5t-11.5 26.5v308q0 15 11.5 26.5t26.5 11.5h564q10 0 19 -5t14 -14t5 -19v-308zM448 448q-53 0 -90.5 -37.5t-37.5 -90.5t37.5 -90.5t90.5 -37.5t90.5 37.5t37.5 90.5
t-37.5 90.5t-90.5 37.5z" />
    <glyph glyph-name="uniE630" unicode="&#xe630;" 
d="M1024 417q0 -113 -68.5 -208.5t-186 -151t-256.5 -55.5h-31q-14 0 -36 1.5t-38 3.5q-21 -4 -48.5 -19.5t-61.5 -30.5t-73 -20q-3 0 -6.5 -0.5t-10.5 -0.5h-12h-14q-7 0 -13 1t-12.5 2.5t-10.5 4t-7.5 6.5t-3 9t2.5 11q26 37 37.5 64.5t9 42.5t-6.5 21.5t-13 13.5
q-2 1 -2 2q-49 34 -84 79t-56 103t-22 121q-1 85 39.5 162t109.5 132.5t164 88t199 32.5q139 0 256.5 -55.5t186 -151t68.5 -208.5z" />
    <glyph glyph-name="uniE631" unicode="&#xe631;" horiz-adv-x="1025" 
d="M514 832q-139 0 -257.5 -55t-187 -150.5t-67.5 -209.5q1 -94 44.5 -172.5t116.5 -130.5q1 -1 3 -2q4 -3 6 -5t6 -7t5 -10.5t2 -13.5t-1.5 -18t-7.5 -22.5t-14.5 -29.5t-23.5 -36q-6 -15 3.5 -23.5t29 -9.5t32 -1t23.5 1q38 5 72.5 20t62 30.5t47.5 19.5q37 -5 106 -5
q139 0 256.5 55.5t186 151t68.5 208.5q0 85 -40.5 162t-109 132.5t-163 88t-198.5 32.5zM515 118q-53 0 -79 4q-37 -2 -97 -19q-6 -2 -13.5 -3.5t-16.5 -3t-15 -0.5t-5 6q7 13 8 25t-2 21t-11 19t-14.5 16t-17.5 15q-55 37 -87.5 92.5t-33.5 122.5q-1 81 50.5 149t140.5 107
t193 39q39 0 77 -6t72 -17t65 -27t56.5 -36t46.5 -44t35.5 -50t22 -55t7.5 -60q0 -80 -51 -148t-139 -107.5t-192 -39.5z" />
    <glyph glyph-name="uniE632" unicode="&#xe632;" horiz-adv-x="1027" 
d="M789 509q110 -10 162 -44q-6 101 -70 186t-171.5 134t-232.5 49q-97 0 -185.5 -30.5t-152.5 -82t-102 -123t-37 -150.5q1 -88 41.5 -161t108.5 -121q1 -1 3 -2q8 -6 11.5 -12t6 -20.5t-8.5 -40t-35 -59.5q-6 -14 3 -22t27 -9t29.5 -1t21.5 2q36 4 68 18t57.5 28.5
t44.5 17.5q33 -4 99 -4q7 0 33 1q-11 14 -20 27t-18 29t-15.5 31.5t-10 33.5t-3.5 35q-1 61 23 113.5t68.5 92t110 62t144.5 22.5zM945 79q37 26 59 65.5t22 87.5q1 87 -75 148t-183 61t-182.5 -61t-75.5 -148t75.5 -148.5t182.5 -61.5q35 0 53 3q8 -2 44 -20q25 -12 48 -15
q7 -3 28.5 -0.5t15.5 16.5q-37 54 -14 72q1 0 2 1z" />
    <glyph glyph-name="uniE633" unicode="&#xe633;" 
d="M896 896h-768q-53 0 -90.5 -37.5t-37.5 -90.5v-576q0 -53 37.5 -90.5t90.5 -37.5h166l173 -173q19 -19 45 -19q13 0 24.5 5t20.5 14l173 173h166q53 0 90.5 37.5t37.5 90.5v576q0 53 -37.5 90.5t-90.5 37.5zM896 256q0 -26 -19 -45t-45 -19h-128q-26 0 -45 -19l-147 -147
l-147 147q-9 9 -20.5 14t-24.5 5h-128q-26 0 -45 19t-19 45v448q0 26 19 45t45 19h640q26 0 45 -19t19 -45v-448zM512 704q-13 0 -25 -5t-20.5 -13.5t-13.5 -20.5t-5 -25v-128q0 -17 8.5 -32t23.5 -23.5t32 -8.5q26 0 45 18.5t19 45.5v128q0 6 -1.5 12.5t-3.5 12.5t-5.5 11
t-8 9.5t-9.5 8t-11 5.5t-12 3.5t-13 1.5zM512 384q-17 0 -32 -8.5t-23.5 -23.5t-8.5 -32q0 -27 19 -45.5t45 -18.5q17 0 32 8.5t23.5 23.5t8.5 32q0 26 -18.5 45t-45.5 19z" />
    <glyph glyph-name="uniE634" unicode="&#xe634;" 
d="M952 785l-63 -56q-72 78 -169.5 122.5t-207.5 44.5q-188 0 -331 -122q-137 -116 -171 -292q-10 -49 -10 -98q0 -104 40.5 -199t109 -163.5t163.5 -109t199 -40.5q146 0 267.5 76t186.5 201q9 16 9 31q0 18 -8.5 33t-23.5 24t-33 9q-38 0 -56 -35h-1q0 -1 -1 -3l-1 -1
q0 -1 -1 -1q-49 -94 -139.5 -150t-199.5 -56q-104 0 -192.5 51.5t-140 140t-51.5 192.5q0 78 30.5 149t82 122.5t122.5 82t149 30.5q82 0 155 -33t127 -92l-59 -53q-21 -19 -12 -45t37 -27l206 -12q17 -1 30 10.5t14 28.5l12 207q1 28 -24 40t-45 -7z" />
    <glyph glyph-name="uniE635" unicode="&#xe635;" 
d="M512 896q-21 0 -39.5 -11.5t-27.5 -31.5l-116 -248l-266 -41q-13 -2 -25 -9t-20.5 -17.5t-13.5 -23.5q-14 -43 18 -75l195 -201l-46 -280q-3 -21 5 -40.5t26 -31.5q19 -14 42 -14h4q2 0 3.5 0.5t3.5 0.5t4 0.5t3.5 1t3.5 1t3.5 1t3.5 1.5t3.5 1.5t3.5 1.5l232 129
l232 -129q17 -9 36 -9q24 1 42 14q18 12 26 31.5t5 40.5l-46 280l196 201q31 32 17 75q-7 20 -23 33.5t-36 16.5l-266 41l-116 248q-9 20 -27 31.5t-40 11.5z" />
    <glyph glyph-name="uniE636" unicode="&#xe636;" horiz-adv-x="1025" 
d="M512 694l96 -205l231 -35l-168 -173l11 -64l27 -169l-197 109l-196 -110l27 170l11 63l-168 173l231 36l29 62zM512 896q-21 0 -39 -11.5t-27 -31.5l-116 -248l-266 -41q-14 -2 -26 -8.5t-20.5 -17.5t-12.5 -24q-15 -43 17 -75l195 -201l-45 -280q-4 -21 4.5 -40.5
t25.5 -31.5q20 -14 43 -14h4q2 0 4 0.5t4 0.5t4 1h4l4 2t4 1.5t3.5 1.5t3.5 2l232 129l233 -129q16 -9 35 -9q24 1 43 14q17 12 25.5 31.5t4.5 40.5l-45 280l195 201q32 32 17 75q-4 13 -12.5 23.5t-20.5 17.5t-26 9l-266 41l-116 248q-9 20 -27 31.5t-40 11.5z" />
    <glyph glyph-name="uniE637" unicode="&#xe637;" 
d="M512 896q-139 0 -257 -68.5t-186.5 -186.5t-68.5 -257t68.5 -257t186.5 -186.5t257 -68.5t257 68.5t186.5 186.5t68.5 257t-68.5 257t-186.5 186.5t-257 68.5zM512 128q-26 0 -45 19t-19 45t19 45t45 19t45 -19t19 -45t-19 -45t-45 -19zM576 384q0 -26 -19 -45t-45 -19
t-45 19t-19 45v192q0 26 19 45t45 19t45 -19t19 -45v-192z" />
    <glyph glyph-name="uniE638" unicode="&#xe638;" 
d="M512 640q-26 0 -45 -19t-19 -45v-192q0 -26 19 -45t45 -19t45 19t19 45v192q0 26 -19 45t-45 19zM512 256q-26 0 -45 -19t-19 -45t19 -45t45 -19t45 19t19 45t-19 45t-45 19zM512 896q-139 0 -257 -68.5t-186.5 -186.5t-68.5 -257t68.5 -257t186.5 -186.5t257 -68.5
t257 68.5t186.5 186.5t68.5 257t-68.5 257t-186.5 186.5t-257 68.5zM512 0q-159 0 -271.5 112.5t-112.5 271.5t112.5 271.5t271.5 112.5t271.5 -112.5t112.5 -271.5t-112.5 -271.5t-271.5 -112.5z" />
    <glyph glyph-name="uniE639" unicode="&#xe639;" horiz-adv-x="1025" 
d="M374 831q-15 0 -28.5 -9t-23.5 -24l-192 -221h-64q-22 -1 -36.5 -11.5t-20.5 -29t-7.5 -32t-1.5 -32.5v-174q-1 -52 14 -79.5t52 -25.5h64l192 -223q4 -6 8.5 -11t9.5 -9t10.5 -7t11.5 -4.5t12 -1.5q75 0 75 90v714q0 14 -3.5 28t-11.5 29t-23.5 24.5t-36.5 8.5zM919 385
l87 87q7 7 11.5 16t6 18t0 18.5t-6 18.5t-11.5 16q-12 12 -27.5 16t-31.5 0t-28 -16l-87 -87l-86 87q-12 12 -28 16t-32 0t-27 -16q-18 -18 -18 -43.5t18 -43.5l87 -87l-87 -87q-12 -12 -16.5 -27.5t0 -31.5t16 -28t27.5 -16t32 0t28 16l87 87l86 -87q12 -12 28 -16t32 0
t27 16q18 18 18 43.5t-18 43.5z" />
    <glyph glyph-name="uniE63A" unicode="&#xe63a;" 
d="M512 896q-139 0 -257 -68.5t-186.5 -186.5t-68.5 -257t68.5 -257t186.5 -186.5t257 -68.5t257 68.5t186.5 186.5t68.5 257t-68.5 257t-186.5 186.5t-257 68.5zM128 384q0 159 112.5 271.5t271.5 112.5q122 0 222 -71l-535 -535q-71 100 -71 222zM512 0q-122 0 -222 71
l535 535q71 -100 71 -222q0 -104 -51.5 -192.5t-140 -140t-192.5 -51.5z" />
    <glyph glyph-name="uniE63B" unicode="&#xe63b;" 
d="M192 640h64v64h-64v-64zM896 896h-768q-53 0 -90.5 -37.5t-37.5 -90.5v-768q0 -53 37.5 -90.5t90.5 -37.5h768q53 0 90.5 37.5t37.5 90.5v768q0 53 -37.5 90.5t-90.5 37.5zM896 64q0 -26 -19 -45t-45 -19h-640q-26 0 -45 19t-19 45v384h768v-384zM896 576h-768v128
q0 26 19 45t45 19h640q26 0 45 -19t19 -45v-128zM320 640h64v64h-64v-64zM448 640h384v64h-384v-64z" />
    <glyph glyph-name="uniE63C" unicode="&#xe63c;" 
d="M64 768q-26 0 -45 -19t-19 -45t19 -45t45 -19t45 19t19 45t-19 45t-45 19zM64 448q-26 0 -45 -19t-19 -45t19 -45t45 -19t45 19t19 45t-19 45t-45 19zM64 128q-26 0 -45 -19t-19 -45t19 -45t45 -19t45 19t19 45t-19 45t-45 19zM320 640h640q26 0 45 19t19 45t-19 45
t-45 19h-640q-26 0 -45 -19t-19 -45t19 -45t45 -19zM960 448h-640q-26 0 -45 -19t-19 -45t19 -45t45 -19h640q26 0 45 19t19 45t-19 45t-45 19zM960 128h-640q-26 0 -45 -19t-19 -45t19 -45t45 -19h640q26 0 45 19t19 45t-19 45t-45 19z" />
    <glyph glyph-name="uniE63D" unicode="&#xe63d;" 
d="M1024 384q0 -61 -48 -100l-320 -256q-36 -28 -80 -28q-53 0 -90.5 37.5t-37.5 90.5v92l-240 -192q-17 -13 -37.5 -20.5t-42.5 -7.5q-53 0 -90.5 37.5t-37.5 90.5v512q0 53 37.5 90.5t90.5 37.5q44 0 80 -28l240 -192v92q0 53 37.5 90.5t90.5 37.5q44 0 80 -28l320 -256
q48 -39 48 -100z" />
    <glyph glyph-name="uniE63E" unicode="&#xe63e;" 
d="M0 384q0 -61 48 -100l320 -256v1q36 -29 80 -29q53 0 90.5 37.5t37.5 90.5v92l240 -192q36 -28 80 -28q53 0 90.5 37.5t37.5 90.5v512q0 53 -37.5 90.5t-90.5 37.5q-44 0 -80 -28l-240 -192v92q0 53 -37.5 90.5t-90.5 37.5q-44 0 -80 -28l-320 -256q-48 -39 -48 -100z
" />
    <glyph glyph-name="uniE63F" unicode="&#xe63f;" horiz-adv-x="1027" 
d="M374 830q-31 0 -52 -33l-192 -221h-64q-22 -1 -36.5 -11.5t-20.5 -29t-7.5 -32t-1.5 -32.5v-174q-1 -52 13.5 -79.5t52.5 -25.5h64l192 -223q6 -10 14.5 -17.5t18 -11.5t19.5 -4q75 0 75 90v714q0 19 -6 38t-23.5 36t-45.5 16zM640 384q0 26 -18.5 45t-45 19t-45.5 -19
t-19 -45t19 -45t45.5 -19t45 19t18.5 45zM792 813q-3 3 -9 7t-11 7l-5 2q-12 4 -20 4q-27 0 -45.5 -18.5t-18.5 -45.5t18 -45l8 -5q59 -33 101.5 -83.5t65.5 -114.5t23 -136q0 -101 -49.5 -187.5t-132.5 -138.5q-4 -2 -10.5 -5.5t-17 -19.5t-10.5 -35q0 -27 18.5 -45.5
t45.5 -18.5q15 0 32 10q75 44 131.5 111t88 152t31.5 177q0 132 -63 245.5t-171 182.5zM718 142v-1q1 0 2 1.5t2 1.5l3 3l3 3q49 45 76.5 105.5t27.5 128.5q0 69 -28 130t-77 106q-1 1 -3 2v1q-19 17 -43 17q-27 0 -45.5 -19t-18.5 -45q0 -28 21 -47h-1q67 -58 67 -145
q0 -21 -4 -41t-12.5 -38t-20 -33.5t-26.5 -28.5l1 -1q-26 -20 -26 -50q0 -13 5.5 -25t14 -20.5t20 -13.5t24.5 -5q20 0 38 14z" />
    <glyph glyph-name="uniE640" unicode="&#xe640;" 
d="M283 385l-90 91h1q-64 49 -64 128q0 67 47.5 114.5t114.5 47.5q79 0 128 -64l90 -90q30 -23 47 -56.5t17 -71.5q0 -35 -11.5 -64t-32.5 -51q-22 -19 -22 -47q0 -18 8.5 -32.5t23 -23t32.5 -8.5q27 0 46 19q86 86 86 207q0 64 -27 121t-75 98l1 1l-91 91v-1
q-20 23 -44.5 41.5t-52.5 32t-59.5 20.5t-63.5 7q-121 0 -206.5 -85.5t-85.5 -205.5q0 -64 27 -122t74 -99l90 -90l1 1q5 -6 12 -10t15 -6t17 -2q26 0 45 18.5t19 45.5q0 12 -5 23.5t-13 20.5zM923 385l-90 90l-1 -1q-18 18 -44 18t-45 -18.5t-19 -45.5q0 -25 18 -44l-1 -1
l90 -91h-1q30 -23 47 -56t17 -72q0 -67 -47.5 -114.5t-114.5 -47.5q-78 0 -128 64l-90 91v-1q-9 7 -16 14t-13.5 15.5t-12 17.5t-9.5 18.5t-7 20t-4.5 21t-1.5 21.5q0 35 11.5 64t32.5 51q22 19 22 47q0 18 -8.5 32.5t-23 23t-32.5 8.5q-27 0 -46 -19q-86 -85 -86 -207
q0 -32 7 -63.5t20.5 -59t32.5 -52t42 -44.5l-1 -1l91 -90q41 -47 98.5 -74t121.5 -27q121 0 206.5 85.5t85.5 205.5q0 32 -7.5 63.5t-20.5 59.5t-31.5 52.5t-41.5 45.5z" />
    <glyph glyph-name="uniE641" unicode="&#xe641;" 
d="M896 128h-128h-64h-102l-237 -237q-19 -19 -45.5 -19t-45 19t-18.5 45v192h-64h-64q-53 0 -90.5 37.5t-37.5 90.5v512q0 53 37.5 90.5t90.5 37.5h768q53 0 90.5 -37.5t37.5 -90.5v-512q0 -53 -37.5 -90.5t-90.5 -37.5z" />
    <glyph glyph-name="uniE642" unicode="&#xe642;" 
d="M896 128h-128h-64h-102l-237 -237q-19 -19 -45 -19q-27 0 -45.5 18.5t-18.5 45.5v192h-64h-64q-53 0 -90.5 37.5t-37.5 90.5v512q0 53 37.5 90.5t90.5 37.5h768q53 0 90.5 -37.5t37.5 -90.5v-512q0 -53 -37.5 -90.5t-90.5 -37.5zM896 704q0 26 -19 45t-45 19h-640
q-27 0 -45.5 -18.5t-18.5 -45.5v-384q0 -27 18.5 -45.5t45.5 -18.5h64h64q27 0 45.5 -19t18.5 -45v-102l147 147q18 19 45 19h128h64h64q13 0 25 5t20.5 13.5t13.5 20.5t5 25v384z" />
    <glyph glyph-name="uniE643" unicode="&#xe643;" 
d="M896 832h-768q-53 0 -90.5 -37.5t-37.5 -90.5v-640q0 -53 37.5 -90.5t90.5 -37.5h768q53 0 90.5 37.5t37.5 90.5v640q0 53 -37.5 90.5t-90.5 37.5zM896 128q0 -26 -19 -45t-45 -19h-640q-26 0 -45 19t-19 45v512q0 26 19 45t45 19h640q26 0 45 -19t19 -45v-512zM626 427
q-164 107 -166 109q-15 10 -32.5 11.5t-31 -11.5t-12.5 -40v-224q0 -22 9.5 -33.5t23 -12t26 2.5t19.5 8q5 3 13 8.5t29 19.5t40 26t38.5 24.5t31 20t11.5 6.5q9 7 15.5 15t8.5 17t1 18t-7 18t-17 17z" />
    <glyph glyph-name="uniE644" unicode="&#xe644;" 
d="M512 256q80 0 136 56t56 136v256q0 80 -56 136t-136 56t-136 -56t-56 -136v-256q0 -80 56 -136t136 -56zM832 512q-26 0 -45 -19t-19 -45q0 -106 -75 -181t-181 -75t-181 75t-75 181q0 26 -19 45t-45 19t-45 -19t-19 -45q0 -142 91.5 -248.5t228.5 -129.5v-70h-128
q-17 0 -32 -8.5t-23.5 -23.5t-8.5 -32q0 -26 19 -45t45 -19h384q26 0 45 19t19 45t-19 45t-45 19h-128v70q137 23 228.5 129.5t91.5 248.5q0 26 -19 45t-45 19z" />
    <glyph glyph-name="uniE645" unicode="&#xe645;" 
d="M832 512q-26 0 -45 -19t-19 -45q0 -106 -75 -181t-181 -75t-181 75t-75 181q0 26 -19 45t-45 19t-45 -19t-19 -45q0 -142 91.5 -248.5t228.5 -129.5v-70h-128q-17 0 -32 -8.5t-23.5 -23.5t-8.5 -32q0 -26 19 -45t45 -19h384q26 0 45 19t19 45t-19 45t-45 19h-128v70
q137 23 228.5 129.5t91.5 248.5q0 26 -19 45t-45 19zM512 256q80 0 136 56t56 136v256q0 80 -56 136t-136 56t-136 -56t-56 -136v-256q0 -80 56 -136t136 -56zM448 704q0 26 19 45t45 19t45 -19t19 -45v-256q0 -26 -19 -45t-45 -19t-45 19t-19 45v256z" />
    <glyph glyph-name="uniE646" unicode="&#xe646;" 
d="M320 576q0 80 56 136t136 56t136 -56t56 -136q0 -31 -12 -64h140v64q0 133 -93.5 226.5t-226.5 93.5t-226.5 -93.5t-93.5 -226.5v-64h140q-12 33 -12 64zM832 512h-640q-53 0 -90.5 -37.5t-37.5 -90.5v-384q0 -53 37.5 -90.5t90.5 -37.5h640q53 0 90.5 37.5t37.5 90.5
v384q0 53 -37.5 90.5t-90.5 37.5zM576 146v-82q0 -26 -19 -45t-45 -19t-45 19t-19 45v82q-29 17 -46.5 46t-17.5 64q0 53 37.5 90.5t90.5 37.5t90.5 -37.5t37.5 -90.5q0 -23 -8 -44.5t-22.5 -38t-33.5 -27.5z" />
    <glyph glyph-name="uniE647" unicode="&#xe647;" 
d="M832 512h-640q-53 0 -90.5 -37.5t-37.5 -90.5v-384q0 -53 37.5 -90.5t90.5 -37.5h640q53 0 90.5 37.5t37.5 90.5v384q0 53 -37.5 90.5t-90.5 37.5zM832 64q0 -26 -19 -45t-45 -19h-512q-26 0 -45 19t-19 45v256q0 26 19 45t45 19h512q26 0 45 -19t19 -45v-256zM320 576
q0 80 56 136t136 56t136 -56t56 -136q0 -31 -12 -64h140v64q0 133 -93.5 226.5t-226.5 93.5t-226.5 -93.5t-93.5 -226.5v-64h140q-12 33 -12 64z" />
    <glyph glyph-name="uniE648" unicode="&#xe648;" 
d="M640 526v353q-64 17 -128 17q-102 0 -201 -42l325 -325q1 -1 4 -3zM704 858v-461l248 248q-29 48 -66.5 88.5t-83.5 72t-98 52.5zM320 -90v461l-247 -247q89 -150 247 -214zM252 823q-150 -89 -214 -247h461zM0 384q0 -102 42 -201l325 325q0 1 1 2l2 2h-353
q-17 -65 -17 -128zM772 -55q150 89 214 247h-461zM983 585l-325 -324q0 -1 -2 -3q-2 -1 -3 -2h354q17 65 17 128q0 105 -41 201zM384 242v-353q65 -17 128 -17q102 0 201 42l-325 325l-2 1z" />
    <glyph glyph-name="uniE649" unicode="&#xe649;" 
d="M416 384h-320q-40 0 -68 -28t-28 -68t28 -68t68 -28h88l-155 -156h-1v-1h-1q-27 -28 -27 -67q0 -40 28 -68t68 -28q39 0 67 27l157 157v-88q0 -40 28 -68t68 -28t68 28t28 68v320q0 40 -28 68t-68 28zM928 576h-88l156 156l1 1q27 28 27 67q0 16 -5 30.5t-13.5 26
t-20.5 20.5t-26.5 14t-30.5 5q-39 0 -67 -27l-157 -157v88q0 40 -28 68t-68 28t-68 -28t-28 -68v-320q0 -40 28 -68t68 -28h320q40 0 68 28t28 68t-28 68t-68 28z" />
    <glyph glyph-name="uniE64A" unicode="&#xe64a;" 
d="M928 896h-320q-26 0 -48 -13t-35 -35t-13 -48q0 -40 28 -68t68 -28h88l-152 -152l1 -1q-5 -4 -9.5 -9t-8 -10.5t-6.5 -11.5t-5 -12.5t-3 -13.5t-1 -14q0 -40 28 -68t68 -28q42 0 71 31l153 153v-88q0 -40 28 -68t68 -28t68 28t28 68v320q0 10 -2 19.5t-5.5 18t-9 16
t-12 14t-14 12t-16 9t-18 5.5t-19.5 2zM416 384q-13 0 -25 -3.5t-22.5 -9.5t-19.5 -14l-157 -157v88q0 26 -13 48t-35 35t-48 13q-19 0 -37 -7.5t-31 -20.5t-20.5 -31t-7.5 -37v-320q0 -40 28 -68t68 -28h320q40 0 68 28t28 68t-28 68t-68 28h-88l155 156h1q0 1 1 1v0
q27 28 27 67q0 40 -28 68t-68 28z" />
    <glyph glyph-name="uniE64B" unicode="&#xe64b;" 
d="M986 714q-15 15 -33 24.5t-37.5 12t-39 0t-38 -12t-33.5 -24.5l-406 -406l-180 181q-25 24 -58 33t-66 0t-57 -33q-38 -38 -38 -91t38 -90l271 -272q38 -37 91 -37t90 37q1 1 2 2.5t2 2.5l2 2l490 490q38 38 38 91t-38 90z" />
    <glyph glyph-name="uniE64C" unicode="&#xe64c;" 
d="M960 704h-384v64q0 27 -18.5 45.5t-45.5 18.5h-384q0 27 -18.5 45.5t-45.5 18.5t-45.5 -18.5t-18.5 -45.5v-896q0 -27 18.5 -45.5t45.5 -18.5t45.5 18.5t18.5 45.5v256h320v-64q0 -27 18.5 -45.5t45.5 -18.5h448q27 0 45.5 18.5t18.5 45.5v512q0 27 -18.5 45.5
t-45.5 18.5zM896 192h-320v64q0 27 -18.5 45.5t-45.5 18.5h-384v384h320v-64q0 -27 18.5 -45.5t45.5 -18.5h384v-384z" />
    <glyph glyph-name="uniE64D" unicode="&#xe64d;" 
d="M128 0q0 -53 37.5 -90.5t90.5 -37.5h512q53 0 90.5 37.5t37.5 90.5v640h-768v-640zM896 832h-160l-64 64h-320l-64 -64h-160q-27 0 -45.5 -18.5t-18.5 -45.5v-64h896v64q0 27 -18.5 45.5t-45.5 18.5z" />
    <glyph glyph-name="uniE64E" unicode="&#xe64e;" 
d="M896 832h-160l-64 64h-320l-64 -64h-160q-27 0 -45.5 -18.5t-18.5 -45.5v-64h64v-704q0 -53 37.5 -90.5t90.5 -37.5h512q53 0 90.5 37.5t37.5 90.5v704h64v64q0 27 -18.5 45.5t-45.5 18.5zM768 64q0 -26 -19 -45t-45 -19h-384q-26 0 -45 19t-19 45v640h512v-640zM608 192
q13 0 22.5 9.5t9.5 22.5v256q0 13 -9.5 22.5t-22.5 9.5t-22.5 -9.5t-9.5 -22.5v-256q0 -13 9.5 -22.5t22.5 -9.5zM416 192q13 0 22.5 9.5t9.5 22.5v256q0 13 -9.5 22.5t-22.5 9.5t-22.5 -9.5t-9.5 -22.5v-256q0 -13 9.5 -22.5t22.5 -9.5z" />
    <glyph glyph-name="uniE64F" unicode="&#xe64f;" horiz-adv-x="1026" 
d="M1006 173l-449 449q-18 19 -44.5 19t-44.5 -19l-449 -449q-13 -12 -17 -28.5t0 -33t17 -28.5q4 -4 9.5 -8t11 -6t12 -3t12.5 -1t12 1t11.5 3t11 6t9.5 8l405 405l404 -405q18 -18 44.5 -18t44.5 18q29 29 15 67q-5 14 -15 23z" />
    <glyph glyph-name="uniE650" unicode="&#xe650;" 
d="M882 484q-21 81 -74.5 145.5t-131 101.5t-164.5 37q-132 0 -234.5 -80t-135.5 -204q-64 -32 -103 -93t-39 -135q0 -106 75 -181t181 -75h128q17 0 32 8.5t23.5 23.5t8.5 32v166l-19 -19q-19 -19 -45 -19q-17 0 -32 8.5t-23.5 23.5t-8.5 32q0 26 19 45l128 128
q19 19 45 19q13 0 24.5 -5t20.5 -14l128 -128q6 -6 10 -13t6.5 -15t2.5 -17q0 -26 -19 -45t-45 -19t-45 19l-19 19v-230v64q0 -26 19 -45t45 -19h128q106 0 181 75t75 181q0 37 -10.5 72t-29 64t-44.5 52.5t-58 39.5z" />
    <glyph glyph-name="uniE651" unicode="&#xe651;" 
d="M882 484q-21 81 -74.5 145.5t-131 101.5t-164.5 37q-132 0 -234.5 -80t-135.5 -204q-64 -32 -103 -93t-39 -135q0 -106 75 -181t181 -75q26 0 45 19t19 45t-19 45t-45 19q-53 0 -90.5 37.5t-37.5 90.5t37.5 90.5t90.5 37.5q0 106 75 181t181 75t181 -75t75 -181
q53 0 90.5 -37.5t37.5 -90.5t-37.5 -90.5t-90.5 -37.5h-192v102l19 -19q19 -19 45 -19t45 19t19 45q0 13 -5 24.5t-14 20.5l-128 128q-9 9 -20.5 14t-24.5 5t-24.5 -5t-20.5 -14l-128 -128q-5 -4 -8.5 -9t-5.5 -11t-3.5 -12t-1.5 -13q0 -26 19 -45t45 -19q7 0 13 1.5t12 3.5
t11 5.5t9 8.5l19 19v-166q0 -26 19 -45t45 -19h256q106 0 181 75t75 181q0 21 -3.5 42t-10 40t-16 36.5t-21.5 33.5t-26 30t-30.5 25.5t-34.5 20.5z" />
    <glyph glyph-name="uniE652" unicode="&#xe652;" 
d="M512 896q-139 0 -257 -68.5t-186.5 -186.5t-68.5 -257t68.5 -257t186.5 -186.5t257 -68.5t257 68.5t186.5 186.5t68.5 257t-68.5 257t-186.5 186.5t-257 68.5zM512 0q-159 0 -271.5 112.5t-112.5 271.5t112.5 271.5t271.5 112.5t271.5 -112.5t112.5 -271.5t-112.5 -271.5
t-271.5 -112.5zM704 448h-128v128q0 26 -19 45t-45 19t-45 -19t-19 -45v-192q0 -26 19 -45t45 -19h192q26 0 45 19t19 45t-19 45t-45 19z" />
    <glyph glyph-name="uniE653" unicode="&#xe653;" horiz-adv-x="1025" 
d="M939 341l-382 -386q-19 -19 -45 -19q-13 0 -24.5 5t-20.5 14l-385 383q-39 40 -60.5 93.5t-21.5 112.5q0 119 84.5 203.5t203.5 84.5q67 0 125 -29t99 -80q20 25 44.5 45t53 34.5t60.5 22t66 7.5q120 0 205 -84.5t83 -203.5q-1 -36 -9.5 -70.5t-21 -57.5t-25 -40.5
t-20.5 -26.5z" />
    <glyph glyph-name="uniE654" unicode="&#xe654;" horiz-adv-x="1025" 
d="M736 832q-67 0 -125 -29t-99 -80q-41 51 -99 80t-125 29q-119 0 -203.5 -84.5t-84.5 -203.5q0 -30 5.5 -58.5t16 -54.5t26 -49.5t34.5 -43.5l385 -383q19 -19 45 -19t45 19l382 386q1 1 3 2.5t7.5 8t11 13.5t13 18t14 23t13.5 28t11.5 32.5t8 36.5t3.5 41
q1 78 -37.5 144.5t-105.5 105t-145 38.5zM828 394l-282 -295q-7 -8 -10.5 -11t-10.5 -7.5t-13 -4.5q-4 0 -7.5 1.5t-8 5t-6.5 5.5t-6.5 7t-5.5 6l-283 291q-15 16 -27 32t-21 34.5t-14 39.5t-5 44q0 92 61.5 135t154.5 23q79 -21 168 -138q23 30 48 56.5t58.5 50.5t61.5 31
q57 13 106 -1t79.5 -55.5t30.5 -101.5q1 -22 -6 -45.5t-17 -41t-20.5 -31.5t-17.5 -22z" />
    <glyph glyph-name="uniE655" unicode="&#xe655;" 
d="M768 896h-512q-53 0 -90.5 -37.5t-37.5 -90.5v-768q0 -53 37.5 -90.5t90.5 -37.5h512q53 0 90.5 37.5t37.5 90.5v768q0 53 -37.5 90.5t-90.5 37.5zM512 -64q-26 0 -45 19t-19 45t19 45t45 19t45 -19t19 -45t-19 -45t-45 -19zM768 192q0 -26 -19 -45t-45 -19h-384
q-26 0 -45 19t-19 45v512q0 26 19 45t45 19h384q26 0 45 -19t19 -45v-512z" />
    <glyph glyph-name="uniE656" unicode="&#xe656;" 
d="M64 768v-768q0 -53 37.5 -90.5t90.5 -37.5v1024q-53 0 -90.5 -37.5t-37.5 -90.5zM832 896h-576v-1024h576q53 0 90.5 37.5t37.5 90.5v768q0 53 -37.5 90.5t-90.5 37.5zM832 384l-96 64l-96 -64v384h192v-384z" />
    <glyph glyph-name="uniE657" unicode="&#xe657;" 
d="M512 896q-139 0 -257 -68.5t-186.5 -186.5t-68.5 -257t68.5 -257t186.5 -186.5t257 -68.5t257 68.5t186.5 186.5t68.5 257t-68.5 257t-186.5 186.5t-257 68.5zM512 0q-159 0 -271.5 112.5t-112.5 271.5t112.5 271.5t271.5 112.5t271.5 -112.5t112.5 -271.5t-112.5 -271.5
t-271.5 -112.5zM653 395q-16 12 -46 24.5t-75 26.5v134q37 -2 51 -27q5 -7 7.5 -18.5t4.5 -27.5h99q-3 84 -66 122q-35 24 -96 28v48h-37v-47q-39 -3 -59 -9q-33 -9 -60 -34q-21 -20 -32 -46q-6 -14 -9 -28.5t-3 -31.5q0 -49 30 -84.5t102 -54.5l31 -9v-150
q-22 4 -36.5 11.5t-21.5 19.5q-5 7 -8.5 22t-6.5 37h-102q-1 -97 63 -137q13 -8 29.5 -14t37 -10t45.5 -7v-70h37v71q59 4 101 29q71 40 71 128q-1 68 -51 104zM495 456q-9 3 -17 6t-14 6t-10 6q-12 8 -18 20t-6 27v6l2 6v6q1 3 2 5.5t2 5.5l4 4q1 3 2.5 5t3.5 4
q16 16 49 17v-124zM575 225q-14 -9 -43 -13v138q31 -11 44 -21q22 -19 22 -48q0 -40 -23 -56z" />
    <glyph glyph-name="uniE658" unicode="&#xe658;" 
d="M960 128q-90 0 -169 -39t-132 -108q-9 -9 -14 -20.5t-5 -24.5q0 -27 18.5 -45.5t45 -18.5t45.5 19l1 -1q14 20 31 37t37.5 30.5t43 23t47.5 14.5t51 5q17 0 32 8.5t23.5 23.5t8.5 32q0 26 -19 45t-45 19zM365 -19q-35 45 -81.5 78t-103 51t-116.5 18q-26 0 -45 -19
t-19 -45.5t19 -45t45 -18.5q64 0 119.5 -29.5t90.5 -80.5l1 1q19 -19 45 -19q17 0 32 8.5t23.5 23.5t8.5 32q0 13 -5 24.5t-14 20.5zM960 734q0 14 -11 21t-29.5 6.5t-40 -3.5t-47.5 -11t-46.5 -14.5t-41.5 -14.5t-28.5 -11t-11.5 -4q-3 4 -8 10.5t-20.5 27t-30.5 38.5
t-35 40.5t-36.5 38.5t-33.5 27t-28 11q-46 0 -173 -168l-19 -26q-16 7 -42.5 16.5t-82.5 27t-93.5 16t-37.5 -27.5q0 -62 3.5 -115t11 -107t21.5 -98.5t34 -86.5t49.5 -74t67 -57.5t87.5 -42t110 -21.5v-196q0 -26 19 -45t45 -19t45 19t19 45v196q68 7 123.5 28t95 51
t69 73.5t48 91t29.5 108t15 119.5t4 131z" />
    <glyph glyph-name="uniE659" unicode="&#xe659;" 
d="M365 -19q-35 45 -81.5 78t-103 51t-116.5 18q-26 0 -45 -19t-19 -45.5t19 -45t45 -18.5q64 0 119.5 -29.5t90.5 -80.5l1 1q6 -6 13 -10t15 -6.5t17 -2.5q17 0 32 8.5t23.5 23.5t8.5 32q0 13 -5 24.5t-14 20.5zM960 128q-90 0 -169 -39t-132 -108q-19 -19 -19 -45.5
t18.5 -45t45.5 -18.5q9 0 17 2.5t15 6.5t13 10l1 -1q35 51 90.5 80.5t119.5 29.5q26 0 45 18.5t19 45t-19 45.5t-45 19zM960 734q0 27 -43 27q-33 0 -86 -14.5t-90 -29.5l-37 -15q-3 4 -8 11t-20.5 27.5t-30.5 38.5t-35 40.5t-36.5 38.5t-33.5 27t-28 11q-15 0 -41 -21
t-49.5 -46.5t-50 -58.5t-36 -46.5t-15.5 -21.5q-6 3 -16 7t-38 14t-53.5 17.5t-55.5 14t-50 6.5q-43 0 -43 -27q0 -72 4 -131t15 -120t29.5 -108.5t48 -91t69 -74t94.5 -51t124 -27.5v-195q0 -27 19 -45.5t45 -18.5t45 18.5t19 45.5v196q68 7 123.5 27.5t95 51t69 74t48 91
t29.5 108t15 119.5t4 131zM512 256q-61 0 -104 9t-82 32t-64.5 62.5t-42.5 102.5t-23 150q6 -2 12.5 -4t12.5 -4.5t12.5 -4.5t13 -4.5t12.5 -5t12 -5.5l94 -38l59 82q43 60 88 110q45 -50 88 -110l59 -83l95 40q16 7 35.5 14t38.5 13q-13 -195 -84.5 -274t-231.5 -82z" />
    <glyph glyph-name="uniE65A" unicode="&#xe65a;" 
d="M996 -98q-28 -28 -68 -28t-68 28l-169 169q-112 -71 -241 -71q-91 0 -174 35.5t-143 95.5t-95.5 143t-35.5 174t35.5 174t95.5 143t143 95.5t174 35.5t174 -35.5t143 -95.5t95.5 -143t35.5 -174q0 -130 -72 -241l170 -169q28 -28 28 -68t-28 -68zM450 768
q-65 0 -124.5 -25.5t-102.5 -68t-68 -102t-25 -124.5q0 -87 42.5 -160.5t116.5 -116.5t161 -43t160.5 43t116.5 116.5t43 160.5q0 65 -25.5 124.5t-68.5 102t-102 68t-124 25.5z" />
    <glyph glyph-name="uniE65B" unicode="&#xe65b;" 
d="M995 37l-169 169q71 111 71 241q0 91 -35.5 174t-95.5 143t-143 95.5t-174 35.5t-174 -35.5t-143 -95.5t-95.5 -143t-35.5 -174t35.5 -174t95.5 -143t143 -95.5t174 -35.5q129 0 241 71l169 -169q11 -11 25 -18t28.5 -9t29 0t28.5 9t25 18q28 28 28 68t-28 68zM449 127
q-87 0 -160.5 43t-116.5 116.5t-43 160.5t43 160.5t116.5 116.5t160.5 43t160.5 -43t116.5 -116.5t43 -160.5q0 -132 -93 -225q-95 -94 -227 -95zM577 511h-256q-17 0 -32 -8.5t-23.5 -23.5t-8.5 -32q0 -26 18.5 -45t45.5 -19h256q17 0 32 8.5t23.5 23.5t8.5 32
q0 27 -19 45.5t-45 18.5z" />
    <glyph glyph-name="uniE65C" unicode="&#xe65c;" 
d="M896 896h-576q-53 0 -90.5 -37.5t-37.5 -90.5h576q53 0 90.5 -37.5t37.5 -90.5v-448q53 0 90.5 37.5t37.5 90.5v448q0 53 -37.5 90.5t-90.5 37.5zM704 704h-576q-53 0 -90.5 -37.5t-37.5 -90.5v-384q0 -53 37.5 -90.5t90.5 -37.5h62l117 -173q5 -6 13 -6t13 7l111 172
h260q53 0 90.5 37.5t37.5 90.5v384q0 53 -37.5 90.5t-90.5 37.5z" />
    <glyph glyph-name="uniE65D" unicode="&#xe65d;" 
d="M832 896h-640q-53 0 -90.5 -37.5t-37.5 -90.5v-768q0 -53 37.5 -90.5t90.5 -37.5h640q53 0 90.5 37.5t37.5 90.5v768q0 53 -37.5 90.5t-90.5 37.5zM256 0h-26q-10 0 -19 5t-14 14t-5 19v692q0 10 5 19t14 14t19 5h26v-768zM832 38q0 -15 -11.5 -26.5t-26.5 -11.5h-410
v768h256v-384l64 64l64 -64v384h26q6 0 12 -2t10.5 -5.5t8 -8t5.5 -10.5t2 -12v-692z" />
    <glyph glyph-name="uniE65E" unicode="&#xe65e;" 
d="M512 896q-139 0 -257 -68.5t-186.5 -186.5t-68.5 -257t68.5 -257t186.5 -186.5t257 -68.5t257 68.5t186.5 186.5t68.5 257t-68.5 257t-186.5 186.5t-257 68.5zM704 320h-128v-128q0 -26 -19 -45t-45 -19t-45 19t-19 45v128h-128q-26 0 -45 19t-19 45t19 45t45 19h128v128
q0 26 19 45t45 19t45 -19t19 -45v-128h128q26 0 45 -19t19 -45t-19 -45t-45 -19z" />
    <glyph glyph-name="uniE65F" unicode="&#xe65f;" 
d="M704 448h-128v128q0 26 -19 45t-45 19t-45 -19t-19 -45v-128h-128q-26 0 -45 -19t-19 -45t19 -45t45 -19h128v-128q0 -26 19 -45t45 -19t45 19t19 45v128h128q26 0 45 19t19 45t-19 45t-45 19zM512 896q-139 0 -257 -68.5t-186.5 -186.5t-68.5 -257t68.5 -257
t186.5 -186.5t257 -68.5t257 68.5t186.5 186.5t68.5 257t-68.5 257t-186.5 186.5t-257 68.5zM512 0q-159 0 -271.5 112.5t-112.5 271.5t112.5 271.5t271.5 112.5t271.5 -112.5t112.5 -271.5t-112.5 -271.5t-271.5 -112.5z" />
    <glyph glyph-name="uniE660" unicode="&#xe660;" 
d="M768 576h192q26 0 45 19t19 45t-19 45t-45 19h-192q-26 0 -45 -19t-19 -45t19 -45t45 -19zM960 512h-128q-26 0 -45 -19t-19 -45t19 -45t45 -19h128q26 0 45 19t19 45t-19 45t-45 19zM960 320h-64q-26 0 -45 -19t-19 -45t19 -45t45 -19h64q26 0 45 19t19 45t-19 45
t-45 19zM541 336q12 7 27 22t32.5 37.5t29 53.5t10.5 63v128q0 106 -75 181t-181 75t-181 -75t-75 -181v-128q0 -59 34 -108.5t63 -67.5q-85 -48 -151 -120.5t-74 -151.5q0 -79 56 -135.5t136 -56.5h384q79 0 135.5 56.5t56.5 135.5q-14 82 -78.5 153.5t-148.5 118.5z" />
    <glyph glyph-name="uniE661" unicode="&#xe661;" 
d="M569 336q71 74 71 176v128q0 106 -75 181t-181 75t-181 -75t-75 -181v-128q0 -102 71 -176q-77 -43 -131 -114.5t-68 -157.5q0 -79 56 -135.5t136 -56.5h384q79 0 135.5 56.5t56.5 135.5q-14 86 -68 157.5t-131 114.5zM256 640q0 53 37.5 90.5t90.5 37.5t90.5 -37.5
t37.5 -90.5v-128q0 -53 -37.5 -90.5t-90.5 -37.5t-90.5 37.5t-37.5 90.5v128zM576 0h-384q-27 0 -45.5 18.5t-18.5 45.5q21 83 94 137.5t162 54.5t162 -54.5t94 -137.5q0 -27 -18.5 -45.5t-45.5 -18.5zM768 576h192q26 0 45 19t19 45t-19 45t-45 19h-192q-26 0 -45 -19
t-19 -45t19 -45t45 -19zM960 512h-128q-26 0 -45 -19t-19 -45t19 -45t45 -19h128q26 0 45 19t19 45t-19 45t-45 19zM960 320h-64q-26 0 -45 -19t-19 -45t19 -45t45 -19h64q26 0 45 19t19 45t-19 45t-45 19z" />
    <glyph glyph-name="uniE662" unicode="&#xe662;" 
d="M825 336q71 74 71 176v128q0 106 -75 181t-181 75q-27 0 -57 -7q32 -26 56.5 -58t40.5 -70q39 -13 63.5 -46t24.5 -75v-128q0 -42 -24.5 -75t-63.5 -46q-1 -3 -2 -7l-4 -6q-1 -4 -3 -7t-3.5 -6.5t-3.5 -6.5t-3 -6q72 -56 118 -136q92 -56 117 -152q0 -27 -18.5 -45.5
t-45.5 -18.5h-9q-7 -25 -18 -48t-26.5 -43t-34.5 -37h88q79 0 135.5 56.5t56.5 135.5q-14 86 -68 157.5t-131 114.5zM569 336q71 74 71 176v128q0 106 -75 181t-181 75t-181 -75t-75 -181v-128q0 -102 71 -176q-77 -43 -131 -114.5t-68 -157.5q0 -79 56 -135.5t136 -56.5
h384q79 0 135.5 56.5t56.5 135.5q-14 86 -68 157.5t-131 114.5zM256 640q0 53 37.5 90.5t90.5 37.5t90.5 -37.5t37.5 -90.5v-128q0 -53 -37.5 -90.5t-90.5 -37.5t-90.5 37.5t-37.5 90.5v128zM576 0h-384q-27 0 -45.5 18.5t-18.5 45.5q21 83 94 137.5t162 54.5t162 -54.5
t94 -137.5q0 -27 -18.5 -45.5t-45.5 -18.5z" />
    <glyph glyph-name="uniE663" unicode="&#xe663;" 
d="M492 239q-22 18 -41.5 40.5t-41 56.5t-34 80t-12.5 97q2 211 171 344q16 12 35 17h-4h-5h-4q-147 0 -266 -83.5t-170 -216.5q58 -9 97 -53.5t39 -104.5q0 -61 -41 -106t-101 -52q0 -1 1 -4t1 -4q14 -8 33.5 -16t62.5 -20t84.5 -15.5t95.5 5.5t100 35zM800 704q40 0 68 28
t28 68t-28 68t-68 28t-68 -28t-28 -68t28 -68t68 -28zM922 698q-48 -58 -122 -58q-66 0 -113 47t-47 113q0 33 13 64q-1 0 -3 0.5t-4 1.5q-8 -4 -21.5 -11.5t-47.5 -34t-61.5 -58t-54 -85t-35.5 -114.5q17 4 36.5 6t51 3.5t63.5 -3t67 -13.5t71 -28.5t66 -46.5
q22 -21 40 -41.5t33.5 -42t27 -44.5t20.5 -47.5t15.5 -52.5t10 -58.5t4.5 -65.5q92 124 92 278q0 163 -102 291zM711 452q-9 -129 -121 -227q-140 -123 -392 -69q-4 1 -10 3t-12 4.5t-11.5 5t-9.5 4.5t-5 3q40 -71 101.5 -124t140.5 -83t164 -30q1 0 23 1q-3 16 -3 28
q0 66 47 113t113 47q20 0 39.5 -5t36 -14t31 -22t25.5 -28l2 1q1 2 2 2q0 7 1 17.5t0 36t-4.5 51.5t-13 61.5t-24.5 68t-40 69t-57 67.5q-4 3 -8 6.5t-7.5 6.5t-7.5 6zM736 64q-40 0 -68 -28t-28 -68t28 -68t68 -28t68 28t28 68t-28 68t-68 28zM192 416q0 40 -28 68t-68 28
t-68 -28t-28 -68t28 -68t68 -28t68 28t28 68z" />
    <glyph glyph-name="uniE664" unicode="&#xe664;" horiz-adv-x="1025" 
d="M896 896h-767q-53 0 -90.5 -37.5t-37.5 -90.5v-595l172 161q41 39 97 42t101 -31l67 -50q8 -6 18 -5t16 8l168 171q42 43 103 45.5t107 -37.5l173 -150v-169l-256 223q-5 4 -11.5 5.5t-13 -0.5t-11.5 -7l-167 -171q-20 -20 -45.5 -32t-52.5 -14t-54 5.5t-50 24.5l-68 51
q-17 13 -33 -2l-260 -243q1 -53 38 -89.5t90 -36.5h767q53 0 90.5 37.5t37.5 90.5v768q0 17 -4.5 34t-13 31t-20 25.5t-25.5 20t-30.5 13t-34.5 4.5zM352 512q-26 0 -48 13t-35 35t-13 48q0 40 28.5 68t68 28t67.5 -28t28 -68t-28 -68t-68 -28z" />
    <glyph glyph-name="uniE665" unicode="&#xe665;" horiz-adv-x="1025" 
d="M896 896h-767q-53 0 -90.5 -37.5t-37.5 -90.5v-595l-1 -1v-175l1 1q1 -53 38 -89.5t90 -36.5h767q53 0 90.5 37.5t37.5 90.5v768q0 17 -4.5 34t-13 31t-20 25.5t-25.5 20t-30.5 13t-34.5 4.5zM896 64q0 -13 -5 -25t-13.5 -20.5t-20.5 -13.5t-25 -5h-639q-14 0 -25.5 5
t-20 13.5t-13.5 20.5t-5 25v53l132 124q7 6 16.5 7t16.5 -5l68 -51q46 -34 104 -29.5t98 45.5l167 171q8 7 18 7.5t18 -5.5l129 -113v-204zM896 438l-46 39q-46 40 -107 37.5t-103 -45.5l-168 -172q-4 -4 -10 -6t-12.5 -1t-11.5 5l-67 50q-45 34 -101 31t-97 -42l-44 -41
v411q0 27 18.5 45.5t45.5 18.5h639q27 0 45.5 -19t18.5 -45v-266zM352 704q-26 0 -48 -13t-35 -35t-13 -48q0 -40 28.5 -68t68 -28t67.5 28t28 68t-28 68t-68 28z" />
    <glyph glyph-name="uniE666" unicode="&#xe666;" 
d="M795 811q-1 0 -3 1.5t-10 3.5t-18 2q-27 0 -45.5 -18.5t-18.5 -45.5q1 -15 7 -27.5t12 -17.5l5 -5q79 -53 125.5 -137.5t46.5 -182.5q0 -159 -112.5 -271.5t-271.5 -112.5t-271.5 112.5t-112.5 271.5q0 99 45.5 183t123.5 136l2 1q25 20 25 50q0 13 -5 25t-13.5 20.5
t-20.5 13.5t-25 5q-15 0 -31 -9l-1 -1q-105 -70 -166.5 -181.5t-61.5 -242.5q0 -139 68.5 -257t186.5 -186.5t257 -68.5t257 68.5t186.5 186.5t68.5 257q0 131 -62 244t-167 183zM512 448q26 0 45 19t19 45v320q0 26 -19 45t-45 19q-27 0 -45.5 -18.5t-18.5 -45.5v-320
q0 -27 18.5 -45.5t45.5 -18.5z" />
    <glyph glyph-name="uniE667" unicode="&#xe667;" horiz-adv-x="1025" 
d="M419 444l2 3l1 1v1l2 1v2l2 2v1q1 1 1 2l2 2l2 3l1 1v1l2 2l1 1l2 2q1 2 2 3l1 1q0 1 1 1q1 2 2 3t2 3h1l1 2q0 1 1 1.5t1 1.5l3 2l2 3l2 2l3 3l2 2l3 3l2 2q3 2 3 3q2 2 3 2l3 3l3 2q0 1 1 2t1.5 1t1.5 1l2 2l1 1q1 1 2 1l1 1l2 1l2 2q1 1 2 1q2 2 3 2.5t4 2.5
q0 1 1.5 1.5t1.5 1.5q1 0 2.5 1t2 1.5t2 1t2 1t2 1.5t2 1.5t2 1t2 1t2 1.5t2.5 1q1 1 3 2l2 1q1 1 4 2l5 3q2 1 5 2q1 1 3 2t3 1q3 1 6 3q2 0 6 2q1 0 3 1t3 2q2 0 6 1l1 1l8 3h3q4 2 5 2l9 3l11 2q3 1 6 1.5t6 1.5q4 0 8 1t8 1q14 2 28 3h17h8h7q4 -1 9 -1t10 -1v1v1
q-1 1 -1 2v3q-1 0 -1 1v1q0 1 -1 3v2q-1 2 -1 3l-1 2l-1 3v1q0 1 -0.5 1.5t-0.5 1.5v1l-1 3v1l-1 1q-1 2 -1 3l-1 2q-1 2 -1 3v1q-1 1 -1 1.5t-0.5 1t-0.5 1.5t-1 2l-1 3l-1 2q-1 2 -1 3l-2 2q0 2 -1 3q0 1 -1 2l-1 3l-2 2q-1 2 -1 3v1l-1.5 1.5t-0.5 1.5l-1 1q-1 1 -1 2
q-1 2 -2 3l-1 2q-1 1 -1 2l-1 1l-2 3l-1 1v1q-1 2 -2 3q-1 2 -2 2q-1 2 -1 3l-2 2q-1 1 -2 3l-2 2l-2 3l-2 2q0 1 -1 1.5t-1 1t-1 1.5l-1 1q-1 2 -2 3l-2 2q0 1 -2 3l-3 3l-2 2l-2 2l-3 3q0 1 -2 3l-2 2l-3 3q-1 0 -1.5 1t-0.5 2l-2 1l-1 1l-3 2q-1 1 -1.5 2t-1.5 1l-3 3
q-1 1 -3 2l-3 2l-1 2q-1 1 -2 1q0 1 -1 1.5t-2 1.5l-3 2l-1 2l-2 1l-4 2l-3 3l-4 2l-3 3q-3 2 -4 2q-2 2 -4 3q-3 2 -4 2q-3 2 -4 3t-4 2q-1 1 -3 2l-1 1q-1 1 -4 3q-1 0 -2.5 1t-2.5 1l-2 1q-2 1 -3 2l-4 2q-4 2 -5 3q-1 0 -3 1t-3 1l-5 3q-2 1 -6 2q-1 1 -4 2l-1 1
q-3 1 -7 2q-5 3 -6 3l-7 2q-1 1 -3.5 1.5t-3.5 1.5q-2 1 -3.5 1.5t-4 1t-6.5 2.5h-2l-8 2l-10 3q-4 1 -11 3l-12 2q-9 2 -14 3q-5 0 -9.5 1t-9.5 1q-23 3 -47 3h-3q-25 0 -47 -3q-4 0 -8.5 -1t-10.5 -1q-8 -2 -14 -3l-12 -2q-7 -2 -10 -3q-6 -1 -10 -3l-8 -2q-2 0 -3 -0.5
t-3 -1t-2 -1.5q-5 -1 -8 -2q-1 0 -7 -3l-7 -2l-6 -3q-5 -2 -6 -2l-6 -3q-3 -1 -5 -2l-5 -3l-5 -2q-2 -1 -5 -3l-3 -2h-2l-5 -3l-4 -2l-4 -3q-1 0 -4 -3l-4 -2q-1 0 -4 -3q-1 0 -2 -1t-2 -1q-3 -2 -4 -3t-3 -2t-4 -3q-1 -1 -3 -2l-2 -2l-2 -1t-3 -2q0 -1 -1 -1.5t-2 -1.5
q-2 -2 -3 -2.5t-3 -2.5l-3 -2l-3 -3q-1 -1 -3 -2l-3 -3q0 -1 -1 -2q-1 0 -1 -1q-1 0 -3 -2q-1 -1 -2 -3h-1l-2 -2q-1 -1 -2 -3l-2 -2l-2 -2l-1 -1q-2 -1 -2 -2l-3 -3q0 -1 -2 -2q-1 -1 -2 -2.5t-2 -2.5q-2 -2 -2 -3l-1 -1q-1 -1 -1 -1.5t-1 -1t-1 -1.5q-1 -2 -2 -2
q-1 -2 -2 -3v-2l-2 -1l-2 -2v-1q-1 -1 -1 -2l-2 -2l-2 -3q-1 -1 -1 -2l-2 -2v-1l-2 -2q0 -1 -0.5 -1.5t-0.5 -1.5l-2 -2q-1 -2 -1 -3l-2 -2q-1 -2 -1 -3l-1 -2l-2 -2v-1l-1 -2q0 -1 -0.5 -2t-1 -1t-1.5 -3q0 -1 -1 -2q0 -2 -1 -3l-1 -2q-1 -2 -1 -2.5t-0.5 -1.5t-0.5 -1.5
t-1 -1.5v-2l-1 -1q-1 -2 -1 -3l-1 -2q-1 -2 -1 -3q-1 -1 -1 -2v-1l-1 -2v-1l-1 -1q0 -2 -1 -3v-2q-1 -2 -1 -3q-1 -2 -1 -3l-1 -2v-3q-1 -1 -1 -2v-1l-1 -2v-2q-1 -2 -1 -3v-2q0 -1 -0.5 -1.5t-0.5 -1.5v-2q0 -1 -0.5 -1.5t-0.5 -1.5v-2q-1 -2 -1 -3v-2v-3q-1 0 -1 -1v-1v-3
v-3v-1l-1 -1v-1v-2v-2v-3v-2q-1 -1 -1 -2v-1v-2v-3v-2v-3v-1v-1v-2v-1v-2v-3v-1v-1v-3v-1v-1v-2q0 -1 1 -1v-3v-2v-3v-1v-2l0.5 -0.5t0.5 -1.5v-2v-2v-1l1 -2v-3v-2l1 -2v-2v-2l1 -2v-1v-1q0 -1 1 -3v-1v-2l1 -2q0 -2 1 -3v-1v-2l1 -2l1 -1v-1v-2q1 -1 1 -2v-1q1 -2 1 -3v-1
q1 -1 1 -1.5t1 -1.5v-2q0 -1 1 -1v-3l1 -2q1 -2 1 -3l1 -2q1 -1 1 -2v-1l2 -2q0 -2 1 -3l1 -3q1 -1 1 -2t1 -3l1 -1v-1q1 -2 2 -3v-1l1 -1q1 -1 1 -3l2 -2q1 -2 1 -3q1 0 1 -2l2 -2v-1q1 -2 2 -2l1 -3q1 -2 2 -2l1 -3q1 0 1 -1q1 -1 1 -2l2 -2l2 -3v-1l1.5 -1.5t0.5 -1.5
q1 0 1 -1l1 -1l1 -1l2 -3l2 -2l2 -3l2 -2l2 -3l2 -2q2 -2 2 -3q1 0 1.5 -1t1.5 -1q0 -1 2 -3l2 -2l3 -3q0 -1 1 -2l1 -1l2 -2q1 0 1.5 -1t1.5 -2l1 -1l1 -1l2 -2l1 -1l1 -1q1 -1 2 -1l2 -3q1 0 2 -1t1 -1.5t1 -1t2 -1.5l3 -2l3 -3q1 -1 3 -2l3 -3l3 -2q0 -1 1 -2t1.5 -1
t1.5 -1t2 -1l3 -3q2 -2 4 -2q0 -1 3 -3l3 -3q3 -1 4 -2l2 -1l2 -2l1 -1v-1l-1 -3l-1 -2l-1 -3l-1 -2l-1 -3l-1 -2v-3l-1 -2l-3 -8l-1 -2v-3l-1 -3l-1 -2l-1 -3l-1 -2l-1 -3v-2l-1 -3l-1 -2l-1 -3l-1 -2l-1 -3l-1 -2v-3l-2 -5l-1 -3l-1 -2l-1 -3v-2l-1 -3l-1 -2l-1 -3l-1 -2
l-1 -3v-2l-1 -3l-1 -2l-1 -3l-1 -2l4 2l5 3l5 2l5 3l5 2l5 3l5 2l5 3l6 2l5 3l5 2l5 3l5 2l5 3l5 3l5 2l5 3l5 2l5 3l5 2l5 3l5 2l5 3l5 2l5 3q3 -1 7 -2t5 -1t5.5 -1t6.5 -1q7 -2 13 -3q3 0 13 -2q8 -2 14 -3q8 -1 18 -2q14 -2 29 -3h14h7h8q3 0 6.5 0.5t5.5 0.5h7l-1 2v2
q0 1 -0.5 1.5l-0.5 0.5v2q-1 1 -1 2v2v1l-1 1l-1 3v2q-1 2 -1 3v1v1v2l-1 1v1v2q0 1 -1 2v3v2l-1 1v2v2v3v1q-1 1 -1 2v2v1v1v2v1l-1 2v1v2v1v1v2v2v2v1v1v3v2v3v2v3v2v1v2v2v3l1 2v3v2v3q0 2 0.5 2.5t0.5 2.5v1v1l1 3v2v3l1 1v2v2q0 1 0.5 1.5t0.5 1.5v1v1v1q1 1 1 2v2l1 3
v2q0 1 1 1v2q0 1 1 2v2v1l1 2v2l1 1q0 2 1 2v3l1 2q1 2 1 3v1q1 1 1 2q1 1 1 2l1 3l1 2q0 1 0.5 1.5t0.5 1t1 1.5v1v2l1 1v1q1 1 1 2q1 1 1 2l1 2l1 3q1 0 1 1t1 1q0 1 1 3v1q1 1 1 1.5t0.5 1.5t1.5 1l1 2l1 3q1 1 1 1.5t1 1.5v1l1 1q1 2 2 3v1zM491 683q21 0 33 -12.5
t12 -32.5t-12 -32t-33 -12t-37 12.5t-16 32t16 32t37 12.5zM241 594q-21 0 -37.5 12.5t-16.5 32t16.5 32t37.5 12.5q20 0 32.5 -12.5t12.5 -32.5t-12.5 -32t-32.5 -12zM1024 298v2v2v1v1v2v2v1q-1 1 -1 2v2v2v2v1v1q0 1 -1 2v1v2v2v1v1l-1 2v1v1l-1 2v2v2l-1 1v2v1l-1 1v1v1
v2l-1 1v2l-1 2v1v1v1l-1 1v1q0 1 -0.5 1.5t-0.5 1.5t-0.5 1.5t-0.5 1.5t-1 2v2v1l-1 1q-1 1 -1 2v1q0 1 -1 1v1q0 1 -1 2v2l-1 2l-1 2q-1 2 -1 2.5t-1 1.5v1l-1 2q-1 1 -1 2l-1 2l-1 1v1l-1 2l-1 2l-1 1q0 1 -1 1v1l-1 2q-1 1 -1 1.5v1.5l-1 1l-2 2v2h-1l-1 2l-2 3l-1 2
q-1 1 -1 2q-1 0 -1 1l-1 1l-1 2q-1 2 -2 2v1q-1 0 -1 1l-1 1l-1 1l-1 1q0 1 -1 1q0 1 -1 2q-2 2 -2 3l-2 2l-2 2v1l-1 1l-2 2l-2 2l-2 2l-1 1l-1 1q0 1 -1 1.5t-1 1.5l-2 2l-1 1l-1 1l-1 1l-1 1l-1 1l-1 1l-1 1q-1 1 -2 1q-2 2 -2 3q-2 1 -2 2l-3 2l-1 1l-1 1q-2 2 -3 2
l-2 2l-3 3l-1 1l-1 1l-3 2l-1 1l-2 1q-2 2 -3 2l-3 3l-1 1l-2 1l-3 2l-1 1q-1 1 -2 1l-3 2l-1 1l-2 1q-2 1 -4 3h-1q-2 1 -2 2q-1 0 -2 1t-2 1q-3 2 -4 2l-1 1q-2 1 -2.5 1.5t-2.5 0.5q-1 1 -2 1q0 1 -1.5 1.5t-2.5 1.5q-3 1 -4 2q-3 1 -5 2l-2 1q-1 1 -2 1t-3 1q-1 1 -2 1
q-1 1 -2.5 1.5t-2.5 0.5q0 1 -2 1.5t-3 1t-3 1t-3 0.5l-3 2q-2 1 -3 1t-3 1t-3 1q-3 1 -7 2q-1 1 -3.5 1.5t-3.5 0.5q-1 1 -2 1q-4 1 -6 2q-2 0 -4 0.5t-4 1.5q-4 1 -10 2q-4 0 -12 1q-7 1 -15 2q-10 1 -19.5 2t-19.5 1h-2q-10 0 -20 -1l-20 -2q-7 0 -16 -2q-3 0 -6 -0.5
t-6 -1.5q-4 -1 -10 -2q-2 -1 -3.5 -1.5t-5.5 -0.5l-8 -2q-2 -1 -5 -2q-2 0 -2 -1q-5 -1 -7 -2l-6 -2q-1 0 -3 -1l-3 -1l-6 -2q-1 -1 -2.5 -1.5t-2.5 -1l-3 -1.5h-2q-2 -1 -5 -3q-1 0 -3 -1l-2 -1l-4 -2q-2 -1 -5 -2l-4 -2q-3 -2 -4 -2q-2 -2 -4 -3l-3 -2q-1 0 -3 -1l-1 -1
q-3 -1 -4 -2q-2 -2 -3 -2q-2 -1 -3 -2q-2 -2 -3 -2q-1 -1 -2 -1.5t-2 -1.5q-2 -1 -3 -2q-2 -1 -3 -2l-2 -2l-3 -2q-2 -2 -3 -2l-3 -2q0 -1 -1 -1.5t-1 -1.5l-3 -2l-2 -2l-3 -2l-1 -1l-1 -1l-2 -2q-1 -1 -3 -2q-1 -2 -2 -3l-2 -2l-2 -2l-2 -2l-2 -2l-1 -1l-1 -1q-2 -2 -2 -3
l-2 -2l-2 -2l-2 -2l-2 -2q0 -1 -2 -2l-1 -2l-2 -3v-1l-2 -1l-1 -2q-1 0 -1 -1l-1 -1q-1 -1 -1 -2l-2 -1v-1l-1 -2q0 -1 -1 -1l-1 -2l-1 -2l-1 -2q-1 0 -1 -1l-1 -1q-1 -1 -1 -2t-1 -2q-1 -2 -2 -3l-1 -2l-1 -2l-1 -2q-1 -1 -1 -2q-1 -1 -1 -2q-1 0 -1 -1t-1 -2q0 -1 -1 -2
l-1 -2v-1l-1 -1l-1 -2q0 -1 -1 -2l-1 -2v-2q-1 -2 -1 -3l-1 -1v-1l-1 -2q0 -1 -1 -2v-1v-1l-1 -2l-1 -2q0 -2 -1 -3v-2l-1 -1v-1l-1 -2v-2q0 -1 -1 -2q0 -2 -0.5 -2.5t-0.5 -1.5v-1v-2q-1 0 -1 -1v-1v-2l-1 -1v-1v-2q-1 -2 -1 -3v-2v-2l-1 -2v-2v-2l-1 -2v-3v-2v-2
q-1 -1 -1 -2v-2v-1v-1v-3v-2v-2v-1v-1v-2v-2v-2v-1v-2v-2v-2v-1v-1v-2v-2v-1v-1v-3v-2q0 -1 0.5 -2t0.5 -2v-2v-1v-1v-2q1 -2 1 -3v-1v-1l1 -2v-2v-2l1 -2v-3q0 -1 1 -2v-2v-1v-1l1 -2v-2q1 -2 1 -3q1 -1 1 -2v-1q0 -1 1 -2v-1q0 -2 1 -2v-2q0 -1 0.5 -1.5t0.5 -1.5t1 -2
q0 -2 1 -2v-2l1 -2l1 -2q0 -2 1 -2q0 -2 1 -3q0 -1 1 -2l1 -2v-1v-1q1 -2 2 -3q0 -1 0.5 -1.5l0.5 -0.5v-2l2 -2q0 -1 1 -2q0 -1 1 -2l1 -2q1 -2 1 -3q1 -1 1 -2v-1l1 -1l2 -2q0 -2 1 -2l1 -2q1 -2 2 -3t1 -1.5t0.5 -1.5t1 -1t0.5 -1l1 -1q0 -1 1 -2q0 -1 0.5 -1.5t1.5 -0.5
q1 -2 1 -3l2 -2l1 -2l2 -2v-1q1 -1 2 -1l1 -2q2 -2 2 -3q2 -1 2 -2l2 -2l1 -1q0 -1 1 -1q1 -2 2 -2q1 -2 2 -2v-1l1 -2q1 0 2 -1l1 -1l2 -2h1l1 -1l1 -1l1 -1l2 -2q0 -1 1 -1.5t1 -1.5l1 -1q1 0 2 -1l2 -2l2 -2q1 0 1.5 -1t1 -1.5t1.5 -0.5l1 -1q3 -2 3 -3q2 -1 3 -2l1 -1
l1 -1l3 -2q2 -2 3 -2q1 -1 3 -2q1 -1 2 -1.5t1 -1.5l3 -2h1q2 -1 2 -2q1 0 2 -1t2 -1l1 -1q1 -1 2 -1q0 -1 1 -1q2 -1 2.5 -1.5t2 -1t1.5 -1.5q3 -1 4 -1.5t2 -1.5t2 -1q3 -1 4 -2l2 -1l2 -1q1 -1 2 -1.5t2 -0.5q4 -2 4.5 -2.5t2 -1t2.5 -1t2.5 -1.5t2.5 -1t3 -1l2 -1
q2 -1 5 -2q1 -1 3 -1.5t3 -0.5l6 -3q1 0 3 -1l3 -1q2 0 7 -2q1 0 3.5 -1t3.5 -1q3 -1 8 -2q4 -1 9 -2q4 -1 10 -3l12 -2q2 0 4 -0.5t4 -0.5t4 -0.5t4 -0.5q14 -2 27 -2h7h8h12q11 0 23 2l14 2q4 1 11 2q7 2 10 3q7 1 10 2q6 1 9 2q6 1 8 2l9 2l1 1l1 -1l4 -2l4 -2l4 -2l4 -2
l4 -3l4 -2l4 -2l4 -2l4 -2l4 -2l4 -3l4 -2l3 -2l4 -2l4 -2l4 -2l4 -3l4 -2l4 -2l4 -2l4 -2l4 -2l4 -3l4 -2l3 -1l-1 1v2l-1 3l-1 2v2l-1 2l-1 2v2l-1 3l-1 2v2l-1 2v2l-1 2l-1 3v2l-1 2l-1 2v2l-1 2l-1 3v2l-1 2v2l-1 2l-1 2v3l-1 2l-1 2v2l-1 2l-1 2v3l-1 2l-1 2v2l-1 2v2
l-1 3l-1 2v2l-1 1l1 1q2 2 3 2q0 1 1 1.5t2 0.5l3 3l2 2q2 1 3 2t2.5 2t2.5 2l3 2l2 3q2 1 3 2l2 2q1 0 1.5 1t1.5 1l2 2l2 2l3 3l2 2l2 2l1 1l1 1l2 2q2 2 3 2q1 2 2 3l1 2h1v1l2 1v1l2 1l1 2l1 1l1 1l3 3q1 1 1 2h1l1 2q1 2 2 2q1 2 2 2l1 2q1 1 2 3l2 2q1 1 1 2l2 2
q1 1 1 2l2 2q1 2 1 3q2 1 2 2q1 1 1 2q1 1 1.5 2t1.5 2q1 2 2 2q1 2 1 3q1 1 1 2q1 1 1 2q1 0 2 1v1q0 1 1 2v1l1 2q1 1 1 2l1 2q1 2 1.5 2t0.5 1v1l2 2q0 2 1 3t1 2q1 1 1 2l1 2l1 2v1q0 1 1 1v2q1 2 1 3q1 1 1 2l1 2q0 1 1 2v2l1 2q1 2 1 3v2q1 1 1 2l1 2v2q1 2 1 3v2
q1 1 1 2v2v1l1 1v2q0 1 1 2v2v1v2l1 2v1v1v2v1v2l0.5 0.5t0.5 1.5v2v2v1v1v2v1v2v1v1v2v2v1zM622 340q-14 0 -25 11t-11 24.5t11.5 24.5t24.5 11t23.5 -5t16 -13t5.5 -17t-5.5 -17.5t-16 -13.5t-23.5 -5zM818 340q-8 0 -16.5 5t-13.5 13.5t-5 17.5q0 13 11 24t24 11
q8 0 15.5 -2t12.5 -5.5t9 -8t6 -9.5t2 -10q0 -14 -12.5 -25t-32.5 -11z" />
    <glyph glyph-name="uniE668" unicode="&#xe668;" 
d="M768 704q26 0 45 19t19 45v64q0 26 -19 45t-45 19t-45 -19t-19 -45v-64q0 -26 19 -45t45 -19zM256 704q26 0 45 19t19 45v64q0 26 -19 45t-45 19t-45 -19t-19 -45v-64q0 -26 19 -45t45 -19zM896 832v-64q0 -53 -37.5 -90.5t-90.5 -37.5t-90.5 37.5t-37.5 90.5v64h-256
v-64q0 -53 -37.5 -90.5t-90.5 -37.5t-90.5 37.5t-37.5 90.5v64q-53 0 -90.5 -37.5t-37.5 -90.5v-704q0 -53 37.5 -90.5t90.5 -37.5h768q53 0 90.5 37.5t37.5 90.5v704q0 53 -37.5 90.5t-90.5 37.5zM896 64q0 -26 -19 -45t-45 -19h-640q-26 0 -45 19t-19 45v384q0 26 19 45
t45 19h640q26 0 45 -19t19 -45v-384z" />
    <glyph glyph-name="uniE669" unicode="&#xe669;" 
d="M448 832h-320q-53 0 -90.5 -37.5t-37.5 -90.5v-640q0 -53 37.5 -90.5t90.5 -37.5h768q53 0 90.5 37.5t37.5 90.5v576h-384zM1024 704q0 26 -19 45t-45 19h-320l64 -64h320z" />
    <glyph glyph-name="uniE66A" unicode="&#xe66a;" 
d="M448 832h-320q-53 0 -90.5 -37.5t-37.5 -90.5v-640q0 -53 37.5 -90.5t90.5 -37.5h768q53 0 90.5 37.5t37.5 90.5v576h-384zM896 128q0 -26 -19 -45t-45 -19h-640q-26 0 -45 19t-19 45v512q0 26 19 45t45 19h192l192 -192h320v-384zM1024 704q0 26 -19 45t-45 19h-320
l64 -64h320z" />
    <glyph glyph-name="uniE66B" unicode="&#xe66b;" 
d="M19 109q-9 -9 -14 -20.5t-5 -24.5v-128q0 -26 19 -45t45 -19h128q13 0 24.5 5t20.5 14l595 595l-218 218zM192 0h-64v64l478 478l62 -66zM1005 749l-128 128q-19 19 -45 19t-45 -19l-83 -83l218 -218l83 83q19 19 19 45t-19 45z" />
    <glyph glyph-name="uniE66C" unicode="&#xe66c;" horiz-adv-x="1025" 
d="M1005 624q-18 19 -44.5 19t-44.5 -19l-404 -407l-404 407q-18 19 -44.5 19t-45 -19t-18.5 -45.5t19 -44.5l448 -453q9 -9 21 -14t24 -5t24 5t21 14l448 453q13 12 17 28.5t0 33t-17 28.5z" />
    <glyph glyph-name="uniE66D" unicode="&#xe66d;" 
d="M592 484l-320 256q-36 28 -80 28q-53 0 -90.5 -37.5t-37.5 -90.5v-512q0 -53 37.5 -90.5t90.5 -37.5q44 0 80 28l320 256v1q48 38 48 99t-48 100zM832 768q-53 0 -90.5 -37.5t-37.5 -90.5v-512q0 -53 37.5 -90.5t90.5 -37.5t90.5 37.5t37.5 90.5v512q0 53 -37.5 90.5
t-90.5 37.5z" />
    <glyph glyph-name="uniE66E" unicode="&#xe66e;" 
d="M882 484q-21 81 -74.5 145.5t-131 101.5t-164.5 37q-152 0 -263 -104q-79 -76 -107 -180q-64 -32 -103 -93t-39 -135q0 -106 75 -181t181 -75h256q-9 0 -17 2.5t-15 6.5t-13 10l-128 128q-6 6 -10 13t-6.5 15t-2.5 17q0 26 19 45t45 19q9 0 17 -2.5t15 -6.5t13 -10
l19 -19v166q0 26 19 45t45 19t45 -19t19 -45v-166l19 19q19 19 45 19t45 -19t19 -45t-19 -45l-128 -128q-19 -19 -45 -19h256q106 0 181 75t75 181q0 74 -39 135t-103 93z" />
    <glyph glyph-name="uniE66F" unicode="&#xe66f;" 
d="M882 484q-21 81 -74.5 145.5t-131 101.5t-164.5 37q-152 0 -263 -104q-79 -76 -107 -180q-64 -32 -103 -93t-39 -135q0 -106 75 -181t181 -75q26 0 45 19t19 45t-19 45t-45 19q-53 0 -90.5 37.5t-37.5 90.5t37.5 90.5t90.5 37.5q0 106 75 181t181 75t181 -75t75 -181
q53 0 90.5 -37.5t37.5 -90.5t-37.5 -90.5t-90.5 -37.5q-26 0 -45 -19t-19 -45t19 -45t45 -19q106 0 181 75t75 181q0 74 -39 135t-103 93zM640 256q-26 0 -45 -19l-19 -19v166q0 26 -19 45t-45 19t-45 -19t-19 -45v-166l-19 19q-19 19 -45 19t-45 -19t-19 -45t19 -45
l128 -128q19 -19 45 -19t45 19l128 128q19 19 19 45t-19 45t-45 19z" />
    <glyph glyph-name="uniE670" unicode="&#xe670;" horiz-adv-x="1025" 
d="M88 448h868q26 3 46.5 31.5t21.5 64.5q0 10 -1.5 19.5t-5 18t-8.5 16t-11 14.5l-176 192q-12 13 -28 20.5t-34 7.5q-36 0 -62 -28t-26 -68v-96h-584q-48 0 -74 -45q-14 -24 -14 -51q0 -26 12 -48t32 -35t44 -13zM936 320h-868q-35 -4 -56 -48q-11 -23 -12 -48
q-1 -19 6 -36.5t20 -31.5l176 -192q26 -28 62 -28q12 0 23.5 3.5t21 9.5t17.5 15t14 19.5t9 23t3 25.5v96h584q37 0 62.5 28t25.5 68t-25.5 68t-62.5 28z" />
    <glyph glyph-name="uniE671" unicode="&#xe671;" 
d="M953 114l-123 209l1 61l1 97q0 76 -23.5 141t-66.5 112t-102 73q-3 37 -39.5 63t-87.5 26t-87.5 -26t-39.5 -63q-89 -38 -140.5 -125t-51.5 -201v-158l-123 -208q-6 -13 -6 -34q0 -34 20 -57.5t49 -23.5h251q0 -60 35 -94t93 -34t93 34t35 94h249q30 0 50 22t19 59v2v10
q0 4 -1.5 10t-4.5 11z" />
    <glyph glyph-name="uniE672" unicode="&#xe672;" 
d="M513 768h2l4 -49l71 -30q26 -11 47.5 -31t36 -46.5t22.5 -59.5t8 -69l-1 -98l-1 -61v-36l18 -30l76 -130h-155h-128h-128h-157l76 130l18 30v35v158q0 75 30 130t84 78l70 30l5 49h2zM513 896q-51 0 -87.5 -26t-39.5 -63q-59 -26 -102.5 -73t-66.5 -112t-23 -141v-158
l-123 -208q-6 -13 -6 -34q0 -34 20 -57.5t49 -23.5h251q0 -60 35 -94t93 -34t93 34t35 94h249q30 0 50 22t19 59q0 23 -6 33l-123 209l1 61l1 97q0 76 -23.5 141t-66.5 112t-102 73q-3 37 -39.5 63t-87.5 26z" />
    <glyph glyph-name="uniE673" unicode="&#xe673;" 
d="M64 -46v110h-64q0 -35 17.5 -64t46.5 -46zM64 814q-29 -17 -46.5 -46t-17.5 -64v-384h64v494zM384 832h-128v-512h128v512zM192 832h-64v-512h64v512zM832 832h-64v-512h64v512zM704 832h-128v-512h128v512zM512 832h-64v-512h64v512zM768 -64h64v128h-64v-128zM896 832
v-512h128v384q0 53 -37.5 90.5t-90.5 37.5zM576 -64h128v128h-128v-128zM128 -64h64v128h-64v-128zM896 -64q53 0 90.5 37.5t37.5 90.5h-128v-128zM448 -64h64v128h-64v-128zM256 -64h128v128h-128v-128zM992 256h-960q-13 0 -22.5 -9.5t-9.5 -22.5v-64q0 -13 9.5 -22.5
t22.5 -9.5h960q13 0 22.5 9.5t9.5 22.5v64q0 13 -9.5 22.5t-22.5 9.5z" />
    <glyph glyph-name="uniE674" unicode="&#xe674;" 
d="M768 704q26 0 45 19t19 45v64q0 26 -19 45t-45 19t-45 -19t-19 -45v-64q0 -26 19 -45t45 -19zM256 704q26 0 45 19t19 45v64q0 26 -19 45t-45 19q-27 0 -45.5 -18.5t-18.5 -45.5v-64q0 -26 19 -45t45 -19zM896 832v-64q0 -53 -37.5 -90.5t-90.5 -37.5t-90.5 37.5
t-37.5 90.5v64h-256v-64q0 -53 -37.5 -90.5t-90.5 -37.5t-90.5 37.5t-37.5 90.5v64q-53 0 -90.5 -37.5t-37.5 -90.5v-704q0 -53 37.5 -90.5t90.5 -37.5h768q53 0 90.5 37.5t37.5 90.5v704q0 53 -37.5 90.5t-90.5 37.5zM896 64q0 -26 -19 -45t-45 -19h-640q-26 0 -45 19
t-19 45v384q0 26 19 45t45 19h640q26 0 45 -19t19 -45v-384zM624 414l-180 -180l-44 45q-19 18 -45.5 18t-45 -18.5t-18.5 -45t19 -45.5l90 -90q12 -13 28.5 -17.5t33 0t28.5 17.5q2 1 4 4l1 3l219 219q19 19 19 45.5t-19 44.5q-12 13 -28.5 17t-33 0t-28.5 -17z" />
    <glyph glyph-name="uniE675" unicode="&#xe675;" 
d="M896 0h-768q-53 0 -90.5 37.5t-37.5 90.5v512q0 53 37.5 90.5t90.5 37.5h768q53 0 90.5 -37.5t37.5 -90.5v-512q0 -53 -37.5 -90.5t-90.5 -37.5zM896 576q0 26 -19 45t-45 19h-640q-26 0 -45 -19t-19 -45v-64h768v64zM896 384h-768v-192q0 -26 19 -45t45 -19h640
q26 0 45 19t19 45v192zM384 192h-128q-26 0 -45 19t-19 45t19 45t45 19h128q26 0 45 -19t19 -45t-19 -45t-45 -19z" />
    <glyph glyph-name="uniE676" unicode="&#xe676;" 
d="M832 386h-128q0 79 56 135.5t136 56.5q27 0 45.5 18.5t18.5 45t-19 45.5t-45 19q-87 0 -160.5 -43t-116.5 -116.5t-43 -160.5v-256q0 -53 37.5 -90.5t90.5 -37.5h128q53 0 90.5 37.5t37.5 90.5v128q0 35 -17 64.5t-46.5 46.5t-64.5 17zM384 578q17 0 32 8.5t23.5 23
t8.5 32.5q0 26 -19 45t-45 19q-87 0 -160.5 -43t-116.5 -116.5t-43 -160.5v-256q0 -53 37.5 -90.5t90.5 -37.5h128q53 0 90.5 37.5t37.5 90.5v128q0 53 -37.5 90.5t-90.5 37.5h-128q0 79 56 135.5t136 56.5z" />
    <glyph glyph-name="uniE677" unicode="&#xe677;" 
d="M320 703h-128q-53 0 -90.5 -37.5t-37.5 -90.5v-128q0 -53 37.5 -90.5t90.5 -37.5h128q0 -79 -56 -135.5t-136 -56.5q-27 0 -45.5 -18.5t-18.5 -45t19 -45.5t45 -19q87 0 160.5 43t116.5 116.5t43 160.5v256q0 53 -37.5 90.5t-90.5 37.5zM832 703h-128q-53 0 -90.5 -37.5
t-37.5 -90.5v-128q0 -53 37.5 -90.5t90.5 -37.5h128q0 -79 -56 -135.5t-136 -56.5q-27 0 -45.5 -18.5t-18.5 -45t19 -45.5t45 -19q87 0 160.5 43t116.5 116.5t43 160.5v256q0 53 -37.5 90.5t-90.5 37.5z" />
    <glyph glyph-name="uniE678" unicode="&#xe678;" horiz-adv-x="1025" 
d="M512 896h-256q-63 0 -122.5 -38t-96.5 -97.5t-37 -120.5v-256l512 -512h128l384 384v128zM288 512q-39 0 -67.5 28t-28.5 68t28.5 68t68 28t67.5 -28t28 -68q0 -16 -4.5 -30.5t-13.5 -26.5t-21 -20.5t-26.5 -13.5t-30.5 -5z" />
    <glyph glyph-name="uniE679" unicode="&#xe679;" horiz-adv-x="1025" 
d="M512 896h-256q-63 0 -122.5 -38t-96.5 -97.5t-37 -120.5v-256l512 -512h128l384 384v128zM574 0l-446 435v143q0 70 59.5 130t131.5 60h142l435 -446zM352 640q-19 0 -37 -7.5t-30.5 -20.5t-20.5 -31t-8 -37.5t8 -37t20.5 -30.5t30.5 -20.5t37.5 -7.5t37 7.5t30.5 20.5
t20.5 30.5t7.5 37.5q0 26 -12.5 48t-35 35t-48.5 13z" />
    <glyph glyph-name="uniE67A" unicode="&#xe67a;" 
d="M813 429l-449 448q-7 8 -16 12.5t-19 6t-19.5 0t-18.5 -6t-17 -12.5q-18 -18 -18 -44.5t18 -44.5l404 -404l-404 -404q-18 -18 -18 -44.5t18 -44.5q8 -8 17 -12.5t18.5 -6t19.5 0t19 6t16 12.5l449 448q19 19 19 45t-19 45z" />
    <glyph glyph-name="uniE67B" unicode="&#xe67b;" 
d="M704 0q-53 0 -90.5 37.5t-37.5 90.5v512q0 53 37.5 90.5t90.5 37.5t90.5 -37.5t37.5 -90.5v-512q0 -53 -37.5 -90.5t-90.5 -37.5zM320 0q-53 0 -90.5 37.5t-37.5 90.5v512q0 53 37.5 90.5t90.5 37.5t90.5 -37.5t37.5 -90.5v-512q0 -53 -37.5 -90.5t-90.5 -37.5z" />
    <glyph glyph-name="uniE67C" unicode="&#xe67c;" horiz-adv-x="1026" 
d="M875 513l-275 -1q30 75 37 146.5t-3.5 119t-32.5 72.5q-21 24 -48.5 35t-52.5 9t-46.5 -12.5t-32.5 -27.5q-13 -15 -25 -59.5t-17 -72t-7 -44.5q-5 -30 -17.5 -56t-25 -40.5t-33 -29t-29 -19t-26.5 -12.5q-6 -4 -15.5 -6.5t-17.5 -3.5t-16 -1h-12h-5h-46q-35 0 -65 -16.5
t-47 -44.5t-17 -61v-393q0 -51 37.5 -87t91.5 -36h46h528q32 0 56.5 4.5t50 17.5t46.5 38.5t39 63.5l115 301q10 34 13.5 62.5t0.5 49.5t-10 37.5t-19 27.5t-25.5 18.5t-30 12t-32 6t-32.5 2.5zM192 -1h-20q-18 0 -31 13t-13 32v294q0 10 3.5 18t9.5 14t14 9.5t17 3.5h20
v-384z" />
    <glyph glyph-name="uniE67D" unicode="&#xe67d;" horiz-adv-x="1026" 
d="M875 513h-275q30 75 37 146.5t-3.5 119t-32.5 72.5q-27 32 -65 40.5t-69 -2.5t-46 -35q-13 -15 -25 -59.5t-17 -71.5t-7 -44q-4 -26 -12.5 -47.5t-22 -37.5t-23.5 -27t-27.5 -21.5t-24 -13.5t-21.5 -10q-10 -6 -26.5 -9t-27.5 -2h-12h-46q-54 0 -91.5 -36t-37.5 -87v-392
q0 -51 37.5 -87t91.5 -36h46h528q66 -1 112 24.5t80 99.5l115 300q10 34 13.5 63t0.5 50t-10 37.5t-19 27.5t-25.5 18.5t-30 11.5t-32 6t-32.5 2zM192 0h-20q-9 0 -17 3.5t-14 9.5t-9.5 14.5t-3.5 17.5v294q0 9 3.5 17.5t9.5 14.5t14 9.5t17 3.5h20v-384zM869 308
q-7 -20 -18.5 -51t-38 -96.5t-40.5 -93.5q-10 -20 -22.5 -33t-23 -19.5t-28 -10t-27.5 -4t-32 -0.5h-320v411q146 104 164 330q1 33 22 39q20 5 28 -20l2 -9q4 -13 4 -31t-4 -42.5t-9.5 -49.5t-14 -53.5t-17.5 -55t-18.5 -52.5t-17 -46t-14.5 -37h174q66 0 133.5 -0.5
t74.5 -0.5q67 0 43 -75z" />
    <glyph glyph-name="uniE67E" unicode="&#xe67e;" 
d="M896 768h-768q-53 0 -90.5 -37.5t-37.5 -90.5v-576q0 -53 37.5 -90.5t90.5 -37.5h768q53 0 90.5 37.5t37.5 90.5v576q0 53 -37.5 90.5t-90.5 37.5zM128 576q0 26 19 45t45 19h640q13 0 25 -5t20.5 -13.5t13.5 -20.5t5 -25v-12q-290 -170 -320 -180q-42 -14 -64 -15
t-64 15q-25 11 -320 182v10zM896 128q0 -27 -19 -45.5t-45 -18.5h-640q-26 0 -45 18.5t-19 45.5v279q258 -141 308 -163q43 -17 75 -17.5t75 17.5q46 20 310 163v-279z" />
    <glyph glyph-name="uniE67F" unicode="&#xe67f;" 
d="M512 896q-139 0 -257 -68.5t-186.5 -186.5t-68.5 -257t68.5 -257t186.5 -186.5t257 -68.5t257 68.5t186.5 186.5t68.5 257t-68.5 257t-186.5 186.5t-257 68.5zM749 467l-256 -256q-4 -5 -9 -8.5t-11 -5.5t-12 -3.5t-13 -1.5q-26 0 -45 19l-128 128q-19 18 -19 45
q0 17 8.5 32t23.5 23.5t32 8.5q9 0 17 -2.5t15 -6.5t13 -10l83 -82l211 210q18 19 45 19q9 0 17 -2.5t15 -6.5t13 -10t10 -13t6.5 -15t2.5 -17q0 -26 -19 -45z" />
    <glyph glyph-name="uniE680" unicode="&#xe680;" 
d="M512 896q-139 0 -257 -68.5t-186.5 -186.5t-68.5 -257t68.5 -257t186.5 -186.5t257 -68.5t257 68.5t186.5 186.5t68.5 257t-68.5 257t-186.5 186.5t-257 68.5zM512 0q-159 0 -271.5 112.5t-112.5 271.5t112.5 271.5t271.5 112.5t271.5 -112.5t112.5 -271.5t-112.5 -271.5
t-271.5 -112.5zM704 576q-27 0 -45 -19l-211 -210l-83 82q-19 19 -45 19t-45 -19t-19 -45q0 -9 2.5 -17t6.5 -15t10 -13l128 -128q19 -19 45 -19q13 0 24.5 5t20.5 14l256 256q19 19 19 45q0 10 -3 20t-9 18t-14 14t-18 9t-20 3z" />
    <glyph glyph-name="uniE681" unicode="&#xe681;" 
d="M512 896q-139 0 -257 -68.5t-186.5 -186.5t-68.5 -257t68.5 -257t186.5 -186.5t257 -68.5t257 68.5t186.5 186.5t68.5 257t-68.5 257t-186.5 186.5t-257 68.5zM672 331q0 1 -48.5 -30.5t-97.5 -63.5l-48 -32q-9 -6 -23.5 -10t-31 -3t-27.5 15t-11 40v268q-1 33 15 48
t37 13.5t39 -13.5q0 -1 21 -14.5t50 -32.5l58 -38q29 -19 49 -32l20 -14q44 -32 24 -73q-9 -16 -26 -28z" />
    <glyph glyph-name="uniE682" unicode="&#xe682;" 
d="M512 896q-159 0 -271.5 -112.5t-112.5 -271.5t112.5 -271.5t271.5 -112.5t271.5 112.5t112.5 271.5t-112.5 271.5t-271.5 112.5zM512 256q-106 0 -181 75t-75 181t75 181t181 75t181 -75t75 -181t-75 -181t-181 -75zM256 145v-209q0 -7 1.5 -13t3.5 -12q5 -11 14 -20
t20.5 -14t24.5 -5t25 5q11 5 20 14l147 147l147 -147q19 -19 45 -19t45 19t19 45v209q-115 -81 -256 -81t-256 81z" />
    <glyph glyph-name="uniE683" unicode="&#xe683;" 
d="M932 676q-10 -6 -51 -31t-77 -47l-36 -22v64q0 53 -37.5 90.5t-90.5 37.5h-512q-53 0 -90.5 -37.5t-37.5 -90.5v-512q0 -53 37.5 -90.5t90.5 -37.5h512q53 0 90.5 37.5t37.5 90.5v64q132 -76 160 -94q32 -21 53.5 -15.5t32 19t10.5 26.5v512q0 11 -6 23t-16.5 20.5
t-29 7.5t-40.5 -15zM896 256l-128 64h-96q-13 0 -22.5 -9.5t-9.5 -22.5v-96q0 -26 -19 -45t-45 -19h-384q-26 0 -45 19t-19 45v384q0 26 19 45t45 19h384q26 0 45 -19t19 -45v-96q0 -13 9.5 -22.5t22.5 -9.5h96l128 64v-256z" />
    <glyph glyph-name="uniE684" unicode="&#xe684;" 
d="M896 896h-576q-53 0 -90.5 -37.5t-37.5 -90.5h576q53 0 90.5 -37.5t37.5 -90.5v-576q53 0 90.5 37.5t37.5 90.5v576q0 53 -37.5 90.5t-90.5 37.5zM704 704h-576q-53 0 -90.5 -37.5t-37.5 -90.5v-576q0 -53 37.5 -90.5t90.5 -37.5h576q53 0 90.5 37.5t37.5 90.5v576
q0 53 -37.5 90.5t-90.5 37.5zM192 640q26 0 45 -19t19 -45t-19 -45t-45 -19t-45 19t-19 45t19 45t45 19zM704 64q0 -26 -19 -45t-45 -19h-448q-26 0 -45 19t-19 45v352q0 13 9.5 22.5t22.5 9.5h512q13 0 22.5 -9.5t9.5 -22.5v-352z" />
    <glyph glyph-name="uniE685" unicode="&#xe685;" 
d="M130 261v-261q0 -53 37.5 -90.5t90.5 -37.5h128v256q0 26 19 45t45 19h128q10 0 20 -3.5t18 -9.5t13.5 -13.5t9 -17.5t3.5 -20v-128h128h-128v-64q0 -17 8.5 -32t23 -23.5t32.5 -8.5h-64h128q53 0 90.5 37.5t37.5 90.5v250l-389 390zM386 -128h-64q27 0 45.5 19t18.5 45
v-64zM386 0h-128v-128v128h128zM1014 407l-444 443l-35 37q-9 9 -23 9t-23 -9l-35 -37l-444 -443q-4 -5 -6.5 -10.5t-2 -11.5t3 -12t6.5 -11l45 -45q9 -9 21.5 -9.5t21.5 7.5l412 412l43 -42l344 -344v1l25 -26q9 -9 22 -8.5t23 9.5l45 45q9 10 9.5 23t-8.5 22z" />
    <glyph glyph-name="uniE686" unicode="&#xe686;" 
d="M1013 407l-444 443l-35 37q-9 9 -23 9h-5l-6 -2q-2 0 -4 -1t-4.5 -2.5t-4.5 -3.5l-34 -37l-444 -443q-4 -5 -6.5 -10.5t-2.5 -11.5t2.5 -12t7.5 -11l45 -45q10 -9 23 -9.5t22 8.5l29 30v-346q0 -35 17 -64.5t46.5 -46.5t64.5 -17h512q53 0 90.5 37.5t37.5 90.5v342
l25 -26q9 -9 22 -8.5t22 9.5l46 45q9 10 9.5 23t-8.5 22zM769 448v-397q0 -21 -15 -36t-37 -15h-409q-21 0 -36 15t-15 36v397h-26h26v26l254 254l258 -258v-22h22h-22z" />
    <glyph glyph-name="uniE687" unicode="&#xe687;" 
d="M345 384l404 404q19 18 19 44.5t-18.5 45t-45 18.5t-45.5 -19l-449 -448q-12 -12 -16.5 -28.5t0 -33t16.5 -28.5l449 -448q19 -19 45.5 -19t45 18.5t18.5 45t-19 44.5z" />
    <glyph glyph-name="uniE688" unicode="&#xe688;" 
d="M832 -128h-64h-512h-64q-35 0 -64.5 17t-46.5 46.5t-17 64.5v704q0 53 37.5 90.5t90.5 37.5h64h64q0 6 1 11.5t4 11.5l2 5q2 4 4.5 7.5t4.5 6.5q1 0 2.5 2t2.5 3q9 8 18 12q4 2 8 3t8.5 1.5t8.5 0.5h64h128h64q13 0 25 -5q9 -4 18 -12q1 -1 3 -4l2 -1q5 -6 9 -14
q2 -4 2 -6q3 -5 4 -10.5t1 -11.5h64h64q53 0 90.5 -37.5t37.5 -90.5v-704q0 -17 -4.5 -34t-13 -31t-20 -25.5t-25.5 -20t-31 -13t-34 -4.5zM832 128v256v128v128q0 17 -8.5 32t-23.5 23.5t-32 8.5h-64q0 -17 -8.5 -32t-23.5 -23.5t-32 -8.5h-256q-17 0 -32 8.5t-23.5 23.5
t-8.5 32h-64q-26 0 -45 -19t-19 -45v-128v-128v-256v-64q0 -27 19 -45.5t45 -18.5h512q26 0 45 18.5t19 45.5v64zM640 128q-17 0 -32 8.5t-23.5 23.5t-8.5 32t8.5 32t23.5 23.5t32 8.5q26 0 45 -19t19 -45.5t-19 -45t-45 -18.5zM640 384h-256q-26 0 -45 19t-19 45.5t19 45
t45 18.5h256q26 0 45 -18.5t19 -45.5q0 -39 -35 -57q-14 -7 -29 -7zM384 256h64q17 0 32 -8.5t23.5 -23.5t8.5 -32q0 -26 -19 -45t-45 -19h-64q-17 0 -32 8.5t-23.5 23.5t-8.5 32q0 13 5 25t13.5 20.5t20.5 13.5t25 5z" />
    <glyph glyph-name="uniE689" unicode="&#xe689;" 
d="M64 576q-26 0 -45 -19t-19 -45v-256q0 -26 19 -45t45.5 -19t45 19t18.5 45v256q0 17 -8.5 32t-23 23.5t-32.5 8.5zM192 128q0 -26 19 -45t45 -19h64v-128q0 -26 19 -45t45 -19q18 0 32.5 8.5t23 23.5t8.5 32v128h64v-128q0 -26 19 -45t45.5 -19t45 19t18.5 45v128h64
q27 0 45.5 19t18.5 45v384h-576v-384zM896.5 576q-26.5 0 -45.5 -19t-19 -45v-256q0 -26 19 -45t45.5 -19t45 19t18.5 45v256q0 26 -18.5 45t-45 19zM658 803l65 60q6 5 6 12.5t-6 13t-14 5.5t-14 -5l-70 -65q-19 11 -40.5 18.5t-48 12t-56.5 4.5q-82 0 -145 -34l-68 63
q-6 5 -14 5t-14 -5t-6 -13t6 -13l63 -59q-29 -23 -51 -55t-33 -61t-17.5 -54.5t-7.5 -41.5l-1 -15h576q0 16 -4 42.5t-31.5 87t-74.5 97.5zM373.5 655q-22.5 0 -38 15t-15.5 36.5t15.5 36t38 14.5t38 -14.5t15.5 -36t-15.5 -36.5t-38 -15zM587 655q-22 0 -37.5 15
t-15.5 36.5t15.5 36t37.5 14.5t37.5 -14.5t15.5 -36t-15.5 -36.5t-37.5 -15z" />
    <glyph glyph-name="uniE68A" unicode="&#xe68a;" 
d="M785 352q0 27 5.5 52t13.5 43t20.5 35.5t21 27t21.5 20t15 12t8 4.5q-17 25 -38 44.5t-40 29.5t-40 16.5t-34 8.5t-25 3q-33 3 -70.5 -8.5t-69 -25t-45.5 -13.5q-16 0 -71 22.5t-89 21.5q-61 -1 -114.5 -35t-85.5 -93q-31 -56 -38.5 -127.5t5.5 -141t37.5 -133
t56.5 -112.5q20 -30 33.5 -48.5t33.5 -40t41.5 -32t44.5 -9.5q28 1 73.5 21.5t84.5 20.5q25 0 47.5 -6.5t36.5 -14t34 -14t42 -5.5q19 0 37 8t31.5 18t29 29t25 32.5t25.5 37.5q40 62 67 145l-1 1q-8 3 -17 8t-31 23t-38 39t-29 57.5t-14 78.5zM663 732q27 34 41 77t10 86
q-37 -2 -76.5 -23.5t-66.5 -54.5q-6 -8 -12.5 -17.5t-12.5 -20t-10.5 -22t-8 -23.5t-6 -24.5t-3 -25t1.5 -25.5q20 -1 40.5 4t39 15t35 23.5t28.5 30.5z" />
    <glyph glyph-name="uniE68B" unicode="&#xe68b;" 
d="M512 896q-159 0 -271.5 -112.5t-112.5 -271.5q0 -49 28 -118t66 -133.5t90.5 -137.5t89.5 -119.5t74 -89.5q22 -30 34.5 -30.5t35.5 27.5q29 34 59 71.5t73 94t79 112t68.5 114t51.5 113.5t19 96q0 159 -112.5 271.5t-271.5 112.5zM512 256q-106 0 -181 75t-75 181
t75 181t181 75t181 -75t75 -181t-75 -181t-181 -75z" />
    <glyph glyph-name="uniE68C" unicode="&#xe68c;" horiz-adv-x="1025" 
d="M250 717q8 -7 18.5 -12.5t22.5 -9.5t22 -6t23 -4q3 -1 7.5 -2t16 -6.5t22 -13t23.5 -21.5t22.5 -31.5t16 -45t7.5 -59.5q1 -2 3 -6.5t8.5 -15t13.5 -18.5t18 -13.5t22.5 -4.5t26.5 13t30 36q1 2 2 5.5t1 8t1 5.5q5 24 16 49q31 78 92 113q21 12 48 22q7 3 16.5 6.5t16 6
t15 6t15 7t14 8.5t14.5 11q45 43 41 79q-4 29 -30 56q-9 10 -40 15q-50 9 -83 -58q-10 -21 -20 -51q-3 -6 -7.5 -25.5t-9.5 -29.5q-4 -8 -23 -35l-6 -9q-4 -6 -7 -9.5t-7 -9t-7 -9.5t-7 -9l-8 -8q-4 -3 -9 -6l-10 -6q-48 -24 -95 5q-27 16 -48 33t-33 37q-7 11 -10 28v5
q-2 6 -2 10q-4 18 -19 52q-32 73 -76 89q-15 5 -35 2q-39 -5 -48 -23q-10 -20 -7 -79q3 -45 32 -72zM525 724q11 -5 24.5 -6t26 2.5t23.5 9.5q19 13 22.5 48t-6.5 55q-8 21 -29.5 35.5t-47.5 22.5q-18 6 -33 1q-11 -3 -19 -11t-13 -20t-7 -27q-4 -40 3 -51q12 -19 26 -35
t30 -24zM205 199q0 2 3 12t14 28.5t28 35t50.5 29.5t76.5 14l27 16q65 49 -10 106q-4 2 -8 5q-2 1 -5.5 1.5t-8 1t-5.5 1.5q-22 5 -47 16q-36 15 -63.5 38.5t-45.5 56.5q-2 3 -3.5 6t-3 6.5t-2.5 6.5l-2 6l-4 6q-1 3 -2 6.5t-2.5 6.5t-2.5 6q-3 7 -8.5 24t-9 26t-10.5 21.5
t-15 22.5q-42 47 -77 42q-28 -4 -54 -30q-9 -10 -14 -42q-5 -29 11.5 -50t44.5 -36q20 -11 49 -21q7 -2 25.5 -7t28.5 -10q5 -2 33 -24q3 -2 14 -10t15.5 -12t12.5 -11.5t13 -14.5t9 -15q11 -23 10 -49.5t-14 -49.5q-7 -13 -14 -23.5t-15.5 -22t-18.5 -21.5t-20 -17
q-3 -2 -6.5 -3.5t-7 -2.5t-5.5 -2l-8 -1q-12 -3 -14 -3q-5 -1 -10.5 -2.5t-10 -3.5t-10 -4.5t-9.5 -4t-10 -4.5q-71 -34 -86 -79q-5 -16 -2 -37q5 -39 22 -49q19 -11 77 -7q43 2 69 33q21 26 31 89zM60 334q16 -2 25.5 -2.5t24.5 4.5q43 30 56 59q8 17 6 38.5t-12 37.5
q-12 20 -45.5 23.5t-53.5 -7.5q-37 -16 -56 -79q-3 -9 -3 -18t2 -17q10 -34 56 -39zM776 50q-11 9 -26.5 16t-28.5 10.5t-31 6.5q-6 1 -14 3.5t-27.5 15t-33.5 30t-26.5 52t-12.5 77.5l-15 28q-48 68 -103 -10q-2 -4 -5 -8q-2 -3 -3 -13v-7q-6 -23 -16 -49q-31 -77 -93 -112
q-7 -4 -15.5 -8t-16 -7.5t-16.5 -6.5q-7 -3 -23.5 -9t-25 -9.5t-20.5 -10.5t-22 -16q-45 -43 -41 -79q2 -14 10.5 -29.5t19.5 -26.5q5 -5 17 -9t23 -6q50 -9 83 58q10 19 21 51q2 7 4.5 17.5t5 20.5t6.5 17q3 7 23 35q3 3 10.5 14t11.5 16t11 13t13.5 13.5t14.5 8.5
q48 25 96 -4q59 -36 81 -71q5 -10 9 -27v-3l2 -12q4 -19 18 -52q33 -73 77 -89q15 -6 35 -3q38 5 48 23q10 20 7 79q-3 46 -32 72zM501 43q-11 6 -24.5 6.5t-26.5 -2.5t-23 -10q-19 -12 -22.5 -47t6.5 -55q15 -39 76 -59q19 -5 34 -1q33 10 39 58q1 11 1.5 17.5t0 17.5
t-4.5 16q-28 45 -56 59zM968 174q-20 10 -49 21q-6 2 -25 7t-29 10q-5 3 -10 6.5t-13 10t-10 7.5q-3 3 -13.5 11t-15 12t-12.5 11.5t-13 14.5t-9 15q-11 24 -9.5 50t14.5 49q34 60 69 83q11 7 26 10q2 0 7 1t8 1q19 4 50 19q71 33 87 78q5 16 3 37q-6 40 -23 49
q-19 12 -76 8q-44 -2 -69 -33q-22 -25 -33 -88q0 -3 -1.5 -7.5t-6.5 -16.5t-12 -23t-21 -24.5t-31 -23t-43.5 -16t-57.5 -7.5l-6 -3q-4 -2 -14.5 -8.5t-18 -14t-13.5 -19t-4.5 -23.5t13 -27.5t33.5 -30.5q2 -2 5.5 -2.5t8 -1t5.5 -0.5q22 -6 47 -17q36 -16 63.5 -39.5
t44.5 -57.5q11 -20 22 -50q2 -7 6 -19.5t7 -20.5t7.5 -18t9.5 -19t12 -17q42 -47 76 -43q14 2 29 10.5t26 19.5q9 10 14 42q9 52 -55 87zM967 428q-39 5 -49 -2q-44 -29 -58 -58q-5 -11 -6 -25t2 -27.5t10 -24.5q12 -20 45.5 -23.5t52.5 6.5q38 16 57 79q3 9 3.5 18t-1.5 16
q-5 17 -19.5 27.5t-36.5 13.5z" />
    <glyph glyph-name="uniE68D" unicode="&#xe68d;" 
d="M864 427q1 31 0 61.5t-7 72t-16.5 79t-30 77.5t-45.5 71q-91 109 -255 108q-162 1 -252 -107q-33 -39 -55 -89.5t-31 -102.5t-12 -92.5t-2 -80.5l3 10q-42 -56 -73.5 -167.5t-22.5 -141.5q4 -11 13 -12q55 -10 101 46l5 6l-6 -1l-5 4l2 -6q2 -6 12 -28.5t20.5 -45.5
t15.5 -31l3 -7l1 5l-5 -2q-14 -3 -30.5 -15t-28.5 -31q-16 -26 -9 -54q11 -38 62 -57q140 -53 258 5q38 19 75 -1q20 -11 55 -19t94.5 -6t113.5 24q47 19 57 54q7 25 -8 49q-25 40 -64 52l-5 2l2 -9l2 4q8 12 25.5 51.5t22.5 51.5v2l4 8l-5 -2l-6 1l2 -2q15 -26 48.5 -43
t58.5 -4q10 4 13 18q8 38 -26.5 143.5t-70.5 160.5z" />
    <glyph glyph-name="uniE68E" unicode="&#xe68e;" 
d="M1015 514q-3 10 -8.5 18.5t-13.5 15t-17 11t-19 5.5l-264 41l-115 248q-9 20 -27 31.5t-39 11.5t-39 -11.5t-27 -31.5l-115 -248l-264 -41q-20 -3 -36 -16.5t-22 -33.5q-14 -43 17 -75l193 -201l-45 -280q-3 -21 5 -40.5t25 -31.5q19 -14 42 -14q19 0 36 9l230 129
l230 -129q8 -4 17 -6.5t18 -2.5q24 0 43 14q17 12 25 31.5t5 40.5l-29 176q25 1 47.5 3t33.5 3l10 2l-96 8q1 -1 2.5 -7t1.5 -7q-302 -19 -471 8q-18 2 -20 14t9 22q58 62 234 224q12 11 10.5 18.5t-14.5 11.5q-24 5 -69 13t-95 17t-77 14q-5 2 -6 7t2.5 8.5t8.5 4.5
q200 31 402 -2q11 0 19 -5.5t9 -13.5t-6 -17q-24 -25 -108 -105q-93 -88 -122 -118q-4 -4 -10 -11q-11 -11 -13.5 -15t1.5 -7.5t20 -6.5q131 -27 295 -47l-14 88l193 201q31 32 17 75z" />
    <glyph glyph-name="uniE68F" unicode="&#xe68f;" 
d="M769 369q-9 2 -12.5 4t-6.5 7.5t2 14.5q26 65 1 102q-26 35 -87.5 35t-141.5 -34q-27 -11 -25 7l1 5q26 83 -11 120q-43 43 -141.5 4.5t-194.5 -135.5q-73 -74 -113 -148.5t-40 -140.5q0 -31 10 -60.5t27.5 -54t42.5 -46.5t55 -39.5t65 -31t73 -23t77.5 -14t79.5 -4.5
q80 0 154 17.5t129.5 47.5t96.5 67.5t62 78.5t21 80q0 54 -36 89.5t-88 51.5zM430.5 -2.5q-83.5 -8.5 -157 12t-119 63t-51.5 97.5q-8 83 76 151.5t211 80.5q63 6 121.5 -4t102 -33t71.5 -58t32 -77q6 -54 -30.5 -105t-104.5 -85t-151.5 -42.5zM468 316q-60 16 -120 -10.5
t-86 -79.5q-17 -38 -13.5 -73.5t28.5 -64.5t65 -42q63 -21 127.5 6.5t90.5 86.5q16 39 10 75t-33 64t-69 38zM407 130q-13 -19 -35.5 -26.5t-42.5 1.5t-25 29t7.5 39t34.5 26.5t42 -0.5q13 -6 20 -17t7 -25t-8 -27zM461 200q-5 -8 -13.5 -11t-16.5 0q-7 3 -9 10.5t2 15.5
q3 5 8 8t10 3.5t10 -0.5q8 -3 10.5 -10.5t-1.5 -15.5zM954 680q-33 36 -76.5 59t-89 28.5t-92.5 -4.5q-16 -3 -24.5 -16.5t-5.5 -29.5q2 -8 6.5 -14.5t10.5 -10.5t14 -5.5t15 -0.5q50 11 99.5 -4.5t84.5 -54.5t45.5 -90.5t-5.5 -98.5q-5 -16 2.5 -30.5t22.5 -19.5
q5 -2 10.5 -2t10.5 1t9.5 3.5t8 5.5t6.5 7.5t5 9.5v1q11 33 12.5 68.5t-5 69.5t-23 67t-41.5 61zM836 434.5q13 -4.5 25.5 2t16.5 19.5q11 33 4 68t-31 62t-58 37.5t-68 3.5q-14 -3 -21.5 -15t-4.5 -25.5t15 -21t25 -4.5q37 7 62 -20q25 -28 13 -64q-4 -13 2.5 -25.5
t19.5 -17z" />
    <glyph glyph-name="uniE690" unicode="&#xe690;" horiz-adv-x="1026" 
d="M349 832h-93q-27 0 -46 -19l-186 -192q-2 -3 -6.5 -8.5t-6.5 -8t-5 -6.5t-4 -6t-2 -5t0.5 -4t3 -3t5.5 -2.5t9.5 -1t13.5 -0.5h216zM691 576l-95 256h-167l-95 -256h357zM532 -8l164 520h-362l158 -520l-246 520h-220q-10 0 -14 -1.5t-5 -5.5t3.5 -11t14.5 -19
q96 -123 436 -514h1q20 -25 50 -25t49 25h1q329 382 429 510q30 36 19 40l-20 1h-206zM999 621l-186 192q-4 4 -8 7t-8 5t-9 3.5t-10 2.5t-10 1h-92l102 -256h210q15 0 24 2t12 4.5t0 8.5t-7 10.5t-13 14.5z" />
    <glyph glyph-name="uniE691" unicode="&#xe691;" 
d="M1024 576q0 -20 -14 -39h1l-448 -576h-1q-20 -25 -50 -25q-8 0 -15 2t-13 5t-11.5 8t-10.5 10h-1l-448 576h1q-6 9 -10 18.5t-4 20.5q0 26 19 45l192 192q19 19 45 19h512q26 0 45 -19l192 -192q19 -19 19 -45zM742 704h-460l-133 -133l363 -467l363 467z" />
    <glyph glyph-name="uniE692" unicode="&#xe692;" 
d="M343 193l170 -190l169 191q-74 65 -169 65q-48 0 -91.5 -17.5t-78.5 -48.5zM173 385l85 -96q109 98 255 98q145 0 254 -97l85 96q-70 61 -157 95t-182 34q-96 0 -183.5 -34t-156.5 -96zM513 771q-145 0 -275.5 -51t-234.5 -144l85 -96q86 78 195 120.5t230 42.5
q119 0 228 -42.5t195 -118.5l85 95q-34 30 -71 56t-77.5 47.5t-83.5 38.5t-88 28.5t-92.5 17.5t-95.5 6z" />
    <glyph glyph-name="uniE693" unicode="&#xe693;" 
d="M924 696l-50 50l-142 142q-20 -11 -41.5 -19t-43.5 -12t-44.5 -4t-44.5 4t-43.5 11.5t-41.5 19.5l-97 -97l-271 -271l-97 -97q35 -60 35 -129.5t-35 -129.5l92 -92l100 -100l92 -92q60 35 129.5 35t129.5 -35l97 97l271 271l97 97q-35 60 -35 129.5t35 129.5zM866 376
l-346 -346q-98 25 -197 0l-165 165q25 98 0 197l346 346q33 -8 65.5 -11t65.5 0t66 11l165 -165q-12 -49 -12 -98.5t12 -98.5zM557 520l-181 -181q-19 -19 -19 -45.5t19 -45.5q13 -12 29.5 -16.5t32.5 0t29 16.5l181 181q19 19 19 45.5t-19 45.5t-45.5 19t-45.5 -19z" />
    <glyph glyph-name="uniE694" unicode="&#xe694;" 
d="M512 832q-90 0 -174.5 -38t-143.5 -94t-104.5 -119.5t-67.5 -115.5t-22 -81t22 -81t67 -115.5t104 -119.5t144 -94t175 -38t174.5 38t143.5 94t104.5 119.5t67.5 115.5t22 81t-21.5 81t-67 115.5t-104 119.5t-143.5 94t-176 38zM512 63q-60 0 -120.5 27.5t-106 68
t-82 85.5t-55.5 83t-19 57.5t18.5 57t55 83t82 86.5t106 68.5t121.5 27.5q60 0 120.5 -27.5t106 -68.5t82 -86.5t55.5 -83.5t19 -57q0 -16 -13.5 -45.5t-37 -65.5t-59.5 -73t-76.5 -67.5t-92.5 -50t-104 -19.5zM512 576q-80 0 -136 -56t-56 -136t56 -136t136 -56t136 56
t56 136t-56 136t-136 56zM512 320q-26 0 -45 19t-19 45t19 45t45 19t45 -19t19 -45t-19 -45t-45 -19z" />
    <glyph glyph-name="uniE695" unicode="&#xe695;" 
d="M436 243q-30 14 -139 72.5t-203 110.5l-94 51v162q414 -241 448 -256q42 -15 64 -14.5t64 14.5q18 7 130 71t215 124l103 61q0 53 -37.5 90.5t-90.5 37.5h-768q-35 0 -64.5 -17t-46.5 -46.5t-17 -64.5v-576q0 -53 37.5 -90.5t90.5 -37.5h768q53 0 90.5 37.5t37.5 90.5
v412q-375 -204 -438 -232q-43 -17 -75 -17t-75 17z" />
    <glyph glyph-name="uniE696" unicode="&#xe696;" 
d="M896 896h-768q-53 0 -90.5 -37.5t-37.5 -90.5v-576q0 -53 37.5 -90.5t90.5 -37.5h166l173 -173q19 -19 45 -19q13 0 24.5 5t20.5 14l173 173h166q53 0 90.5 37.5t37.5 90.5v576q0 53 -37.5 90.5t-90.5 37.5zM896 256q0 -26 -19 -45t-45 -19h-128q-26 0 -45 -19l-147 -146
l-147 146q-19 19 -45 19h-128q-26 0 -45 19t-19 45v448q0 26 19 45t45 19h640q26 0 45 -19t19 -45v-448zM647 665q-28 19 -63.5 29t-78.5 10q-16 0 -31 -2t-28.5 -5.5t-26 -8.5t-24.5 -12q-64 -36 -76 -146q2 -17 13 -17h82q9 0 13 3.5t4 15.5q4 17 17 37q18 28 62 28
q48 0 63 -20q9 -12 11 -18t2 -19q0 -8 -2 -15.5t-5.5 -13.5t-8.5 -13q-8 -12 -22 -22q-60 -36 -86 -66q-5 -6 -8.5 -14t-5 -19t-2.5 -20t-1 -26q-1 -8 10 -8h85q9 0 10 8q1 10 2 16t3 12q3 10 11.5 19.5t21.5 19.5l30 20q24 18 38 29.5t20 20.5q28 37 28 80q0 19 -3.5 36
t-10.5 31.5t-17.5 27t-25.5 22.5zM513 254q-18 0 -33 -7t-24.5 -21.5t-10 -32.5t8 -32.5t23 -22.5t32.5 -9q28 0 47.5 16t20 44t-17.5 46t-46 19z" />
    <glyph glyph-name="uniE697" unicode="&#xe697;" 
d="M960 448h-896q-26 0 -45 -19t-19 -45t19 -45t45 -19h896q26 0 45 19t19 45t-19 45t-45 19z" />
    <glyph glyph-name="uniE698" unicode="&#xe698;" 
d="M512 896q139 0 257 -68.5t186.5 -186.5t68.5 -257t-68.5 -257t-186.5 -186.5t-257 -68.5t-257 68.5t-186.5 186.5t-68.5 257t68.5 257t186.5 186.5t257 68.5z" />
    <glyph glyph-name="uniE699" unicode="&#xe699;" horiz-adv-x="1025" 
d="M414 50l-392 534q-20 28 -21.5 61t13 60t43 45t63.5 18h784q35 0 64 -18t43 -45t13 -60t-22 -61l-391 -534q-36 -50 -98.5 -50t-98.5 50z" />
    <glyph glyph-name="uniE69A" unicode="&#xe69a;" horiz-adv-x="1025" 
d="M611 719l391 -535q21 -28 22 -61t-13 -60t-43 -45t-64 -18h-784q-35 0 -63.5 18t-43 45t-13 60t21.5 61l392 535q23 32 60.5 43.5t75 0t61.5 -43.5z" />
    <glyph glyph-name="uniE69B" unicode="&#xe69b;" 
d="M192 320h-128q-26 0 -45 -19t-19 -45v-320q0 -26 19 -45t45 -19h128q26 0 45 19t19 45v320q0 26 -19 45t-45 19zM576 896h-128q-26 0 -45 -19t-19 -45v-896q0 -26 19 -45t45 -19h128q26 0 45 19t19 45v896q0 26 -19 45t-45 19zM960 576h-128q-26 0 -45 -19t-19 -45v-576
q0 -26 19 -45t45 -19h128q26 0 45 19t19 45v576q0 26 -19 45t-45 19z" />
    <glyph glyph-name="uniE69C" unicode="&#xe69c;" 
d="M934 620q-28 22 -274 130t-295 125q-31 12 -58.5 14.5t-49.5 -3.5t-39.5 -18t-30 -29t-19.5 -38h-1q-7 3 -11 4.5t-5 1.5q-14 4 -28.5 3t-28 -4.5t-25.5 -14.5t-20.5 -26t-13 -38.5t-3.5 -53.5v-544h1q0 -8 6 -14t15 -6q5 0 10 2.5t7.5 7t3.5 10.5v534q-2 61 15.5 86
t53.5 15q5 -1 17 -6v1l9 -4q-3 1 -7 3h-2v-2v-2v-114q0 -97 -0.5 -205t-0.5 -203v-110q1 -28 15 -49t35 -31.5t45.5 -15t48 -1t40.5 13.5q17 7 71 38.5t122.5 74.5t136.5 86.5t120 79.5t66 49q17 16 22.5 45t-4.5 58.5t-34 45.5q-40 31 -251 118t-386 153v-1l-39 15
q8 -3 18 -6.5t21 -7.5q7 23 21.5 38.5t41.5 22t67 -5.5q17 -5 145.5 -59.5t264 -116.5t159.5 -79q42 -22 59.5 -80t2.5 -121t-59 -98q-21 -20 -164.5 -113.5t-273.5 -175.5t-134 -83l1 -1q-7 -7 -7 -16q0 -8 6.5 -14.5t14.5 -6.5q3 0 5.5 0.5t4.5 2t4 2.5q532 339 569 374
q41 29 64 80.5t24 104.5t-22 102.5t-67 75.5zM165 786l-3 -18v6l2 6q0 3 1 6zM809 383q-26 -22 -131.5 -89t-211.5 -130.5t-139 -80.5q-52 -23 -87 -3.5t-36 61.5q-1 33 -1 602v0q46 -17 109.5 -41.5t136.5 -54.5t139.5 -57.5t120.5 -52.5t76 -38q33 -19 44 -41.5t4.5 -41
t-24.5 -33.5z" />
    <glyph glyph-name="uniE69D" unicode="&#xe69d;" horiz-adv-x="1026" 
d="M683 -54q-2 0 -4 -0.5t-4 -1.5v0h-1q-38 -14 -79 -21.5t-83 -7.5q-96 0 -182.5 37t-149.5 100t-100 150t-37 182.5t37 182t100 149.5t149.5 100t182 37t182.5 -37t150 -100t100 -149.5t37 -182.5q0 -36 -5 -72q-2 -4 -2 -5q0 -6 3 -11t8 -8t11 -3q5 0 9.5 2.5t7.5 7
t3 9.5l1 -1q7 41 7 81q0 104 -40.5 199t-109 163.5t-163.5 109t-199 40.5q-84 0 -162 -26t-141 -73t-110 -110t-73 -141t-26 -162q0 -104 40.5 -199t109 -163.5t163.5 -109t199 -40.5q92 0 178 32q3 1 5.5 3t4.5 5t3 6t1 6q0 6 -3 11t-8 8t-10 3zM927 159h24l-84 -158
l-36 158h12v12h-97v-12h25l60 -231q0 -2 1 -4t5.5 -5.5t9.5 -2.5q4 0 7 1t5.5 3t4 3.5t2.5 3.5l1 1l133 231h24v12h-97v-12zM405 508v-269q0 -15 9.5 -20t18.5 2l216 137q9 6 9 16t-9 16l-216 137q-7 3 -13 3t-10.5 -5.5t-4.5 -16.5zM448 436q0 17 4 19t17 -7l107 -64
q6 -3 8.5 -5.5t3 -5t-2.5 -5t-9 -5.5l-107 -64q-10 -7 -14.5 -7.5t-5.5 3.5t-1 16v125z" />
    <glyph glyph-name="uniE69E" unicode="&#xe69e;" 
d="M704 -128h-384q-80 0 -136 56.5t-56 135.5q14 86 68 157.5t131 114.5q-71 74 -71 176v128q0 106 75 181t181 75t181 -75t75 -181v-128q0 -102 -71 -176q77 -43 131 -114.5t68 -157.5q0 -79 -56.5 -135.5t-135.5 -56.5zM640 512v128q0 53 -37.5 90.5t-90.5 37.5
t-90.5 -37.5t-37.5 -90.5v-128q0 -53 37.5 -90.5t90.5 -37.5t90.5 37.5t37.5 90.5zM768 64q-21 83 -94 137.5t-162 54.5v0q-89 0 -162 -54.5t-94 -137.5q0 -27 18.5 -45.5t45.5 -18.5h384q27 0 45.5 18.5t18.5 45.5z" />
    </font>
</defs>
</svg>
